<?xml version="1.0" encoding="UTF-8" standalone="no"?>
<svg
   xmlns:dc="http://purl.org/dc/elements/1.1/"
   xmlns:cc="http://creativecommons.org/ns#"
   xmlns:rdf="http://www.w3.org/1999/02/22-rdf-syntax-ns#"
   xmlns:svg="http://www.w3.org/2000/svg"
   xmlns="http://www.w3.org/2000/svg"
   xmlns:sodipodi="http://sodipodi.sourceforge.net/DTD/sodipodi-0.dtd"
   xmlns:inkscape="http://www.inkscape.org/namespaces/inkscape"
   inkscape:export-ydpi="199"
   inkscape:export-xdpi="199"
   inkscape:export-filename="C:\FG\REPOS\cloud-storage\RestOverheadPaper\l3ev-to-size.png"
   inkscape:version="1.0 (4035a4fb49, 2020-05-01)"
   sodipodi:docname="Open_Conn_Number_of_Threads_1_1_10_1_240_1_240_24_.svg"
   id="svg161"
   height="371"
   width="600"
   stroke-miterlimit="10"
   stroke-linecap="square"
   stroke="none"
   fill="none"
   viewBox="0.0 0.0 600.0 371.0"
   version="1.1">
  <metadata
     id="metadata167">
    <rdf:RDF>
      <cc:Work
         rdf:about="">
        <dc:format>image/svg+xml</dc:format>
        <dc:type
           rdf:resource="http://purl.org/dc/dcmitype/StillImage" />
      </cc:Work>
    </rdf:RDF>
  </metadata>
  <defs
     id="defs165" />
  <sodipodi:namedview
     inkscape:document-rotation="0"
     inkscape:current-layer="svg161"
     inkscape:window-maximized="1"
     inkscape:window-y="-11"
     inkscape:window-x="-11"
     inkscape:cy="215.96832"
     inkscape:cx="309.03987"
     inkscape:zoom="1.2722372"
     showgrid="false"
     id="namedview163"
     inkscape:window-height="986"
     inkscape:window-width="1920"
     inkscape:pageshadow="2"
     inkscape:pageopacity="0"
     guidetolerance="10"
     gridtolerance="10"
     objecttolerance="10"
     borderopacity="1"
     bordercolor="#666666"
     pagecolor="#ffffff" />
  <path
     sodipodi:nodetypes="cc"
     style="fill-rule:nonzero;stroke:#cccccc;stroke-width:1;stroke-linecap:butt"
     inkscape:connector-curvature="0"
     id="path4"
     d="m 179.5,157.5 v 141" />
  <path
     sodipodi:nodetypes="cc"
     style="fill-rule:nonzero;stroke:#cccccc;stroke-width:1;stroke-linecap:butt"
     inkscape:connector-curvature="0"
     id="path6"
     d="m 291.5,157.5 v 141" />
  <path
     id="path8"
     fill-rule="nonzero"
     d="M403.5 75.5L403.5 298.5"
     stroke-linecap="butt"
     stroke-width="1.0"
     stroke="#cccccc" />
  <path
     id="path10"
     fill-rule="nonzero"
     d="M515.5 75.5L515.5 298.5"
     stroke-linecap="butt"
     stroke-width="1.0"
     stroke="#cccccc" />
  <path
     id="path12"
     fill-rule="nonzero"
     d="M113.5 250.5L581.5 250.5"
     stroke-linecap="butt"
     stroke-width="1.0"
     stroke="#cccccc" />
  <path
     id="path14"
     fill-rule="nonzero"
     d="M113.5 229.5L581.5 229.5"
     stroke-linecap="butt"
     stroke-width="1.0"
     stroke="#cccccc" />
  <path
     id="path16"
     fill-rule="nonzero"
     d="M113.5 180.5L581.5 180.5"
     stroke-linecap="butt"
     stroke-width="1.0"
     stroke="#cccccc" />
  <path
     id="path18"
     fill-rule="nonzero"
     d="M113.5 159.5L581.5 159.5"
     stroke-linecap="butt"
     stroke-width="1.0"
     stroke="#cccccc" />
  <path
     id="path20"
     fill-rule="nonzero"
     d="M113.5 110.5L581.5 110.5"
     stroke-linecap="butt"
     stroke-width="1.0"
     stroke="#cccccc" />
  <path
     id="path22"
     fill-rule="nonzero"
     d="M113.5 89.5L581.5 89.5"
     stroke-linecap="butt"
     stroke-width="1.0"
     stroke="#cccccc" />
  <clipPath
     id="id_0">
    <path
       id="path24"
       clip-rule="nonzero"
       d="M113.55 75.78333L581.45 75.78333L581.45 298.45L113.55 298.45L113.55 75.78333Z" />
  </clipPath>
  <path
     id="path27"
     fill-rule="nonzero"
     d="M123.14008 250.59096C123.14008 250.59096 216.62338 250.25153 235.32004 250.11018C254.0167 249.96886 272.71335 250.1107 291.41003 249.50256C310.1067 248.89442 384.8933 246.9779 403.58997 243.42015C422.28665 239.8624 440.9833 237.0677 459.67996 225.11484C478.37662 213.16197 571.8599 118.291016 571.8599 118.291016"
     clip-path="url(#id_0)"
     stroke-linecap="butt"
     stroke-width="2.0"
     stroke="#4285f4" />
  <path
     id="path29"
     fill-rule="nonzero"
     d="M123.14008 263.4417C123.14008 263.4417 216.62338 265.19443 235.32004 263.02142C254.0167 260.8484 272.71335 254.3544 291.41003 250.1935C310.1067 246.0326 384.8933 245.5427 403.58997 225.91847C422.28665 206.29425 459.67996 120.31064 459.67996 120.31064"
     clip-path="url(#id_0)"
     stroke-linecap="butt"
     stroke-width="2.0"
     stroke="#db4437" />
  <path
     id="path31"
     fill-rule="nonzero"
     d="M123.14008 266.02905C123.14008 266.02905 216.62338 268.97086 235.32004 265.64938C254.0167 262.32788 272.71335 251.53635 291.41003 245.91034C310.1067 240.28433 403.58997 217.87633 403.58997 217.87633"
     clip-path="url(#id_0)"
     stroke-linecap="butt"
     stroke-width="2.0"
     stroke="#f4b400" />
  <path
     id="path33"
     fill-rule="nonzero"
     d="M123.14008 264.56705C123.14008 264.56705 216.62338 267.33444 235.32004 264.20163C254.0167 261.06882 272.71335 251.01544 291.41003 245.58743C310.1067 240.15944 403.58997 217.67972 403.58997 217.67972"
     clip-path="url(#id_0)"
     stroke-linecap="butt"
     stroke-width="2.0"
     stroke="#0f9d58" />
  <path
     style="stroke-width:2;stroke-miterlimit:10;stroke-dasharray:2, 2;stroke-dashoffset:0;stroke:#4285f4;stroke-opacity:1"
     id="path35"
     fill-rule="nonzero"
     d="M123.14008 283.5072C123.14008 283.5072 216.62338 284.02615 235.32004 284.10492C254.0167 284.1837 272.71335 286.50693 291.41003 284.2787C310.1067 282.05045 384.8933 266.98734 403.58997 257.19226C422.28665 247.3972 440.9833 230.51056 459.67996 211.9651C478.37662 193.41966 571.8599 79.87409 571.8599 79.87409"
     clip-path="url(#id_0)"
     stroke-linecap="butt"
     stroke-width="2.0"
     stroke="#ff6d00" />
  <path
     style="stroke-width:2;stroke-miterlimit:10;stroke-dasharray:2, 2;stroke-dashoffset:0;stroke:#db4437;stroke-opacity:1"
     id="path37"
     fill-rule="nonzero"
     d="M123.14008 297.82626C123.14008 297.82626 216.62338 302.50354 235.32004 297.55847C254.0167 292.61343 272.71335 277.63022 291.41003 268.0221C310.1067 258.414 384.8933 239.15205 403.58997 211.79762C422.28665 184.4432 459.67996 75.78333 459.67996 75.78333"
     clip-path="url(#id_0)"
     stroke-linecap="butt"
     stroke-width="2.0"
     stroke="#46bdc6" />
  <path
     style="stroke-width:2;stroke-miterlimit:10;stroke-dasharray:2, 2;stroke-dashoffset:0;stroke:#f4b400;stroke-opacity:1"
     id="path39"
     fill-rule="nonzero"
     d="M123.14008 298.20172C123.14008 298.20172 216.62338 305.13614 235.32004 298.45C254.0167 291.76385 272.71335 270.65225 291.41003 258.209C310.1067 245.7658 403.58997 189.37218 403.58997 189.37218"
     clip-path="url(#id_0)"
     stroke-linecap="butt"
     stroke-width="2.0"
     stroke="#ab30c4" />
  <path
     style="stroke-width:2;stroke-miterlimit:10;stroke-dasharray:2, 2;stroke-dashoffset:0;stroke:#0f9d58;stroke-opacity:1"
     id="path41"
     fill-rule="nonzero"
     d="M123.14008 297.37082C123.14008 297.37082 216.62338 306.12698 235.32004 297.3913C254.0167 288.6556 272.71335 259.45667 291.41003 244.96693C310.1067 230.4772 403.58997 175.93883 403.58997 175.93883"
     clip-path="none"
     stroke-linecap="butt"
     stroke-width="2.0"
     stroke="#c1bc1f" />
  <path
     style="clip-rule:nonzero"
     inkscape:connector-curvature="0"
     d="m 113.55,75.78333 h 467.9 V 298.45 h -467.9 z"
     id="path974" />
  <path
     id="path43"
     fill-rule="nonzero"
     d="M129.14008 250.59096C129.14008 253.90466 126.45379 256.59094 123.14008 256.59094C119.82637 256.59094 117.14008 253.90466 117.14008 250.59096C117.14008 247.27724 119.82637 244.59096 123.14008 244.59096C126.45379 244.59096 129.14008 247.27724 129.14008 250.59096Z"
     clip-path="url(#id_0)"
     fill="#4285f4" />
  <path
     id="path45"
     fill-rule="nonzero"
     d="M241.32004 250.11018C241.32004 253.4239 238.63374 256.1102 235.32004 256.1102C232.00633 256.1102 229.32004 253.4239 229.32004 250.11018C229.32004 246.79648 232.00633 244.11018 235.32004 244.11018C238.63374 244.11018 241.32004 246.79648 241.32004 250.11018Z"
     clip-path="url(#id_0)"
     fill="#4285f4" />
  <path
     id="path47"
     fill-rule="nonzero"
     d="M297.41003 249.50256C297.41003 252.81627 294.72372 255.50256 291.41003 255.50256C288.0963 255.50256 285.41003 252.81627 285.41003 249.50256C285.41003 246.18886 288.0963 243.50256 291.41003 243.50256C294.72372 243.50256 297.41003 246.18886 297.41003 249.50256Z"
     clip-path="url(#id_0)"
     fill="#4285f4" />
  <path
     id="path49"
     fill-rule="nonzero"
     d="M409.58997 243.42015C409.58997 246.73386 406.9037 249.42015 403.58997 249.42015C400.27628 249.42015 397.58997 246.73386 397.58997 243.42015C397.58997 240.10645 400.27628 237.42015 403.58997 237.42015C406.9037 237.42015 409.58997 240.10645 409.58997 243.42015Z"
     clip-path="url(#id_0)"
     fill="#4285f4" />
  <path
     id="path51"
     fill-rule="nonzero"
     d="M465.67996 225.11484C465.67996 228.42854 462.99368 231.11484 459.67996 231.11484C456.36624 231.11484 453.67996 228.42854 453.67996 225.11484C453.67996 221.80113 456.36624 219.11484 459.67996 219.11484C462.99368 219.11484 465.67996 221.80113 465.67996 225.11484Z"
     clip-path="url(#id_0)"
     fill="#4285f4" />
  <path
     id="path53"
     fill-rule="nonzero"
     d="M577.8599 118.291016C577.8599 121.60473 575.17365 124.291016 571.8599 124.291016C568.5462 124.291016 565.8599 121.60473 565.8599 118.291016C565.8599 114.97731 568.5462 112.291016 571.8599 112.291016C575.17365 112.291016 577.8599 114.97731 577.8599 118.291016Z"
     clip-path="url(#id_0)"
     fill="#4285f4" />
  <path
     id="path55"
     fill-rule="nonzero"
     d="M129.14008 263.4417C129.14008 266.75543 126.45379 269.4417 123.14008 269.4417C119.82637 269.4417 117.14008 266.75543 117.14008 263.4417C117.14008 260.12802 119.82637 257.4417 123.14008 257.4417C126.45379 257.4417 129.14008 260.12802 129.14008 263.4417Z"
     clip-path="url(#id_0)"
     fill="#db4437" />
  <path
     id="path57"
     fill-rule="nonzero"
     d="M241.32004 263.02142C241.32004 266.3351 238.63374 269.02142 235.32004 269.02142C232.00633 269.02142 229.32004 266.3351 229.32004 263.02142C229.32004 259.7077 232.00633 257.02142 235.32004 257.02142C238.63374 257.02142 241.32004 259.7077 241.32004 263.02142Z"
     clip-path="url(#id_0)"
     fill="#db4437" />
  <path
     id="path59"
     fill-rule="nonzero"
     d="M297.41003 250.1935C297.41003 253.5072 294.72372 256.19348 291.41003 256.19348C288.0963 256.19348 285.41003 253.5072 285.41003 250.1935C285.41003 246.87979 288.0963 244.1935 291.41003 244.1935C294.72372 244.1935 297.41003 246.87979 297.41003 250.1935Z"
     clip-path="url(#id_0)"
     fill="#db4437" />
  <path
     id="path61"
     fill-rule="nonzero"
     d="M409.58997 225.91847C409.58997 229.23218 406.9037 231.91847 403.58997 231.91847C400.27628 231.91847 397.58997 229.23218 397.58997 225.91847C397.58997 222.60477 400.27628 219.91847 403.58997 219.91847C406.9037 219.91847 409.58997 222.60477 409.58997 225.91847Z"
     clip-path="url(#id_0)"
     fill="#db4437" />
  <path
     id="path63"
     fill-rule="nonzero"
     d="M465.67996 120.31064C465.67996 123.624344 462.99368 126.31064 459.67996 126.31064C456.36624 126.31064 453.67996 123.624344 453.67996 120.31064C453.67996 116.996925 456.36624 114.31064 459.67996 114.31064C462.99368 114.31064 465.67996 116.996925 465.67996 120.31064Z"
     clip-path="url(#id_0)"
     fill="#db4437" />
  <path
     id="path65"
     fill-rule="nonzero"
     d="M129.14008 266.02905C129.14008 269.34277 126.45379 272.02905 123.14008 272.02905C119.82637 272.02905 117.14008 269.34277 117.14008 266.02905C117.14008 262.71536 119.82637 260.02905 123.14008 260.02905C126.45379 260.02905 129.14008 262.71536 129.14008 266.02905Z"
     clip-path="url(#id_0)"
     fill="#f4b400" />
  <path
     id="path67"
     fill-rule="nonzero"
     d="M241.32004 265.64938C241.32004 268.96307 238.63374 271.64938 235.32004 271.64938C232.00633 271.64938 229.32004 268.96307 229.32004 265.64938C229.32004 262.33566 232.00633 259.64938 235.32004 259.64938C238.63374 259.64938 241.32004 262.33566 241.32004 265.64938Z"
     clip-path="url(#id_0)"
     fill="#f4b400" />
  <path
     id="path69"
     fill-rule="nonzero"
     d="M297.41003 245.91034C297.41003 249.22404 294.72372 251.91034 291.41003 251.91034C288.0963 251.91034 285.41003 249.22404 285.41003 245.91034C285.41003 242.59663 288.0963 239.91034 291.41003 239.91034C294.72372 239.91034 297.41003 242.59663 297.41003 245.91034Z"
     clip-path="url(#id_0)"
     fill="#f4b400" />
  <path
     id="path71"
     fill-rule="nonzero"
     d="M409.58997 217.87633C409.58997 221.19003 406.9037 223.87633 403.58997 223.87633C400.27628 223.87633 397.58997 221.19003 397.58997 217.87633C397.58997 214.56262 400.27628 211.87633 403.58997 211.87633C406.9037 211.87633 409.58997 214.56262 409.58997 217.87633Z"
     clip-path="url(#id_0)"
     fill="#f4b400" />
  <path
     id="path73"
     fill-rule="nonzero"
     d="M129.14008 264.56705C129.14008 267.88074 126.45379 270.56705 123.14008 270.56705C119.82637 270.56705 117.14008 267.88074 117.14008 264.56705C117.14008 261.25333 119.82637 258.56705 123.14008 258.56705C126.45379 258.56705 129.14008 261.25333 129.14008 264.56705Z"
     clip-path="url(#id_0)"
     fill="#0f9d58" />
  <path
     id="path75"
     fill-rule="nonzero"
     d="M241.32004 264.20163C241.32004 267.51532 238.63374 270.20163 235.32004 270.20163C232.00633 270.20163 229.32004 267.51532 229.32004 264.20163C229.32004 260.8879 232.00633 258.20163 235.32004 258.20163C238.63374 258.20163 241.32004 260.8879 241.32004 264.20163Z"
     clip-path="url(#id_0)"
     fill="#0f9d58" />
  <path
     id="path77"
     fill-rule="nonzero"
     d="M297.41003 245.58743C297.41003 248.90115 294.72372 251.58743 291.41003 251.58743C288.0963 251.58743 285.41003 248.90115 285.41003 245.58743C285.41003 242.27373 288.0963 239.58743 291.41003 239.58743C294.72372 239.58743 297.41003 242.27373 297.41003 245.58743Z"
     clip-path="url(#id_0)"
     fill="#0f9d58" />
  <path
     id="path79"
     fill-rule="nonzero"
     d="M409.58997 217.67972C409.58997 220.99342 406.9037 223.67972 403.58997 223.67972C400.27628 223.67972 397.58997 220.99342 397.58997 217.67972C397.58997 214.366 400.27628 211.67972 403.58997 211.67972C406.9037 211.67972 409.58997 214.366 409.58997 217.67972Z"
     clip-path="url(#id_0)"
     fill="#0f9d58" />
  <path
     style="stroke:#4285f4;stroke-opacity:1;fill:#4285f4;fill-opacity:1"
     id="path81"
     fill-rule="nonzero"
     d="M118.89744 279.26456L123.14008 282.0072L127.38272 279.26456L124.64008 283.5072L127.38272 287.74985L123.14008 285.0072L118.89744 287.74985L121.64008 283.5072Z"
     clip-path="url(#id_0)"
     fill="#ff6d00" />
  <path
     style="stroke:#4285f4;stroke-opacity:1;fill:#4285f4;fill-opacity:1"
     id="path83"
     fill-rule="nonzero"
     d="M231.0774 279.86227L235.32004 282.60492L239.56268 279.86227L236.82004 284.10492L239.56268 288.34756L235.32004 285.60492L231.0774 288.34756L233.82004 284.10492Z"
     clip-path="url(#id_0)"
     fill="#ff6d00" />
  <path
     style="stroke:#4285f4;stroke-opacity:1;fill:#4285f4;fill-opacity:1"
     id="path85"
     fill-rule="nonzero"
     d="M287.1674 280.03604L291.41003 282.7787L295.65265 280.03604L292.91003 284.2787L295.65265 288.52133L291.41003 285.7787L287.1674 288.52133L289.91003 284.2787Z"
     clip-path="url(#id_0)"
     fill="#ff6d00" />
  <path
     style="stroke:#4285f4;stroke-opacity:1;fill:#4285f4;fill-opacity:1"
     id="path87"
     fill-rule="nonzero"
     d="M399.34735 252.94962L403.58997 255.69226L407.8326 252.94962L405.08997 257.19226L407.8326 261.4349L403.58997 258.69226L399.34735 261.4349L402.08997 257.19226Z"
     clip-path="url(#id_0)"
     fill="#ff6d00" />
  <path
     style="stroke:#4285f4;stroke-opacity:1;fill:#4285f4;fill-opacity:1"
     id="path89"
     fill-rule="nonzero"
     d="M455.43732 207.72247L459.67996 210.4651L463.9226 207.72247L461.17996 211.9651L463.9226 216.20775L459.67996 213.4651L455.43732 216.20775L458.17996 211.9651Z"
     clip-path="url(#id_0)"
     fill="#ff6d00" />
  <path
     style="stroke:#4285f4;stroke-opacity:1;fill:#4285f4;fill-opacity:1"
     id="path91"
     fill-rule="nonzero"
     d="M567.6173 75.63145L571.8599 78.37409L576.10254 75.63145L573.3599 79.87409L576.10254 84.11673L571.8599 81.37409L567.6173 84.11673L570.3599 79.87409Z"
     clip-path="url(#id_0)"
     fill="#ff6d00" />
  <path
     id="path93"
     fill-rule="nonzero"
     d="M118.89744 293.58365L123.14008 296.32626L127.38272 293.58365L124.64008 297.82626L127.38272 302.0689L123.14008 299.32626L118.89744 302.0689L121.64008 297.82626Z"
     clip-path="url(#id_0)"
     fill="#46bdc6" />
  <path
     id="path95"
     fill-rule="nonzero"
     d="M231.0774 293.31583L235.32004 296.05847L239.56268 293.31583L236.82004 297.55847L239.56268 301.80112L235.32004 299.05847L231.0774 301.80112L233.82004 297.55847Z"
     clip-path="url(#id_0)"
     fill="#46bdc6" />
  <path
     style="stroke:#db4437;stroke-opacity:1;fill:#db4437;fill-opacity:1"
     id="path97"
     fill-rule="nonzero"
     d="M287.1674 263.77945L291.41003 266.5221L295.65265 263.77945L292.91003 268.0221L295.65265 272.26474L291.41003 269.5221L287.1674 272.26474L289.91003 268.0221Z"
     clip-path="url(#id_0)"
     fill="#46bdc6" />
  <path
     style="stroke:#db4437;stroke-opacity:1;fill:#db4437;fill-opacity:1"
     id="path99"
     fill-rule="nonzero"
     d="M399.34735 207.555L403.58997 210.29762L407.8326 207.555L405.08997 211.79762L407.8326 216.04027L403.58997 213.29762L399.34735 216.04027L402.08997 211.79762Z"
     clip-path="url(#id_0)"
     fill="#46bdc6" />
  <path
     style="stroke:#db4437;stroke-opacity:1;fill:#db4437;fill-opacity:1"
     id="path101"
     fill-rule="nonzero"
     d="M455.43732 71.540695L459.67996 74.28333L463.9226 71.540695L461.17996 75.78333L463.9226 80.02597L459.67996 77.28333L455.43732 80.02597L458.17996 75.78333Z"
     clip-path="url(#id_0)"
     fill="#46bdc6" />
  <path
     id="path103"
     fill-rule="nonzero"
     d="M118.89744 293.95908L123.14008 296.70172L127.38272 293.95908L124.64008 298.20172L127.38272 302.44437L123.14008 299.70172L118.89744 302.44437L121.64008 298.20172Z"
     clip-path="url(#id_0)"
     fill="#ab30c4" />
  <path
     id="path105"
     fill-rule="nonzero"
     d="M231.0774 294.20737L235.32004 296.95L239.56268 294.20737L236.82004 298.45L239.56268 302.69263L235.32004 299.95L231.0774 302.69263L233.82004 298.45Z"
     clip-path="url(#id_0)"
     fill="#ab30c4" />
  <path
     style="stroke:#f4b400;stroke-opacity:1;fill:#f4b400;fill-opacity:1"
     id="path107"
     fill-rule="nonzero"
     d="M287.1674 253.96638L291.41003 256.709L295.65265 253.96638L292.91003 258.209L295.65265 262.45166L291.41003 259.709L287.1674 262.45166L289.91003 258.209Z"
     clip-path="url(#id_0)"
     fill="#ab30c4" />
  <path
     style="stroke:#f4b400;stroke-opacity:1;fill:#f4b400;fill-opacity:1"
     id="path109"
     fill-rule="nonzero"
     d="M399.34735 185.12953L403.58997 187.87218L407.8326 185.12953L405.08997 189.37218L407.8326 193.6148L403.58997 190.87218L399.34735 193.6148L402.08997 189.37218Z"
     clip-path="url(#id_0)"
     fill="#ab30c4" />
  <path
     style="stroke:#0f9d58;stroke-opacity:1;fill:#0f9d58;fill-opacity:1"
     id="path111"
     fill-rule="nonzero"
     d="M118.89744 293.12817L123.14008 295.87082L127.38272 293.12817L124.64008 297.37082L127.38272 301.61346L123.14008 298.87082L118.89744 301.61346L121.64008 297.37082Z"
     clip-path="url(#id_0)"
     fill="#c1bc1f" />
  <path
     style="stroke:#0f9d58;stroke-opacity:1;fill:#0f9d58;fill-opacity:1"
     id="path113"
     fill-rule="nonzero"
     d="M231.0774 293.14865L235.32004 295.8913L239.56268 293.14865L236.82004 297.3913L239.56268 301.63394L235.32004 298.8913L231.0774 301.63394L233.82004 297.3913Z"
     clip-path="url(#id_0)"
     fill="#c1bc1f" />
  <path
     style="fill:#0f9d58;fill-opacity:1;stroke:#0f9d58;stroke-opacity:1"
     id="path115"
     fill-rule="nonzero"
     d="M287.1674 240.72429L291.41003 243.46693L295.65265 240.72429L292.91003 244.96693L295.65265 249.20958L291.41003 246.46693L287.1674 249.20958L289.91003 244.96693Z"
     clip-path="url(#id_0)"
     fill="#c1bc1f" />
  <path
     style="stroke:#0f9d58;stroke-opacity:1;fill:#0f9d58;fill-opacity:1"
     id="path117"
     fill-rule="nonzero"
     d="M399.34735 171.69618L403.58997 174.43883L407.8326 171.69618L405.08997 175.93883L407.8326 180.18146L403.58997 177.43883L399.34735 180.18146L402.08997 175.93883Z"
     clip-path="url(#id_0)"
     fill="#c1bc1f" />
  <path
     id="path119"
     fill-rule="nonzero"
     d="m 306.49576,325.2167 q -1.4375,-0.42188 -2.10938,-1.03124 -0.65624,-0.6094 -0.65624,-1.5 0,-1 0.79687,-1.65626 0.8125,-0.67188 2.10937,-0.67188 0.875,0 1.5625,0.34374 0.6875,0.34376 1.0625,0.9375 0.39063,0.59376 0.39063,1.3125 h -1.14063 q 0,-0.78124 -0.5,-1.21874 -0.48437,-0.4375 -1.375,-0.4375 -0.82812,0 -1.29687,0.375 -0.46875,0.35938 -0.46875,1 0,0.53124 0.4375,0.89064 0.45312,0.35936 1.51562,0.65624 1.0625,0.29686 1.65626,0.65626 0.60937,0.35936 0.89062,0.84374 0.29688,0.48436 0.29688,1.125 0,1.04686 -0.8125,1.67186 -0.8125,0.625 -2.15626,0.625 -0.89062,0 -1.65624,-0.34374 -0.75,-0.34376 -1.17188,-0.92186 -0.40625,-0.59376 -0.40625,-1.32814 h 1.125 q 0,0.76564 0.57813,1.21874 0.57812,0.45314 1.53124,0.45314 0.89063,0 1.35938,-0.35938 0.46875,-0.375 0.46875,-1 0,-0.625 -0.4375,-0.96876 -0.4375,-0.34374 -1.59375,-0.67186 z m 5.5,3.79686 h -1.07812 v -6.34374 h 1.07812 z m -1.17188,-8.0156 q 0,-0.26564 0.15626,-0.45314 0.17187,-0.1875 0.48437,-0.1875 0.3125,0 0.46875,0.1875 0.17188,0.1875 0.17188,0.45314 0,0.25 -0.17188,0.4375 -0.15625,0.17186 -0.46875,0.17186 -0.3125,0 -0.48437,-0.17186 -0.15626,-0.1875 -0.15626,-0.4375 z m 4.01563,7.125 h 3.70313 v 0.8906 h -5.03126 v -0.79686 l 3.5,-4.64064 h -3.45312 v -0.90624 h 4.8125 v 0.76564 z m 7.60937,1.0156 q -1.29687,0 -2.10937,-0.84374 -0.79687,-0.85936 -0.79687,-2.28126 v -0.1875 q 0,-0.9531 0.35937,-1.6875 0.35937,-0.75 1,-1.15624 0.65625,-0.42186 1.40625,-0.42186 1.23438,0 1.92188,0.8125 0.6875,0.8125 0.6875,2.3281 v 0.45314 h -4.29688 q 0.0312,0.9375 0.54688,1.51562 0.53124,0.57814 1.34374,0.57814 0.5625,0 0.95313,-0.2344 0.40625,-0.23436 0.71875,-0.625 l 0.65625,0.51564 q -0.79687,1.23436 -2.39063,1.23436 z m -0.14062,-5.6875 q -0.65625,0 -1.10938,0.4844 -0.4375,0.46874 -0.53124,1.3281 h 3.17187 v -0.0781 q -0.0469,-0.82814 -0.45313,-1.28126 -0.39062,-0.45314 -1.07812,-0.45314 z m 7.6875,5.5625 h -1.07812 v -6.34374 h 1.07812 z m -1.17188,-8.0156 q 0,-0.26564 0.15626,-0.45314 0.17187,-0.1875 0.48437,-0.1875 0.3125,0 0.46875,0.1875 0.17188,0.1875 0.17188,0.45314 0,0.25 -0.17188,0.4375 -0.15625,0.17186 -0.46875,0.17186 -0.3125,0 -0.48437,-0.17186 -0.15626,-0.1875 -0.15626,-0.4375 z m 4.01563,1.67186 0.0312,0.79688 q 0.73438,-0.90624 1.90625,-0.90624 2.01563,0 2.03125,2.2656 v 4.1875 h -1.09375 v -4.2031 q 0,-0.6719 -0.3125,-1 -0.29687,-0.32814 -0.95313,-0.32814 -0.53124,0 -0.9375,0.28124 -0.39062,0.28126 -0.60937,0.7344 v 4.5156 h -1.07813 v -6.34374 z m 9.14063,6.34374 v -8.53124 h 2.79687 q 1.39063,0 2.07813,0.57814 0.70312,0.5625 0.70312,1.6875 0,0.60936 -0.34375,1.0781 -0.32813,0.45314 -0.92187,0.70314 0.70312,0.1875 1.09374,0.73436 0.40626,0.53126 0.40626,1.28126 0,1.15624 -0.75,1.8125 -0.73438,0.65624 -2.09376,0.65624 z m 1.125,-3.98436 v 3.0625 h 1.85937 q 0.79687,0 1.25,-0.40624 0.45313,-0.40626 0.45313,-1.125 0,-1.53126 -1.6875,-1.53126 z m 0,-0.90624 h 1.70312 q 0.73438,0 1.17188,-0.3594 0.45312,-0.375 0.45312,-1.0156 0,-0.70314 -0.40625,-1.01564 -0.40625,-0.32812 -1.25,-0.32812 h -1.67187 z m 7.78124,3.29686 1.48438,-4.75 h 1.15625 l -2.54687,7.32814 q -0.59376,1.5781 -1.875,1.5781 l -0.21876,-0.0156 -0.39062,-0.0781 v -0.875 l 0.28125,0.0156 q 0.5625,0 0.85937,-0.21876 0.3125,-0.21874 0.51563,-0.8125 l 0.23437,-0.65624 -2.26562,-6.26564 h 1.1875 z m 5.40626,-6.28126 v 1.53126 h 1.17187 v 0.84374 h -1.17187 v 3.9219 q 0,0.3906 0.15624,0.5781 0.15626,0.1875 0.53126,0.1875 0.1875,0 0.51562,-0.0625 v 0.875 q -0.42188,0.125 -0.82812,0.125 -0.71876,0 -1.09376,-0.4375 -0.375,-0.4531 -0.375,-1.2656 v -3.9219 h -1.15624 v -0.84374 h 1.15624 v -1.53126 z m 5.15624,8 q -1.29687,0 -2.10937,-0.84374 -0.79687,-0.85936 -0.79687,-2.28126 v -0.1875 q 0,-0.9531 0.35937,-1.6875 0.35937,-0.75 1,-1.15624 0.65625,-0.42186 1.40625,-0.42186 1.23438,0 1.92188,0.8125 0.6875,0.8125 0.6875,2.3281 v 0.45314 h -4.29688 q 0.0312,0.9375 0.54688,1.51562 0.53124,0.57814 1.34374,0.57814 0.5625,0 0.95313,-0.2344 0.40625,-0.23436 0.71875,-0.625 l 0.65625,0.51564 q -0.79687,1.23436 -2.39063,1.23436 z m -0.14062,-5.6875 q -0.65625,0 -1.10938,0.4844 -0.4375,0.46874 -0.53124,1.3281 h 3.17187 v -0.0781 q -0.0469,-0.82814 -0.45313,-1.28126 -0.39062,-0.45314 -1.07812,-0.45314 z m 7.20312,3.875 q 0,-0.4375 -0.34374,-0.67186 -0.32813,-0.25 -1.15626,-0.42188 -0.8125,-0.17186 -1.29687,-0.42186 -0.48437,-0.25 -0.71875,-0.57814 -0.21875,-0.34376 -0.21875,-0.8125 0,-0.78126 0.65625,-1.3125 0.65625,-0.54686 1.6875,-0.54686 1.07812,0 1.73438,0.5625 0.67187,0.54686 0.67187,1.40624 h -1.07813 q 0,-0.4375 -0.39062,-0.75 -0.375,-0.32814 -0.9375,-0.32814 -0.59375,0 -0.9375,0.26564 -0.32812,0.25 -0.32812,0.65626 0,0.3906 0.3125,0.59374 0.3125,0.20312 1.125,0.39062 0.8125,0.17188 1.3125,0.42188 0.5,0.25 0.73437,0.60936 0.25,0.3594 0.25,0.8594 0,0.85936 -0.6875,1.375 -0.67187,0.5156 -1.75,0.5156 -0.76563,0 -1.35937,-0.2656 -0.57813,-0.28126 -0.90626,-0.76564 -0.32812,-0.48436 -0.32812,-1.04686 h 1.07812 q 0.0313,0.54686 0.4375,0.875 0.40626,0.3125 1.07813,0.3125 0.60937,0 0.98437,-0.25 0.375,-0.25 0.375,-0.6719 z"
     fill="#424242" />
  <path
     id="path121"
     fill-rule="nonzero"
     d="m 68.719769,253.66884 q 1.34375,0.15626 2.09375,1 0.734375,0.84376 0.734375,2.23438 0,1.51562 -1.078125,2.42188 -1.09375,0.90624 -2.921875,0.90624 h -0.8125 q -1.1875,0 -2.09375,-0.42187 -0.90625,-0.42187 -1.390625,-1.20313 -0.484375,-0.78124 -0.484375,-1.79687 0,-1.35937 0.765625,-2.17187 0.765625,-0.82813 2.09375,-0.96876 v 1.125 q -1.015625,0.15626 -1.46875,0.64063 -0.453125,0.48437 -0.453125,1.375 0,1.07813 0.796875,1.6875 0.796875,0.60937 2.265625,0.60937 h 0.828125 q 1.390625,0 2.21875,-0.57812 0.8125,-0.57812 0.8125,-1.625 0,-0.9375 -0.421875,-1.4375 -0.4375,-0.5 -1.484375,-0.67188 z m -0.640625,-2.84374 h 3.34375 v 1.125 h -8.53125 v -3.15626 q 0,-1.39062 0.71875,-2.1875 0.703125,-0.79687 1.890625,-0.79687 1.234375,0 1.90625,0.78125 0.671875,0.76562 0.671875,2.21875 z m -0.921875,0 v -2.03126 q 0,-0.90624 -0.421875,-1.375 -0.421875,-0.48437 -1.21875,-0.48437 -0.765625,0 -1.21875,0.48437 -0.46875,0.46876 -0.484375,1.3125 v 2.09376 z m -4.265625,-12.89063 h 5.796875 q 1.203125,0.0156 1.984375,0.76563 0.765625,0.75 0.859375,2.03124 l 0.01563,0.3125 q 0,1.39063 -0.75,2.23438 -0.765625,0.82812 -2.09375,0.82812 h -5.8125 v -1.10937 h 5.78125 q 0.921875,0 1.4375,-0.5 0.515625,-0.51563 0.515625,-1.45313 0,-0.96874 -0.515625,-1.46874 -0.515625,-0.5 -1.4375,-0.5 h -5.78125 z m 9.421875,-6.39063 v 5.35938 h -0.890625 v -5.35938 z m -3.59375,-6.875 q 1.34375,0.15626 2.09375,1 0.734375,0.84376 0.734375,2.23438 0,1.51562 -1.078125,2.42188 -1.09375,0.90624 -2.921875,0.90624 h -0.8125 q -1.1875,0 -2.09375,-0.42187 -0.90625,-0.42187 -1.390625,-1.20313 -0.484375,-0.78124 -0.484375,-1.79687 0,-1.35937 0.765625,-2.17187 0.765625,-0.82813 2.09375,-0.96876 v 1.125 q -1.015625,0.15626 -1.46875,0.64063 -0.453125,0.48437 -0.453125,1.375 0,1.07813 0.796875,1.6875 0.796875,0.60937 2.265625,0.60937 h 0.828125 q 1.390625,0 2.21875,-0.57812 0.8125,-0.57812 0.8125,-1.625 0,-0.9375 -0.421875,-1.4375 -0.4375,-0.5 -1.484375,-0.67188 z m 1.78125,-2.85937 v -4.04687 h 0.921875 v 5.1875 h -8.53125 v -1.14063 z m -3.046875,-7.03125 1.078125,1.04688 h 2.890625 v 1.125 h -8.53125 v -1.125 h 4.21875 l -4.21875,-3.79688 v -1.35938 l 3.765625,3.35938 4.765625,-3.625 v 1.34375 z m 4.859375,-10.23438 v 5.35938 h -0.890625 v -5.35938 z m -9.421875,-6.60937 h 5.796875 q 1.203125,0.0156 1.984375,0.76563 0.765625,0.75 0.859375,2.03124 l 0.01563,0.3125 q 0,1.39063 -0.75,2.23438 -0.765625,0.82812 -2.09375,0.82812 h -5.8125 v -1.10937 h 5.78125 q 0.921875,0 1.4375,-0.5 0.515625,-0.51563 0.515625,-1.45313 0,-0.96874 -0.515625,-1.46874 -0.515625,-0.5 -1.4375,-0.5 h -5.78125 z m 8.53125,-8.54687 v 1.125 l -6.578125,4.29687 h 6.578125 v 1.14063 h -8.53125 v -1.14063 l 6.609375,-4.29687 h -6.609375 v -1.125 z m 0,-9 v 1.125 h -3.9375 v 4.3125 h 3.9375 v 1.125 h -8.53125 v -1.125 h 3.671875 v -4.3125 h -3.671875 v -1.125 z m -2.234375,-7.15626 v 3.57813 l 2.234375,0.79687 v 1.15626 l -8.53125,-3.25 v -0.98438 l 8.53125,-3.26562 v 1.15624 z m -0.921875,3.23438 v -2.90625 l -3.984375,1.45313 z m 2.234375,-7.65625 v -4.04687 h 0.921875 v 5.1875 h -8.53125 v -1.14063 z m -6.6875,-10.76563 v 2.75 h 7.609375 v 1.10938 h -7.609375 v 2.75 h -0.921875 v -6.60938 z m 3.671875,-5.92187 v 3.70313 h 3.015625 v -4.29688 h 0.921875 v 5.42188 h -8.53125 v -5.375 h 0.921875 v 4.25 h 2.75 v -3.70313 z m 3.9375,-2.17187 h -8.53125 v -2.42188 q 0,-1.10938 0.5,-1.95312 0.484375,-0.85938 1.390625,-1.32813 0.90625,-0.46875 2.09375,-0.46875 h 0.53125 q 1.21875,0 2.125,0.46875 0.90625,0.45313 1.390625,1.32813 0.484375,0.85937 0.5,2 z m -7.609375,-1.125 h 6.6875 v -1.1875 q 0,-1.29688 -0.796875,-2.01563 -0.8125,-0.73437 -2.3125,-0.73437 h -0.5 q -1.453125,0 -2.25,0.6875 -0.8125,0.67187 -0.828125,1.9375 z m 8.5,-11.28126 v 5.35938 h -0.890625 v -5.35938 z m -3.59375,-6.875 q 1.34375,0.15626 2.09375,1 0.734375,0.84376 0.734375,2.23438 0,1.51562 -1.078125,2.42188 -1.09375,0.90624 -2.921875,0.90624 h -0.8125 q -1.1875,0 -2.09375,-0.42187 -0.90625,-0.42187 -1.390625,-1.20313 -0.484375,-0.78124 -0.484375,-1.79687 0,-1.35937 0.765625,-2.17187 0.765625,-0.82813 2.09375,-0.96876 v 1.125 q -1.015625,0.15626 -1.46875,0.64063 -0.453125,0.48437 -0.453125,1.375 0,1.07813 0.796875,1.6875 0.796875,0.60937 2.265625,0.60937 h 0.828125 q 1.390625,0 2.21875,-0.57812 0.8125,-0.57812 0.8125,-1.625 0,-0.9375 -0.421875,-1.4375 -0.4375,-0.5 -1.484375,-0.67188 z m -1.28125,-8.28124 q 1.25,0 2.1875,0.42187 0.921875,0.42187 1.421875,1.20313 0.5,0.76562 0.5,1.79687 0,1 -0.5,1.78125 -0.5,0.78125 -1.40625,1.21875 -0.921875,0.42187 -2.140625,0.4375 h -0.609375 q -1.234375,0 -2.171875,-0.42187 -0.9375,-0.4375 -1.4375,-1.21876 -0.515625,-0.78124 -0.515625,-1.79687 0,-1.01563 0.5,-1.79687 0.5,-0.78126 1.4375,-1.20313 0.9375,-0.42187 2.1875,-0.42187 z m -0.5625,1.10937 q -1.515625,0 -2.328125,0.60937 -0.8125,0.60938 -0.8125,1.70313 0,1.07813 0.8125,1.6875 0.8125,0.60937 2.25,0.625 h 0.640625 q 1.46875,0 2.3125,-0.60937 0.828125,-0.625 0.828125,-1.70313 0,-1.09375 -0.78125,-1.6875 -0.796875,-0.60937 -2.28125,-0.625 z m 1.09375,-5.6875 v 2.01563 h 3.453125 v 1.125 h -8.53125 v -2.82813 q 0,-1.4375 0.65625,-2.20313 0.65625,-0.78125 1.90625,-0.78125 0.796875,0 1.390625,0.4375 0.59375,0.42188 0.890625,1.1875 l 3.609375,-2 h 0.07813 v 1.20313 z m -0.921875,2.01563 v -1.73438 q 0,-0.84375 -0.421875,-1.32813 -0.4375,-0.5 -1.171875,-0.5 -0.78125,0 -1.203125,0.46875 -0.421875,0.46875 -0.4375,1.35938 v 1.73438 z m 0.4375,-10.70313 v 3.70312 h 3.015625 v -4.29687 h 0.921875 v 5.42187 h -8.53125 v -5.375 h 0.921875 v 4.25 h 2.75 v -3.70312 z"
     fill="#424242" />
  <path
     id="path135"
     fill-rule="nonzero"
     d="M176.49568 316.45L175.41756 316.45L175.41756 309.23126L173.23006 310.02814L173.23006 309.04376L176.33943 307.8719L176.49568 307.8719L176.49568 316.45ZM185.29256 312.8094Q185.29256 314.71564 184.6363 315.65314Q183.99568 316.575 182.60506 316.575Q181.24568 316.575 180.58943 315.66876Q179.93318 314.7625 179.90193 312.95L179.90193 311.5125Q179.90193 309.6219 180.54256 308.71564Q181.1988 307.79376 182.58943 307.79376Q183.96443 307.79376 184.62068 308.6844Q185.27693 309.5594 185.29256 311.40314L185.29256 312.8094ZM184.1988 311.325Q184.1988 309.95 183.80818 309.325Q183.43318 308.6844 182.58943 308.6844Q181.7613 308.6844 181.37068 309.325Q180.99568 309.95 180.99568 311.2469L180.99568 312.98126Q180.99568 314.35626 181.3863 315.02814Q181.79256 315.6844 182.60506 315.6844Q183.40193 315.6844 183.79256 315.0594Q184.18318 314.4344 184.1988 313.10626L184.1988 311.325Z"
     fill="#757575" />
  <path
     id="path137"
     fill-rule="nonzero"
     d="M281.67566 316.45L280.59753 316.45L280.59753 309.23126L278.41003 310.02814L278.41003 309.04376L281.5194 307.8719L281.67566 307.8719L281.67566 316.45ZM290.47253 312.8094Q290.47253 314.71564 289.81628 315.65314Q289.17566 316.575 287.78503 316.575Q286.42566 316.575 285.7694 315.66876Q285.11316 314.7625 285.0819 312.95L285.0819 311.5125Q285.0819 309.6219 285.72253 308.71564Q286.37878 307.79376 287.7694 307.79376Q289.1444 307.79376 289.80066 308.6844Q290.4569 309.5594 290.47253 311.40314L290.47253 312.8094ZM289.37878 311.325Q289.37878 309.95 288.98816 309.325Q288.61316 308.6844 287.7694 308.6844Q286.94128 308.6844 286.55066 309.325Q286.17566 309.95 286.17566 311.2469L286.17566 312.98126Q286.17566 314.35626 286.56628 315.02814Q286.97253 315.6844 287.78503 315.6844Q288.5819 315.6844 288.97253 315.0594Q289.36316 314.4344 289.37878 313.10626L289.37878 311.325ZM297.47253 312.8094Q297.47253 314.71564 296.81628 315.65314Q296.17566 316.575 294.78503 316.575Q293.42566 316.575 292.7694 315.66876Q292.11316 314.7625 292.0819 312.95L292.0819 311.5125Q292.0819 309.6219 292.72253 308.71564Q293.37878 307.79376 294.7694 307.79376Q296.1444 307.79376 296.80066 308.6844Q297.4569 309.5594 297.47253 311.40314L297.47253 312.8094ZM296.37878 311.325Q296.37878 309.95 295.98816 309.325Q295.61316 308.6844 294.7694 308.6844Q293.94128 308.6844 293.55066 309.325Q293.17566 309.95 293.17566 311.2469L293.17566 312.98126Q293.17566 314.35626 293.56628 315.02814Q293.97253 315.6844 294.78503 315.6844Q295.5819 315.6844 295.97253 315.0594Q296.36316 314.4344 296.37878 313.10626L296.37878 311.325ZM304.47253 312.8094Q304.47253 314.71564 303.81628 315.65314Q303.17566 316.575 301.78503 316.575Q300.42566 316.575 299.7694 315.66876Q299.11316 314.7625 299.0819 312.95L299.0819 311.5125Q299.0819 309.6219 299.72253 308.71564Q300.37878 307.79376 301.7694 307.79376Q303.1444 307.79376 303.80066 308.6844Q304.4569 309.5594 304.47253 311.40314L304.47253 312.8094ZM303.37878 311.325Q303.37878 309.95 302.98816 309.325Q302.61316 308.6844 301.7694 308.6844Q300.94128 308.6844 300.55066 309.325Q300.17566 309.95 300.17566 311.2469L300.17566 312.98126Q300.17566 314.35626 300.56628 315.02814Q300.97253 315.6844 301.78503 315.6844Q302.5819 315.6844 302.97253 315.0594Q303.36316 314.4344 303.37878 313.10626L303.37878 311.325Z"
     fill="#757575" />
  <path
     id="path139"
     fill-rule="nonzero"
     d="M386.8556 316.45L385.77747 316.45L385.77747 309.23126L383.58997 310.02814L383.58997 309.04376L386.69934 307.8719L386.8556 307.8719L386.8556 316.45ZM395.65247 312.8094Q395.65247 314.71564 394.99622 315.65314Q394.3556 316.575 392.96497 316.575Q391.6056 316.575 390.94934 315.66876Q390.2931 314.7625 390.26184 312.95L390.26184 311.5125Q390.26184 309.6219 390.90247 308.71564Q391.55872 307.79376 392.94934 307.79376Q394.32434 307.79376 394.9806 308.6844Q395.63684 309.5594 395.65247 311.40314L395.65247 312.8094ZM394.55872 311.325Q394.55872 309.95 394.1681 309.325Q393.7931 308.6844 392.94934 308.6844Q392.12122 308.6844 391.7306 309.325Q391.3556 309.95 391.3556 311.2469L391.3556 312.98126Q391.3556 314.35626 391.74622 315.02814Q392.15247 315.6844 392.96497 315.6844Q393.76184 315.6844 394.15247 315.0594Q394.5431 314.4344 394.55872 313.10626L394.55872 311.325ZM402.65247 312.8094Q402.65247 314.71564 401.99622 315.65314Q401.3556 316.575 399.96497 316.575Q398.6056 316.575 397.94934 315.66876Q397.2931 314.7625 397.26184 312.95L397.26184 311.5125Q397.26184 309.6219 397.90247 308.71564Q398.55872 307.79376 399.94934 307.79376Q401.32434 307.79376 401.9806 308.6844Q402.63684 309.5594 402.65247 311.40314L402.65247 312.8094ZM401.55872 311.325Q401.55872 309.95 401.1681 309.325Q400.7931 308.6844 399.94934 308.6844Q399.12122 308.6844 398.7306 309.325Q398.3556 309.95 398.3556 311.2469L398.3556 312.98126Q398.3556 314.35626 398.74622 315.02814Q399.15247 315.6844 399.96497 315.6844Q400.76184 315.6844 401.15247 315.0594Q401.5431 314.4344 401.55872 313.10626L401.55872 311.325ZM409.65247 312.8094Q409.65247 314.71564 408.99622 315.65314Q408.3556 316.575 406.96497 316.575Q405.6056 316.575 404.94934 315.66876Q404.2931 314.7625 404.26184 312.95L404.26184 311.5125Q404.26184 309.6219 404.90247 308.71564Q405.55872 307.79376 406.94934 307.79376Q408.32434 307.79376 408.9806 308.6844Q409.63684 309.5594 409.65247 311.40314L409.65247 312.8094ZM408.55872 311.325Q408.55872 309.95 408.1681 309.325Q407.7931 308.6844 406.94934 308.6844Q406.12122 308.6844 405.7306 309.325Q405.3556 309.95 405.3556 311.2469L405.3556 312.98126Q405.3556 314.35626 405.74622 315.02814Q406.15247 315.6844 406.96497 315.6844Q407.76184 315.6844 408.15247 315.0594Q408.5431 314.4344 408.55872 313.10626L408.55872 311.325ZM416.65247 312.8094Q416.65247 314.71564 415.99622 315.65314Q415.3556 316.575 413.96497 316.575Q412.6056 316.575 411.94934 315.66876Q411.2931 314.7625 411.26184 312.95L411.26184 311.5125Q411.26184 309.6219 411.90247 308.71564Q412.55872 307.79376 413.94934 307.79376Q415.32434 307.79376 415.9806 308.6844Q416.63684 309.5594 416.65247 311.40314L416.65247 312.8094ZM415.55872 311.325Q415.55872 309.95 415.1681 309.325Q414.7931 308.6844 413.94934 308.6844Q413.12122 308.6844 412.7306 309.325Q412.3556 309.95 412.3556 311.2469L412.3556 312.98126Q412.3556 314.35626 412.74622 315.02814Q413.15247 315.6844 413.96497 315.6844Q414.76184 315.6844 415.15247 315.0594Q415.5431 314.4344 415.55872 313.10626L415.55872 311.325ZM423.65247 312.8094Q423.65247 314.71564 422.99622 315.65314Q422.3556 316.575 420.96497 316.575Q419.6056 316.575 418.94934 315.66876Q418.2931 314.7625 418.26184 312.95L418.26184 311.5125Q418.26184 309.6219 418.90247 308.71564Q419.55872 307.79376 420.94934 307.79376Q422.32434 307.79376 422.9806 308.6844Q423.63684 309.5594 423.65247 311.40314L423.65247 312.8094ZM422.55872 311.325Q422.55872 309.95 422.1681 309.325Q421.7931 308.6844 420.94934 308.6844Q420.12122 308.6844 419.7306 309.325Q419.3556 309.95 419.3556 311.2469L419.3556 312.98126Q419.3556 314.35626 419.74622 315.02814Q420.15247 315.6844 420.96497 315.6844Q421.76184 315.6844 422.15247 315.0594Q422.5431 314.4344 422.55872 313.10626L422.55872 311.325Z"
     fill="#757575" />
  <path
     id="path141"
     fill-rule="nonzero"
     d="M492.03555 316.45L490.95743 316.45L490.95743 309.23126L488.76993 310.02814L488.76993 309.04376L491.8793 307.8719L492.03555 307.8719L492.03555 316.45ZM500.83243 312.8094Q500.83243 314.71564 500.17618 315.65314Q499.53555 316.575 498.14493 316.575Q496.78555 316.575 496.1293 315.66876Q495.47305 314.7625 495.4418 312.95L495.4418 311.5125Q495.4418 309.6219 496.08243 308.71564Q496.73868 307.79376 498.1293 307.79376Q499.5043 307.79376 500.16055 308.6844Q500.8168 309.5594 500.83243 311.40314L500.83243 312.8094ZM499.73868 311.325Q499.73868 309.95 499.34805 309.325Q498.97305 308.6844 498.1293 308.6844Q497.30118 308.6844 496.91055 309.325Q496.53555 309.95 496.53555 311.2469L496.53555 312.98126Q496.53555 314.35626 496.92618 315.02814Q497.33243 315.6844 498.14493 315.6844Q498.9418 315.6844 499.33243 315.0594Q499.72305 314.4344 499.73868 313.10626L499.73868 311.325ZM507.83243 312.8094Q507.83243 314.71564 507.17618 315.65314Q506.53555 316.575 505.14493 316.575Q503.78555 316.575 503.1293 315.66876Q502.47305 314.7625 502.4418 312.95L502.4418 311.5125Q502.4418 309.6219 503.08243 308.71564Q503.73868 307.79376 505.1293 307.79376Q506.5043 307.79376 507.16055 308.6844Q507.8168 309.5594 507.83243 311.40314L507.83243 312.8094ZM506.73868 311.325Q506.73868 309.95 506.34805 309.325Q505.97305 308.6844 505.1293 308.6844Q504.30118 308.6844 503.91055 309.325Q503.53555 309.95 503.53555 311.2469L503.53555 312.98126Q503.53555 314.35626 503.92618 315.02814Q504.33243 315.6844 505.14493 315.6844Q505.9418 315.6844 506.33243 315.0594Q506.72305 314.4344 506.73868 313.10626L506.73868 311.325ZM514.8324 312.8094Q514.8324 314.71564 514.17615 315.65314Q513.5355 316.575 512.1449 316.575Q510.78555 316.575 510.1293 315.66876Q509.47305 314.7625 509.4418 312.95L509.4418 311.5125Q509.4418 309.6219 510.08243 308.71564Q510.73868 307.79376 512.1293 307.79376Q513.5043 307.79376 514.1605 308.6844Q514.8168 309.5594 514.8324 311.40314L514.8324 312.8094ZM513.73865 311.325Q513.73865 309.95 513.348 309.325Q512.973 308.6844 512.1293 308.6844Q511.30118 308.6844 510.91055 309.325Q510.53555 309.95 510.53555 311.2469L510.53555 312.98126Q510.53555 314.35626 510.92618 315.02814Q511.33243 315.6844 512.1449 315.6844Q512.9418 315.6844 513.3324 315.0594Q513.723 314.4344 513.73865 313.10626L513.73865 311.325ZM521.8324 312.8094Q521.8324 314.71564 521.17615 315.65314Q520.5355 316.575 519.1449 316.575Q517.7855 316.575 517.1293 315.66876Q516.473 314.7625 516.4418 312.95L516.4418 311.5125Q516.4418 309.6219 517.0824 308.71564Q517.73865 307.79376 519.1293 307.79376Q520.5043 307.79376 521.1605 308.6844Q521.8168 309.5594 521.8324 311.40314L521.8324 312.8094ZM520.73865 311.325Q520.73865 309.95 520.348 309.325Q519.973 308.6844 519.1293 308.6844Q518.30115 308.6844 517.9105 309.325Q517.5355 309.95 517.5355 311.2469L517.5355 312.98126Q517.5355 314.35626 517.92615 315.02814Q518.3324 315.6844 519.1449 315.6844Q519.9418 315.6844 520.3324 315.0594Q520.723 314.4344 520.73865 313.10626L520.73865 311.325ZM528.8324 312.8094Q528.8324 314.71564 528.17615 315.65314Q527.5355 316.575 526.1449 316.575Q524.7855 316.575 524.1293 315.66876Q523.473 314.7625 523.4418 312.95L523.4418 311.5125Q523.4418 309.6219 524.0824 308.71564Q524.73865 307.79376 526.1293 307.79376Q527.5043 307.79376 528.1605 308.6844Q528.8168 309.5594 528.8324 311.40314L528.8324 312.8094ZM527.73865 311.325Q527.73865 309.95 527.348 309.325Q526.973 308.6844 526.1293 308.6844Q525.30115 308.6844 524.9105 309.325Q524.5355 309.95 524.5355 311.2469L524.5355 312.98126Q524.5355 314.35626 524.92615 315.02814Q525.3324 315.6844 526.1449 315.6844Q526.9418 315.6844 527.3324 315.0594Q527.723 314.4344 527.73865 313.10626L527.73865 311.325ZM535.8324 312.8094Q535.8324 314.71564 535.17615 315.65314Q534.5355 316.575 533.1449 316.575Q531.7855 316.575 531.1293 315.66876Q530.473 314.7625 530.4418 312.95L530.4418 311.5125Q530.4418 309.6219 531.0824 308.71564Q531.73865 307.79376 533.1293 307.79376Q534.5043 307.79376 535.1605 308.6844Q535.8168 309.5594 535.8324 311.40314L535.8324 312.8094ZM534.73865 311.325Q534.73865 309.95 534.348 309.325Q533.973 308.6844 533.1293 308.6844Q532.30115 308.6844 531.9105 309.325Q531.5355 309.95 531.5355 311.2469L531.5355 312.98126Q531.5355 314.35626 531.92615 315.02814Q532.3324 315.6844 533.1449 315.6844Q533.9418 315.6844 534.3324 315.0594Q534.723 314.4344 534.73865 313.10626L534.73865 311.325ZM542.8324 312.8094Q542.8324 314.71564 542.17615 315.65314Q541.5355 316.575 540.1449 316.575Q538.7855 316.575 538.1293 315.66876Q537.473 314.7625 537.4418 312.95L537.4418 311.5125Q537.4418 309.6219 538.0824 308.71564Q538.73865 307.79376 540.1293 307.79376Q541.5043 307.79376 542.1605 308.6844Q542.8168 309.5594 542.8324 311.40314L542.8324 312.8094ZM541.73865 311.325Q541.73865 309.95 541.348 309.325Q540.973 308.6844 540.1293 308.6844Q539.30115 308.6844 538.9105 309.325Q538.5355 309.95 538.5355 311.2469L538.5355 312.98126Q538.5355 314.35626 538.92615 315.02814Q539.3324 315.6844 540.1449 315.6844Q540.9418 315.6844 541.3324 315.0594Q541.723 314.4344 541.73865 313.10626L541.73865 311.325Z"
     fill="#757575" />
  <path
     style="fill:#4285f4;fill-rule:nonzero"
     inkscape:connector-curvature="0"
     id="path143"
     d="m 295.81607,118.83561 c 0,3.3137 -2.6863,6 -6,6 -3.3137,0 -6,-2.6863 -6,-6 0,-3.31371 2.6863,-6 6,-6 3.3137,0 6,2.68629 6,6 z" />
  <path
     style="fill:#db4437;fill-rule:nonzero"
     inkscape:connector-curvature="0"
     id="path145"
     d="m 323.81607,118.83561 c 0,3.3137 -2.6863,6 -6,6 -3.3137,0 -6,-2.6863 -6,-6 0,-3.31371 2.6863,-6 6,-6 3.3137,0 6,2.68629 6,6 z" />
  <path
     style="fill:#f4b400;fill-rule:nonzero"
     inkscape:connector-curvature="0"
     id="path147"
     d="m 351.81607,118.83561 c 0,3.3137 -2.68628,6 -6,6 -3.3137,0 -6,-2.6863 -6,-6 0,-3.31371 2.6863,-6 6,-6 3.31372,0 6,2.68629 6,6 z" />
  <path
     style="fill:#0f9d58;fill-rule:nonzero"
     inkscape:connector-curvature="0"
     id="path149"
     d="m 381.81607,118.83561 c 0,3.3137 -2.68628,6 -6,6 -3.31372,0 -6,-2.6863 -6,-6 0,-3.31371 2.68628,-6 6,-6 3.31372,0 6,2.68629 6,6 z" />
  <path
     style="fill:#4285f4;fill-rule:nonzero;fill-opacity:1"
     inkscape:connector-curvature="0"
     id="path151"
     d="m 285.49858,129.43602 4.24265,2.74264 4.24265,-2.74264 -2.74265,4.24264 2.74265,4.24264 -4.24265,-2.74264 -4.24265,2.74264 2.74265,-4.24264 z" />
  <path
     style="fill:#db4437;fill-rule:nonzero;fill-opacity:1"
     inkscape:connector-curvature="0"
     id="path153"
     d="m 313.49858,129.43602 4.24265,2.74264 4.24265,-2.74264 -2.74265,4.24264 2.74265,4.24264 -4.24265,-2.74264 -4.24265,2.74264 2.74265,-4.24264 z" />
  <path
     style="fill:#f4b400;fill-rule:nonzero;fill-opacity:1"
     inkscape:connector-curvature="0"
     id="path155"
     d="m 341.49858,129.43602 4.24265,2.74264 4.24265,-2.74264 -2.74265,4.24264 2.74265,4.24264 -4.24265,-2.74264 -4.24265,2.74264 2.74265,-4.24264 z" />
  <path
     style="fill:#0f9d58;fill-rule:nonzero;fill-opacity:1"
     inkscape:connector-curvature="0"
     id="path157"
     d="m 371.49858,129.43602 4.24265,2.74264 4.24265,-2.74264 -2.74265,4.24264 2.74265,4.24264 -4.24265,-2.74264 -4.24265,2.74264 2.74265,-4.24264 z" />
  <text
     id="text978"
     y="102.54961"
     x="119.49655"
     style="color:#000000;font-style:normal;font-variant:normal;font-weight:bold;font-stretch:normal;font-size:10.6667px;line-height:125%;font-family:Arimo;-inkscape-font-specification:'Arimo Bold';text-indent:0;text-align:start;text-decoration:none;text-decoration-line:none;text-decoration-style:solid;text-decoration-color:#000000;letter-spacing:0px;word-spacing:0px;text-transform:none;writing-mode:lr-tb;direction:ltr;baseline-shift:baseline;text-anchor:start;white-space:normal;clip-rule:nonzero;display:inline;overflow:visible;visibility:visible;opacity:1;isolation:auto;mix-blend-mode:normal;color-interpolation:sRGB;color-interpolation-filters:linearRGB;solid-color:#000000;solid-opacity:1;fill:#000000;fill-opacity:1;fill-rule:nonzero;stroke:none;stroke-width:1px;stroke-linecap:butt;stroke-linejoin:miter;stroke-miterlimit:4;stroke-dasharray:none;stroke-dashoffset:0;stroke-opacity:1;color-rendering:auto;image-rendering:auto;shape-rendering:auto;text-rendering:auto;enable-background:accumulate"
     xml:space="preserve"><tspan
       y="102.54961"
       x="119.49655"
       id="tspan976"
       sodipodi:role="line">Open Conn/Number of Threads 1/1   10/1  240/1  240/24</tspan></text>
  <text
     id="text982"
     y="122.61864"
     x="242.87924"
     style="color:#000000;font-style:normal;font-variant:normal;font-weight:bold;font-stretch:normal;font-size:10.6667px;line-height:125%;font-family:Arimo;-inkscape-font-specification:'Arimo Bold';text-indent:0;text-align:start;text-decoration:none;text-decoration-line:none;text-decoration-style:solid;text-decoration-color:#000000;letter-spacing:0px;word-spacing:0px;text-transform:none;writing-mode:lr-tb;direction:ltr;baseline-shift:baseline;text-anchor:start;white-space:normal;clip-rule:nonzero;display:inline;overflow:visible;visibility:visible;opacity:1;isolation:auto;mix-blend-mode:normal;color-interpolation:sRGB;color-interpolation-filters:linearRGB;solid-color:#000000;solid-opacity:1;fill:#000000;fill-opacity:1;fill-rule:nonzero;stroke:none;stroke-width:1px;stroke-linecap:butt;stroke-linejoin:miter;stroke-miterlimit:4;stroke-dasharray:none;stroke-dashoffset:0;stroke-opacity:1;color-rendering:auto;image-rendering:auto;shape-rendering:auto;text-rendering:auto;enable-background:accumulate"
     xml:space="preserve"><tspan
       y="122.61864"
       x="242.87924"
       id="tspan980"
       sodipodi:role="line">Client</tspan><tspan
       id="tspan984"
       y="135.95198"
       x="242.87924"
       sodipodi:role="line">Server</tspan></text>
  <text
     xml:space="preserve"
     style="color:#000000;font-style:normal;font-variant:normal;font-weight:bold;font-stretch:normal;font-size:9.33333px;line-height:125%;font-family:Arimo;-inkscape-font-specification:'Arimo Bold';text-indent:0;text-align:start;text-decoration:none;text-decoration-line:none;text-decoration-style:solid;text-decoration-color:#000000;letter-spacing:0px;word-spacing:0px;text-transform:none;writing-mode:lr-tb;direction:ltr;baseline-shift:baseline;text-anchor:start;white-space:normal;clip-rule:nonzero;display:inline;overflow:visible;visibility:visible;opacity:1;isolation:auto;mix-blend-mode:normal;color-interpolation:sRGB;color-interpolation-filters:linearRGB;solid-color:#000000;solid-opacity:1;fill:#000000;fill-opacity:1;fill-rule:nonzero;stroke:none;stroke-width:1px;stroke-linecap:butt;stroke-linejoin:miter;stroke-miterlimit:4;stroke-dasharray:none;stroke-dashoffset:0;stroke-opacity:1;color-rendering:auto;image-rendering:auto;shape-rendering:auto;text-rendering:auto;enable-background:accumulate"
     x="91.076591"
     y="233.02113"
     id="text930"><tspan
       sodipodi:role="line"
       id="tspan928"
       x="91.076591"
       y="233.02113"
       style="font-style:normal;font-variant:normal;font-weight:normal;font-stretch:normal;font-family:Arimo;-inkscape-font-specification:Arimo">100k</tspan></text>
  <text
     id="text934"
     y="182.46022"
     x="91.006676"
     style="color:#000000;font-style:normal;font-variant:normal;font-weight:bold;font-stretch:normal;font-size:9.33333px;line-height:125%;font-family:Arimo;-inkscape-font-specification:'Arimo Bold';text-indent:0;text-align:start;text-decoration:none;text-decoration-line:none;text-decoration-style:solid;text-decoration-color:#000000;letter-spacing:0px;word-spacing:0px;text-transform:none;writing-mode:lr-tb;direction:ltr;baseline-shift:baseline;text-anchor:start;white-space:normal;clip-rule:nonzero;display:inline;overflow:visible;visibility:visible;opacity:1;isolation:auto;mix-blend-mode:normal;color-interpolation:sRGB;color-interpolation-filters:linearRGB;solid-color:#000000;solid-opacity:1;fill:#000000;fill-opacity:1;fill-rule:nonzero;stroke:none;stroke-width:1px;stroke-linecap:butt;stroke-linejoin:miter;stroke-miterlimit:4;stroke-dasharray:none;stroke-dashoffset:0;stroke-opacity:1;color-rendering:auto;image-rendering:auto;shape-rendering:auto;text-rendering:auto;enable-background:accumulate"
     xml:space="preserve"><tspan
       style="font-style:normal;font-variant:normal;font-weight:normal;font-stretch:normal;font-family:Arimo;-inkscape-font-specification:Arimo"
       y="182.46022"
       x="91.006676"
       id="tspan932"
       sodipodi:role="line">500k</tspan></text>
  <text
     xml:space="preserve"
     style="color:#000000;font-style:normal;font-variant:normal;font-weight:bold;font-stretch:normal;font-size:9.33333px;line-height:125%;font-family:Arimo;-inkscape-font-specification:'Arimo Bold';text-indent:0;text-align:start;text-decoration:none;text-decoration-line:none;text-decoration-style:solid;text-decoration-color:#000000;letter-spacing:0px;word-spacing:0px;text-transform:none;writing-mode:lr-tb;direction:ltr;baseline-shift:baseline;text-anchor:start;white-space:normal;clip-rule:nonzero;display:inline;overflow:visible;visibility:visible;opacity:1;isolation:auto;mix-blend-mode:normal;color-interpolation:sRGB;color-interpolation-filters:linearRGB;solid-color:#000000;solid-opacity:1;fill:#000000;fill-opacity:1;fill-rule:nonzero;stroke:none;stroke-width:1px;stroke-linecap:butt;stroke-linejoin:miter;stroke-miterlimit:4;stroke-dasharray:none;stroke-dashoffset:0;stroke-opacity:1;color-rendering:auto;image-rendering:auto;shape-rendering:auto;text-rendering:auto;enable-background:accumulate"
     x="93.932518"
     y="112.06417"
     id="text938"><tspan
       id="tspan118"
       sodipodi:role="line"
       x="93.932518"
       y="112.06417"
       style="font-style:normal;font-variant:normal;font-weight:normal;font-stretch:normal;font-family:Arimo;-inkscape-font-specification:Arimo">5M</tspan></text>
  <text
     id="text944"
     y="254.50208"
     x="96.290573"
     style="color:#000000;font-style:normal;font-variant:normal;font-weight:bold;font-stretch:normal;font-size:9.33333px;line-height:125%;font-family:Arimo;-inkscape-font-specification:'Arimo Bold';text-indent:0;text-align:start;text-decoration:none;text-decoration-line:none;text-decoration-style:solid;text-decoration-color:#000000;letter-spacing:0px;word-spacing:0px;text-transform:none;writing-mode:lr-tb;direction:ltr;baseline-shift:baseline;text-anchor:start;white-space:normal;clip-rule:nonzero;display:inline;overflow:visible;visibility:visible;opacity:1;isolation:auto;mix-blend-mode:normal;color-interpolation:sRGB;color-interpolation-filters:linearRGB;solid-color:#000000;solid-opacity:1;fill:#000000;fill-opacity:1;fill-rule:nonzero;stroke:none;stroke-width:1px;stroke-linecap:butt;stroke-linejoin:miter;stroke-miterlimit:4;stroke-dasharray:none;stroke-dashoffset:0;stroke-opacity:1;color-rendering:auto;image-rendering:auto;shape-rendering:auto;text-rendering:auto;enable-background:accumulate"
     xml:space="preserve"><tspan
       style="font-style:normal;font-variant:normal;font-weight:normal;font-stretch:normal;font-family:Arimo;-inkscape-font-specification:Arimo"
       y="254.50208"
       x="96.290573"
       id="tspan942"
       sodipodi:role="line">50k</tspan></text>
  <text
     id="text2356"
     y="89.8629"
     x="90.430405"
     style="color:#000000;font-style:normal;font-variant:normal;font-weight:bold;font-stretch:normal;font-size:9.33333px;line-height:125%;font-family:Arimo;-inkscape-font-specification:'Arimo Bold';text-indent:0;text-align:start;text-decoration:none;text-decoration-line:none;text-decoration-style:solid;text-decoration-color:#000000;letter-spacing:0px;word-spacing:0px;text-transform:none;writing-mode:lr-tb;direction:ltr;baseline-shift:baseline;text-anchor:start;white-space:normal;clip-rule:nonzero;display:inline;overflow:visible;visibility:visible;opacity:1;isolation:auto;mix-blend-mode:normal;color-interpolation:sRGB;color-interpolation-filters:linearRGB;solid-color:#000000;solid-opacity:1;fill:#000000;fill-opacity:1;fill-rule:nonzero;stroke:none;stroke-width:1px;stroke-linecap:butt;stroke-linejoin:miter;stroke-miterlimit:4;stroke-dasharray:none;stroke-dashoffset:0;stroke-opacity:1;color-rendering:auto;image-rendering:auto;shape-rendering:auto;text-rendering:auto;enable-background:accumulate"
     xml:space="preserve"><tspan
       style="font-style:normal;font-variant:normal;font-weight:normal;font-stretch:normal;font-family:Arimo;-inkscape-font-specification:Arimo"
       y="89.8629"
       x="90.430405"
       id="tspan2354"
       sodipodi:role="line">10M</tspan></text>
  <text
     id="text938-4"
     y="163.63098"
     x="95.210495"
     style="color:#000000;font-style:normal;font-variant:normal;font-weight:bold;font-stretch:normal;font-size:9.33333px;line-height:125%;font-family:Arimo;-inkscape-font-specification:'Arimo Bold';text-indent:0;text-align:start;text-decoration:none;text-decoration-line:none;text-decoration-style:solid;text-decoration-color:#000000;letter-spacing:0px;word-spacing:0px;text-transform:none;writing-mode:lr-tb;direction:ltr;baseline-shift:baseline;text-anchor:start;white-space:normal;clip-rule:nonzero;display:inline;overflow:visible;visibility:visible;opacity:1;isolation:auto;mix-blend-mode:normal;color-interpolation:sRGB;color-interpolation-filters:linearRGB;solid-color:#000000;solid-opacity:1;fill:#000000;fill-opacity:1;fill-rule:nonzero;stroke:none;stroke-width:1px;stroke-linecap:butt;stroke-linejoin:miter;stroke-miterlimit:4;stroke-dasharray:none;stroke-dashoffset:0;stroke-opacity:1;color-rendering:auto;image-rendering:auto;shape-rendering:auto;text-rendering:auto;enable-background:accumulate"
     xml:space="preserve"><tspan
       style="font-style:normal;font-variant:normal;font-weight:normal;font-stretch:normal;font-family:Arimo;-inkscape-font-specification:Arimo"
       y="163.63098"
       x="95.210495"
       sodipodi:role="line"
       id="tspan118-3">1M</tspan></text>
</svg>
