<?xml version="1.0" encoding="UTF-8" standalone="no"?>
<svg
   xmlns:dc="http://purl.org/dc/elements/1.1/"
   xmlns:cc="http://creativecommons.org/ns#"
   xmlns:rdf="http://www.w3.org/1999/02/22-rdf-syntax-ns#"
   xmlns:svg="http://www.w3.org/2000/svg"
   xmlns="http://www.w3.org/2000/svg"
   xmlns:sodipodi="http://sodipodi.sourceforge.net/DTD/sodipodi-0.dtd"
   xmlns:inkscape="http://www.inkscape.org/namespaces/inkscape"
   version="1.1"
   viewBox="0.0 0.0 658.0 436.0"
   fill="none"
   stroke="none"
   stroke-linecap="square"
   stroke-miterlimit="10"
   width="658"
   height="436"
   id="svg115"
   sodipodi:docname="Open_Connections_Number_of_Threads_1_1_10_1_240_1_240_24_.svg"
   inkscape:version="0.92.3 (2405546, 2018-03-11)"
   inkscape:export-filename="/home/kunkel/ur-git/phd/frank-cloud-storage/CloudMovePaper/Open_Connections_Number_of_Threads_1_1_10_1_240_1_240_24_.svg.png"
   inkscape:export-xdpi="199"
   inkscape:export-ydpi="199">
  <metadata
     id="metadata121">
    <rdf:RDF>
      <cc:Work
         rdf:about="">
        <dc:format>image/svg+xml</dc:format>
        <dc:type
           rdf:resource="http://purl.org/dc/dcmitype/StillImage" />
      </cc:Work>
    </rdf:RDF>
  </metadata>
  <defs
     id="defs119" />
  <sodipodi:namedview
     pagecolor="#ffffff"
     bordercolor="#666666"
     borderopacity="1"
     objecttolerance="10"
     gridtolerance="10"
     guidetolerance="10"
     inkscape:pageopacity="0"
     inkscape:pageshadow="2"
     inkscape:window-width="1680"
     inkscape:window-height="995"
     id="namedview117"
     showgrid="false"
     inkscape:zoom="1.0825688"
     inkscape:cx="328.01592"
     inkscape:cy="130.31139"
     inkscape:window-x="0"
     inkscape:window-y="27"
     inkscape:window-maximized="1"
     inkscape:current-layer="svg115" />
  <path
     stroke="#cccccc"
     stroke-width="1.0"
     stroke-linecap="butt"
     d="M150.5 78.5L150.5 364.5"
     fill-rule="nonzero"
     id="path4" />
  <path
     stroke="#cccccc"
     stroke-width="1.0"
     stroke-linecap="butt"
     d="M287.5 78.5L287.5 364.5"
     fill-rule="nonzero"
     id="path6" />
  <path
     stroke="#cccccc"
     stroke-width="1.0"
     stroke-linecap="butt"
     d="M423.5 78.5L423.5 364.5"
     fill-rule="nonzero"
     id="path8" />
  <path
     stroke="#cccccc"
     stroke-width="1.0"
     stroke-linecap="butt"
     d="M560.5 78.5L560.5 364.5"
     fill-rule="nonzero"
     id="path10" />
  <path
     stroke="#cccccc"
     stroke-width="1.0"
     stroke-linecap="butt"
     d="M75.5 353.5L635.5 353.5"
     fill-rule="nonzero"
     id="path12" />
  <path
     stroke="#cccccc"
     stroke-width="1.0"
     stroke-linecap="butt"
     d="M75.5 285.5L635.5 285.5"
     fill-rule="nonzero"
     id="path14" />
  <path
     stroke="#cccccc"
     stroke-width="1.0"
     stroke-linecap="butt"
     d="M75.5 218.5L635.5 218.5"
     fill-rule="nonzero"
     id="path16" />
  <path
     stroke="#cccccc"
     stroke-width="1.0"
     stroke-linecap="butt"
     d="M75.5 150.5L635.5 150.5"
     fill-rule="nonzero"
     id="path18" />
  <path
     stroke="#cccccc"
     stroke-width="1.0"
     stroke-linecap="butt"
     d="M75.5 82.5L635.5 82.5"
     fill-rule="nonzero"
     id="path20" />
  <path
     stroke="#e6e6e6"
     stroke-width="1.0"
     stroke-linecap="butt"
     d="M75.5 306.5L635.5 306.5"
     fill-rule="nonzero"
     id="path22" />
  <path
     stroke="#e6e6e6"
     stroke-width="1.0"
     stroke-linecap="butt"
     d="M75.5 238.5L635.5 238.5"
     fill-rule="nonzero"
     id="path24" />
  <path
     stroke="#e6e6e6"
     stroke-width="1.0"
     stroke-linecap="butt"
     d="M75.5 170.5L635.5 170.5"
     fill-rule="nonzero"
     id="path26" />
  <path
     stroke="#e6e6e6"
     stroke-width="1.0"
     stroke-linecap="butt"
     d="M75.5 103.5L635.5 103.5"
     fill-rule="nonzero"
     id="path28" />
  <clipPath
     id="id_0">
    <path
       d="M75.56033 78.7512L635.07965 78.7512L635.07965 364.13303L75.56033 364.13303L75.56033 78.7512Z"
       clip-rule="nonzero"
       id="path30" />
  </clipPath>
  <path
     stroke="#4285f4"
     stroke-width="2.0"
     stroke-linecap="butt"
     clip-path="url(#id_0)"
     d="M82.38946 143.27995C82.38946 143.27995 196.11052 142.45287 218.85474 142.90634C241.59894 143.35983 264.34314 142.1747 287.08737 145.81406C309.83157 149.45341 400.8084 171.7335 423.55264 183.67088C446.29684 195.60825 469.04105 216.93687 491.78528 236.36671C514.5295 255.79654 628.25055 364.13303 628.25055 364.13303"
     fill-rule="nonzero"
     id="path33" />
  <path
     stroke="#db4437"
     stroke-width="2.0"
     stroke-linecap="butt"
     clip-path="url(#id_0)"
     d="M82.38946 126.41837C82.38946 126.41837 196.11052 117.88827 218.85474 123.8708C241.59894 129.85332 264.34314 149.22581 287.08737 161.03975C309.83157 172.85368 400.8084 200.23926 423.55264 228.46902C446.29684 256.6988 491.78528 364.13303 491.78528 364.13303"
     fill-rule="nonzero"
     id="path35" />
  <path
     stroke="#f4b400"
     stroke-width="2.0"
     stroke-linecap="butt"
     clip-path="url(#id_0)"
     d="M82.38946 94.91621C82.38946 94.91621 196.11052 77.53295 218.85474 89.282814C241.59894 101.03267 264.34314 144.75719 287.08737 162.59865C309.83157 180.44012 423.55264 230.06464 423.55264 230.06464"
     fill-rule="nonzero"
     id="path37" />
  <path
     clip-path="none"
     d="m 82.38946,83.03834 c 0,0 90.28507,-9.934076 126.05275,-2.761507 4.37471,0.87727 7.93387,2.010447 10.41253,3.449007 22.74421,13.200231 45.4884,60.09278 68.23263,78.85769 22.7442,18.7649 136.46527,67.46348 136.46527,67.46348"
     id="path39"
     inkscape:connector-curvature="0"
     style="fill-rule:nonzero;stroke:#0f9d58;stroke-width:2;stroke-linecap:butt"
     sodipodi:nodetypes="csssc" />
  <path
     id="path940"
     d="M 75.56033,78.7512 H 635.07965 V 364.13303 H 75.56033 Z"
     inkscape:connector-curvature="0"
     style="clip-rule:nonzero" />
  <path
     fill="#4285f4"
     clip-path="url(#id_0)"
     d="M82.38946 138.77995L86.88946 143.27995L82.38946 147.77995L77.88946 143.27995Z"
     fill-rule="nonzero"
     id="path41" />
  <path
     fill="#4285f4"
     clip-path="url(#id_0)"
     d="M218.85474 138.40634L223.35474 142.90634L218.85474 147.40634L214.35474 142.90634Z"
     fill-rule="nonzero"
     id="path43" />
  <path
     fill="#4285f4"
     clip-path="url(#id_0)"
     d="M287.08737 141.31406L291.58737 145.81406L287.08737 150.31406L282.58737 145.81406Z"
     fill-rule="nonzero"
     id="path45" />
  <path
     fill="#4285f4"
     clip-path="url(#id_0)"
     d="M423.55264 179.17088L428.05264 183.67088L423.55264 188.17088L419.05264 183.67088Z"
     fill-rule="nonzero"
     id="path47" />
  <path
     fill="#4285f4"
     clip-path="url(#id_0)"
     d="M491.78528 231.86671L496.28528 236.36671L491.78528 240.86671L487.28528 236.36671Z"
     fill-rule="nonzero"
     id="path49" />
  <path
     fill="#4285f4"
     clip-path="url(#id_0)"
     d="M628.25055 359.63303L632.75055 364.13303L628.25055 368.63303L623.75055 364.13303Z"
     fill-rule="nonzero"
     id="path51" />
  <path
     fill="#db4437"
     clip-path="url(#id_0)"
     d="M82.38946 121.91837L86.286575 128.66838L78.49235 128.66838Z"
     fill-rule="nonzero"
     id="path53" />
  <path
     fill="#db4437"
     clip-path="url(#id_0)"
     d="M218.85474 119.3708L222.75185 126.1208L214.95761 126.1208Z"
     fill-rule="nonzero"
     id="path55" />
  <path
     fill="#db4437"
     clip-path="url(#id_0)"
     d="M287.08737 156.53975L290.98447 163.28975L283.19025 163.28975Z"
     fill-rule="nonzero"
     id="path57" />
  <path
     fill="#db4437"
     clip-path="url(#id_0)"
     d="M423.55264 223.96902L427.44974 230.71902L419.65552 230.71902Z"
     fill-rule="nonzero"
     id="path59" />
  <path
     fill="#db4437"
     clip-path="url(#id_0)"
     d="M491.78528 359.63303L495.68237 366.38303L487.88815 366.38303Z"
     fill-rule="nonzero"
     id="path61" />
  <path
     fill="#f4b400"
     clip-path="url(#id_0)"
     d="M79.20748 91.73422L85.57144 91.73422L85.57144 98.09818L79.20748 98.09818Z"
     fill-rule="nonzero"
     id="path63" />
  <path
     fill="#f4b400"
     clip-path="url(#id_0)"
     d="M215.67274 86.10083L222.03671 86.10083L222.03671 92.46479L215.67274 92.46479Z"
     fill-rule="nonzero"
     id="path65" />
  <path
     fill="#f4b400"
     clip-path="url(#id_0)"
     d="M283.9054 159.41667L290.26935 159.41667L290.26935 165.78064L283.9054 165.78064Z"
     fill-rule="nonzero"
     id="path67" />
  <path
     fill="#f4b400"
     clip-path="url(#id_0)"
     d="M420.37067 226.88266L426.73462 226.88266L426.73462 233.24663L420.37067 233.24663Z"
     fill-rule="nonzero"
     id="path69" />
  <path
     fill="#0f9d58"
     clip-path="url(#id_0)"
     d="M86.88946 83.03834C86.88946 85.52362 84.87474 87.53834 82.38946 87.53834C79.904175 87.53834 77.88946 85.52362 77.88946 83.03834C77.88946 80.553055 79.904175 78.53834 82.38946 78.53834C84.87474 78.53834 86.88946 80.553055 86.88946 83.03834Z"
     fill-rule="nonzero"
     id="path71" />
  <path
     fill="#0f9d58"
     clip-path="url(#id_0)"
     d="M223.35474 83.72584C223.35474 86.21112 221.34001 88.22584 218.85474 88.22584C216.36945 88.22584 214.35474 86.21112 214.35474 83.72584C214.35474 81.240555 216.36945 79.22584 218.85474 79.22584C221.34001 79.22584 223.35474 81.240555 223.35474 83.72584Z"
     fill-rule="nonzero"
     id="path73" />
  <path
     fill="#0f9d58"
     clip-path="url(#id_0)"
     d="M291.58737 162.58353C291.58737 165.06882 289.57263 167.08353 287.08737 167.08353C284.60208 167.08353 282.58737 165.06882 282.58737 162.58353C282.58737 160.09825 284.60208 158.08353 287.08737 158.08353C289.57263 158.08353 291.58737 160.09825 291.58737 162.58353Z"
     fill-rule="nonzero"
     id="path75" />
  <path
     fill="#0f9d58"
     clip-path="url(#id_0)"
     d="M428.05264 230.04701C428.05264 232.5323 426.0379 234.54701 423.55264 234.54701C421.06735 234.54701 419.05264 232.5323 419.05264 230.04701C419.05264 227.56174 421.06735 225.54701 423.55264 225.54701C426.0379 225.54701 428.05264 227.56174 428.05264 230.04701Z"
     fill-rule="nonzero"
     id="path77" />
  <path
     d="m 325.32,391.31256 q -1.4375,-0.42186 -2.10937,-1.03126 -0.65625,-0.60936 -0.65625,-1.5 0,-1 0.79688,-1.65624 0.8125,-0.67186 2.10937,-0.67186 0.875,0 1.5625,0.34374 0.6875,0.34376 1.0625,0.9375 0.39063,0.59376 0.39063,1.3125 h -1.14063 q 0,-0.78124 -0.5,-1.21874 -0.48437,-0.4375 -1.375,-0.4375 -0.82813,0 -1.29687,0.375 -0.46876,0.35936 -0.46876,1 0,0.53124 0.4375,0.8906 0.45313,0.3594 1.51563,0.65626 1.0625,0.29688 1.65625,0.65624 0.60938,0.3594 0.89062,0.84376 0.29688,0.48438 0.29688,1.125 0,1.04688 -0.8125,1.67188 -0.8125,0.625 -2.15625,0.625 -0.89063,0 -1.65625,-0.34374 -0.75,-0.34376 -1.17188,-0.9219 -0.40624,-0.59374 -0.40624,-1.3281 h 1.125 q 0,0.7656 0.57812,1.21874 0.57812,0.45312 1.53125,0.45312 0.89063,0 1.35937,-0.35936 0.46876,-0.375 0.46876,-1 0,-0.625 -0.4375,-0.96876 -0.4375,-0.34374 -1.59376,-0.67188 z m 5.5,3.79688 h -1.07812 V 388.7657 H 330.82 Z m -1.17187,-8.01564 q 0,-0.2656 0.15625,-0.4531 0.17188,-0.1875 0.48438,-0.1875 0.3125,0 0.46874,0.1875 0.17188,0.1875 0.17188,0.4531 0,0.25 -0.17188,0.4375 -0.15624,0.1719 -0.46874,0.1719 -0.3125,0 -0.48438,-0.1719 -0.15625,-0.1875 -0.15625,-0.4375 z m 4.01563,7.125 h 3.70312 v 0.89064 h -5.03125 v -0.79688 l 3.5,-4.64062 h -3.45313 v -0.90624 h 4.8125 v 0.7656 z m 7.60937,1.01564 q -1.29687,0 -2.10937,-0.84374 -0.79688,-0.8594 -0.79688,-2.28126 v -0.1875 q 0,-0.95314 0.35938,-1.6875 0.35937,-0.75 1,-1.15624 0.65624,-0.4219 1.40624,-0.4219 1.23438,0 1.92188,0.8125 0.6875,0.8125 0.6875,2.32814 v 0.45312 H 339.445 q 0.0313,0.9375 0.54688,1.51564 0.53125,0.5781 1.34375,0.5781 0.5625,0 0.95313,-0.23436 0.40624,-0.23438 0.71874,-0.625 l 0.65626,0.51562 q -0.79688,1.23438 -2.39063,1.23438 z m -0.14063,-5.6875 q -0.65624,0 -1.10937,0.48436 -0.4375,0.46876 -0.53125,1.32814 h 3.17188 v -0.0781 q -0.0469,-0.8281 -0.45313,-1.28124 -0.39063,-0.45312 -1.07813,-0.45312 z m 7.6875,5.5625 h -1.07812 V 388.7657 H 348.82 Z m -1.17187,-8.01564 q 0,-0.2656 0.15625,-0.4531 0.17188,-0.1875 0.48438,-0.1875 0.3125,0 0.46874,0.1875 0.17188,0.1875 0.17188,0.4531 0,0.25 -0.17188,0.4375 -0.15624,0.1719 -0.46874,0.1719 -0.3125,0 -0.48438,-0.1719 -0.15625,-0.1875 -0.15625,-0.4375 z m 4.01563,1.6719 0.0312,0.79686 q 0.73438,-0.90626 1.90626,-0.90626 2.01562,0 2.03124,2.26564 v 4.1875 h -1.09374 v -4.20314 q 0,-0.67186 -0.3125,-1 -0.29688,-0.3281 -0.95313,-0.3281 -0.53125,0 -0.9375,0.28124 -0.39063,0.28126 -0.60937,0.73436 v 4.51564 h -1.07813 v -6.34374 z m 9.14062,6.34374 v -8.53124 h 2.79688 q 1.39062,0 2.07812,0.5781 0.70312,0.5625 0.70312,1.6875 0,0.6094 -0.34374,1.07814 -0.32813,0.45312 -0.92188,0.70312 0.70312,0.1875 1.09375,0.73438 0.40625,0.53126 0.40625,1.28126 0,1.15624 -0.75,1.8125 -0.73438,0.65624 -2.09375,0.65624 z m 1.125,-3.98438 v 3.0625 h 1.85938 q 0.79687,0 1.25,-0.40626 0.45312,-0.40624 0.45312,-1.125 0,-1.53124 -1.6875,-1.53124 z m 0,-0.90626 h 1.70312 q 0.73438,0 1.17188,-0.35936 0.45312,-0.375 0.45312,-1.01564 0,-0.7031 -0.40624,-1.0156 -0.40626,-0.32814 -1.25,-0.32814 h -1.67188 z m 7.78125,3.2969 1.48437,-4.75 h 1.15626 l -2.54688,7.3281 q -0.59375,1.57814 -1.875,1.57814 l -0.21875,-0.0156 -0.39063,-0.0781 v -0.875 l 0.28126,0.0156 q 0.5625,0 0.85937,-0.21874 0.3125,-0.21876 0.51563,-0.8125 l 0.23437,-0.65626 -2.26563,-6.2656 h 1.1875 z m 5.40625,-6.28126 v 1.53126 h 1.17188 v 0.84374 h -1.17188 v 3.92186 q 0,0.39064 0.15625,0.57814 0.15625,0.1875 0.53125,0.1875 0.1875,0 0.51562,-0.0625 v 0.875 q -0.42187,0.125 -0.82812,0.125 -0.71875,0 -1.09375,-0.4375 -0.375,-0.45314 -0.375,-1.26564 v -3.92186 h -1.15625 v -0.84374 h 1.15625 v -1.53126 z m 5.15625,8 q -1.29687,0 -2.10937,-0.84374 -0.79688,-0.8594 -0.79688,-2.28126 v -0.1875 q 0,-0.95314 0.35938,-1.6875 0.35937,-0.75 1,-1.15624 0.65624,-0.4219 1.40624,-0.4219 1.23438,0 1.92188,0.8125 0.6875,0.8125 0.6875,2.32814 v 0.45312 H 378.445 q 0.0313,0.9375 0.54688,1.51564 0.53125,0.5781 1.34375,0.5781 0.5625,0 0.95313,-0.23436 0.40624,-0.23438 0.71874,-0.625 l 0.65626,0.51562 q -0.79688,1.23438 -2.39063,1.23438 z m -0.14063,-5.6875 q -0.65624,0 -1.10937,0.48436 -0.4375,0.46876 -0.53125,1.32814 h 3.17188 v -0.0781 q -0.0469,-0.8281 -0.45313,-1.28124 -0.39063,-0.45312 -1.07813,-0.45312 z m 7.20313,3.875 q 0,-0.4375 -0.34375,-0.67188 -0.32812,-0.25 -1.15625,-0.42186 -0.8125,-0.1719 -1.29687,-0.4219 -0.48438,-0.25 -0.71876,-0.5781 -0.21874,-0.34376 -0.21874,-0.8125 0,-0.78126 0.65624,-1.3125 0.65626,-0.5469 1.6875,-0.5469 1.07813,0 1.73438,0.5625 0.67188,0.5469 0.67188,1.40626 h -1.07813 q 0,-0.4375 -0.39063,-0.75 -0.375,-0.32812 -0.9375,-0.32812 -0.59374,0 -0.9375,0.26562 -0.32812,0.25 -0.32812,0.65624 0,0.39064 0.3125,0.59376 0.3125,0.20314 1.125,0.39064 0.8125,0.17186 1.3125,0.42186 0.5,0.25 0.73438,0.60938 0.25,0.35936 0.25,0.85936 0,0.8594 -0.6875,1.375 -0.67188,0.51564 -1.75,0.51564 -0.76563,0 -1.35938,-0.26564 -0.57812,-0.28124 -0.90625,-0.7656 -0.32813,-0.4844 -0.32813,-1.0469 h 1.07813 q 0.0312,0.5469 0.4375,0.875 0.40625,0.3125 1.07813,0.3125 0.60937,0 0.98437,-0.25 0.375,-0.25 0.375,-0.67186 z"
     id="path79"
     inkscape:connector-curvature="0"
     style="fill:#424242;fill-rule:nonzero" />
  <path
     fill="#424242"
     d="M25.741192 286.66827L25.741192 288.6839L29.194317 288.6839L29.194317 289.8089L20.663067 289.8089L20.663067 286.98077Q20.663067 285.54327 21.319317 284.77765Q21.975567 283.9964 23.225567 283.9964Q24.022442 283.9964 24.616192 284.4339Q25.209942 284.85577 25.506817 285.6214L29.116192 283.6214L29.194317 283.6214L29.194317 284.82452L25.741192 286.66827ZM24.819317 288.6839L24.819317 286.94952Q24.819317 286.10577 24.397442 285.6214Q23.959942 285.1214 23.225567 285.1214Q22.444317 285.1214 22.022442 285.59015Q21.600567 286.0589 21.584942 286.94952L21.584942 288.6839L24.819317 288.6839ZM29.319317 280.34015Q29.319317 281.63702 28.475567 282.44952Q27.616192 283.2464 26.194317 283.2464L26.006817 283.2464Q25.053692 283.2464 24.319317 282.88702Q23.569317 282.52765 23.163067 281.88702Q22.741192 281.23077 22.741192 280.48077Q22.741192 279.2464 23.553692 278.5589Q24.366192 277.8714 25.881817 277.8714L26.334942 277.8714L26.334942 282.16827Q27.272442 282.13702 27.850567 281.6214Q28.428692 281.09015 28.428692 280.27765Q28.428692 279.71515 28.194317 279.32452Q27.959942 278.91827 27.569317 278.60577L28.084942 277.94952Q29.319317 278.7464 29.319317 280.34015ZM23.631817 280.48077Q23.631817 281.13702 24.116192 281.59015Q24.584942 282.02765 25.444317 282.1214L25.444317 278.94952L25.366192 278.94952Q24.538067 278.9964 24.084942 279.40265Q23.631817 279.79327 23.631817 280.48077ZM25.975567 277.23077Q24.475567 277.23077 23.616192 276.5589Q22.741192 275.8714 22.741192 274.71515Q22.741192 273.59015 23.491192 272.9339L22.850567 272.88702L22.850567 271.88702L31.631817 271.88702L31.631817 272.98077L28.600567 272.98077Q29.319317 273.63702 29.319317 274.71515Q29.319317 275.8714 28.428692 276.5589Q27.522442 277.23077 26.053692 277.23077L25.975567 277.23077ZM26.100567 276.15265Q27.178692 276.15265 27.803692 275.69952Q28.428692 275.23077 28.428692 274.44952Q28.428692 273.48077 27.569317 272.98077L24.459942 272.98077Q23.631817 273.4964 23.631817 274.4339Q23.631817 275.23077 24.256817 275.69952Q24.881817 276.15265 26.100567 276.15265ZM28.569317 266.0589Q29.319317 266.6839 29.319317 267.91827Q29.319317 268.9339 28.725567 269.46515Q28.131817 269.9964 26.975567 269.9964L22.850567 269.9964L22.850567 268.91827L26.944317 268.91827Q28.397442 268.91827 28.397442 267.7464Q28.397442 266.4964 27.459942 266.09015L22.850567 266.09015L22.850567 264.9964L29.194317 264.9964L29.194317 266.02765L28.569317 266.0589ZM29.319317 260.34015Q29.319317 261.63702 28.475567 262.44952Q27.616192 263.2464 26.194317 263.2464L26.006817 263.2464Q25.053692 263.2464 24.319317 262.88702Q23.569317 262.52765 23.163067 261.88702Q22.741192 261.23077 22.741192 260.48077Q22.741192 259.2464 23.553692 258.5589Q24.366192 257.8714 25.881817 257.8714L26.334942 257.8714L26.334942 262.16827Q27.272442 262.13702 27.850567 261.6214Q28.428692 261.09015 28.428692 260.27765Q28.428692 259.71515 28.194317 259.32452Q27.959942 258.91827 27.569317 258.60577L28.084942 257.94952Q29.319317 258.7464 29.319317 260.34015ZM23.631817 260.48077Q23.631817 261.13702 24.116192 261.59015Q24.584942 262.02765 25.444317 262.1214L25.444317 258.94952L25.366192 258.94952Q24.538067 258.9964 24.084942 259.40265Q23.631817 259.79327 23.631817 260.48077ZM27.506817 253.27765Q27.069317 253.27765 26.834942 253.6214Q26.584942 253.94952 26.413067 254.77765Q26.241192 255.59015 25.991192 256.07452Q25.741192 256.5589 25.413067 256.79327Q25.069317 257.01202 24.600567 257.01202Q23.819317 257.01202 23.288067 256.35577Q22.741192 255.69952 22.741192 254.66827Q22.741192 253.59015 23.303692 252.9339Q23.850567 252.26202 24.709942 252.26202L24.709942 253.34015Q24.272442 253.34015 23.959942 253.73077Q23.631817 254.10577 23.631817 254.66827Q23.631817 255.26202 23.897442 255.60577Q24.147442 255.9339 24.553692 255.9339Q24.944317 255.9339 25.147442 255.6214Q25.350567 255.3089 25.538067 254.4964Q25.709942 253.6839 25.959942 253.1839Q26.209942 252.6839 26.569317 252.44952Q26.928692 252.19952 27.428692 252.19952Q28.288067 252.19952 28.803692 252.88702Q29.319317 253.5589 29.319317 254.63702Q29.319317 255.40265 29.053692 255.9964Q28.772442 256.57452 28.288067 256.90265Q27.803692 257.23077 27.241192 257.23077L27.241192 256.15265Q27.788067 256.1214 28.116192 255.71515Q28.428692 255.3089 28.428692 254.63702Q28.428692 254.02765 28.178692 253.65265Q27.928692 253.27765 27.506817 253.27765ZM21.319317 249.4964L22.850567 249.4964L22.850567 248.32452L23.694317 248.32452L23.694317 249.4964L27.616192 249.4964Q28.006817 249.4964 28.194317 249.34015Q28.381817 249.1839 28.381817 248.8089Q28.381817 248.6214 28.319317 248.29327L29.194317 248.29327Q29.319317 248.71515 29.319317 249.1214Q29.319317 249.84015 28.881817 250.21515Q28.428692 250.59015 27.616192 250.59015L23.694317 250.59015L23.694317 251.7464L22.850567 251.7464L22.850567 250.59015L21.319317 250.59015L21.319317 249.4964ZM27.506817 243.27765Q27.069317 243.27765 26.834942 243.6214Q26.584942 243.94952 26.413067 244.77765Q26.241192 245.59015 25.991192 246.07452Q25.741192 246.5589 25.413067 246.79327Q25.069317 247.01202 24.600567 247.01202Q23.819317 247.01202 23.288067 246.35577Q22.741192 245.69952 22.741192 244.66827Q22.741192 243.59015 23.303692 242.9339Q23.850567 242.26202 24.709942 242.26202L24.709942 243.34015Q24.272442 243.34015 23.959942 243.73077Q23.631817 244.10577 23.631817 244.66827Q23.631817 245.26202 23.897442 245.60577Q24.147442 245.9339 24.553692 245.9339Q24.944317 245.9339 25.147442 245.6214Q25.350567 245.3089 25.538067 244.4964Q25.709942 243.6839 25.959942 243.1839Q26.209942 242.6839 26.569317 242.44952Q26.928692 242.19952 27.428692 242.19952Q28.288067 242.19952 28.803692 242.88702Q29.319317 243.5589 29.319317 244.63702Q29.319317 245.40265 29.053692 245.9964Q28.772442 246.57452 28.288067 246.90265Q27.803692 247.23077 27.241192 247.23077L27.241192 246.15265Q27.788067 246.1214 28.116192 245.71515Q28.428692 245.3089 28.428692 244.63702Q28.428692 244.02765 28.178692 243.65265Q27.928692 243.27765 27.506817 243.27765ZM26.100567 232.6214Q27.538067 232.6214 28.428692 233.27765Q29.319317 233.9339 29.319317 235.07452Q29.319317 236.23077 28.584942 236.88702L31.631817 236.88702L31.631817 237.96515L22.850567 237.96515L22.850567 236.98077L23.553692 236.9339Q22.741192 236.26202 22.741192 235.09015Q22.741192 233.94952 23.600567 233.29327Q24.459942 232.6214 25.991192 232.6214L26.100567 232.6214ZM25.975567 233.69952Q24.897442 233.69952 24.288067 234.16827Q23.663067 234.6214 23.663067 235.41827Q23.663067 236.40265 24.522442 236.88702L27.553692 236.88702Q28.428692 236.40265 28.428692 235.40265Q28.428692 234.6214 27.819317 234.16827Q27.194317 233.69952 25.975567 233.69952ZM29.319317 228.34015Q29.319317 229.63702 28.475567 230.44952Q27.616192 231.2464 26.194317 231.2464L26.006817 231.2464Q25.053692 231.2464 24.319317 230.88702Q23.569317 230.52765 23.163067 229.88702Q22.741192 229.23077 22.741192 228.48077Q22.741192 227.2464 23.553692 226.5589Q24.366192 225.8714 25.881817 225.8714L26.334942 225.8714L26.334942 230.16827Q27.272442 230.13702 27.850567 229.6214Q28.428692 229.09015 28.428692 228.27765Q28.428692 227.71515 28.194317 227.32452Q27.959942 226.91827 27.569317 226.60577L28.084942 225.94952Q29.319317 226.7464 29.319317 228.34015ZM23.631817 228.48077Q23.631817 229.13702 24.116192 229.59015Q24.584942 230.02765 25.444317 230.1214L25.444317 226.94952L25.366192 226.94952Q24.538067 226.9964 24.084942 227.40265Q23.631817 227.79327 23.631817 228.48077ZM23.819317 221.90265Q23.788067 222.15265 23.788067 222.4339Q23.788067 223.51202 24.694317 223.88702L29.194317 223.88702L29.194317 224.96515L22.850567 224.96515L22.850567 223.91827L23.584942 223.90265Q22.741192 223.3714 22.741192 222.38702Q22.741192 222.07452 22.819317 221.90265L23.819317 221.90265ZM20.663067 216.35577L27.616192 213.5589L20.663067 210.77765L20.663067 209.3089L29.194317 209.3089L29.194317 210.4339L25.866192 210.4339L22.288067 210.32452L29.194317 213.13702L29.194317 213.9964L22.303692 216.79327L25.866192 216.6839L29.194317 216.6839L29.194317 217.8089L20.663067 217.8089L20.663067 216.35577ZM29.194317 206.79327L29.194317 207.8714L22.850567 207.8714L22.850567 206.79327L29.194317 206.79327ZM21.178692 207.96515Q20.913067 207.96515 20.725567 207.8089Q20.538067 207.63702 20.538067 207.32452Q20.538067 207.01202 20.725567 206.85577Q20.913067 206.6839 21.178692 206.6839Q21.428692 206.6839 21.616192 206.85577Q21.788067 207.01202 21.788067 207.32452Q21.788067 207.63702 21.616192 207.8089Q21.428692 207.96515 21.178692 207.96515ZM22.850567 203.94952L23.647442 203.91827Q22.741192 203.1839 22.741192 202.01202Q22.741192 199.9964 25.006817 199.98077L29.194317 199.98077L29.194317 201.07452L24.991192 201.07452Q24.319317 201.07452 23.991192 201.38702Q23.663067 201.6839 23.663067 202.34015Q23.663067 202.8714 23.944317 203.27765Q24.225567 203.66827 24.678692 203.88702L29.194317 203.88702L29.194317 204.96515L22.850567 204.96515L22.850567 203.94952ZM28.569317 194.0589Q29.319317 194.6839 29.319317 195.91827Q29.319317 196.9339 28.725567 197.46515Q28.131817 197.9964 26.975567 197.9964L22.850567 197.9964L22.850567 196.91827L26.944317 196.91827Q28.397442 196.91827 28.397442 195.7464Q28.397442 194.4964 27.459942 194.09015L22.850567 194.09015L22.850567 192.9964L29.194317 192.9964L29.194317 194.02765L28.569317 194.0589ZM21.319317 189.4964L22.850567 189.4964L22.850567 188.32452L23.694317 188.32452L23.694317 189.4964L27.616192 189.4964Q28.006817 189.4964 28.194317 189.34015Q28.381817 189.1839 28.381817 188.8089Q28.381817 188.6214 28.319317 188.29327L29.194317 188.29327Q29.319317 188.71515 29.319317 189.1214Q29.319317 189.84015 28.881817 190.21515Q28.428692 190.59015 27.616192 190.59015L23.694317 190.59015L23.694317 191.7464L22.850567 191.7464L22.850567 190.59015L21.319317 190.59015L21.319317 189.4964ZM29.319317 184.34015Q29.319317 185.63702 28.475567 186.44952Q27.616192 187.2464 26.194317 187.2464L26.006817 187.2464Q25.053692 187.2464 24.319317 186.88702Q23.569317 186.52765 23.163067 185.88702Q22.741192 185.23077 22.741192 184.48077Q22.741192 183.2464 23.553692 182.5589Q24.366192 181.8714 25.881817 181.8714L26.334942 181.8714L26.334942 186.16827Q27.272442 186.13702 27.850567 185.6214Q28.428692 185.09015 28.428692 184.27765Q28.428692 183.71515 28.194317 183.32452Q27.959942 182.91827 27.569317 182.60577L28.084942 181.94952Q29.319317 182.7464 29.319317 184.34015ZM23.631817 184.48077Q23.631817 185.13702 24.116192 185.59015Q24.584942 186.02765 25.444317 186.1214L25.444317 182.94952L25.366192 182.94952Q24.538067 182.9964 24.084942 183.40265Q23.631817 183.79327 23.631817 184.48077Z"
     fill-rule="nonzero"
     id="path81" />
  <path
     fill="#757575"
     d="M148.3096 382.13303L146.6221 382.13303L146.6221 375.60178L144.60648 376.22678L144.60648 374.85178L148.13773 373.58615L148.3096 373.58615L148.3096 382.13303ZM156.95023 378.60178Q156.95023 380.3674 156.21585 381.32053Q155.48148 382.25803 154.07523 382.25803Q152.66898 382.25803 151.9346 381.33615Q151.20023 380.41428 151.1846 378.69553L151.1846 377.1174Q151.1846 375.33615 151.91898 374.41428Q152.66898 373.47678 154.0596 373.47678Q155.45023 373.47678 156.1846 374.39865Q156.9346 375.32053 156.95023 377.03928L156.95023 378.60178ZM155.2471 376.88303Q155.2471 375.82053 154.95023 375.33615Q154.66898 374.85178 154.0596 374.85178Q153.46585 374.85178 153.16898 375.32053Q152.88773 375.77365 152.8721 376.75803L152.8721 378.82053Q152.8721 379.8674 153.15335 380.38303Q153.4346 380.88303 154.07523 380.88303Q154.6846 380.88303 154.96585 380.39865Q155.2471 379.91428 155.2471 378.91428L155.2471 376.88303Z"
     fill-rule="nonzero"
     id="path95" />
  <path
     fill="#757575"
     d="M277.77487 382.13303L276.08737 382.13303L276.08737 375.60178L274.07175 376.22678L274.07175 374.85178L277.603 373.58615L277.77487 373.58615L277.77487 382.13303ZM286.4155 378.60178Q286.4155 380.3674 285.68112 381.32053Q284.94675 382.25803 283.5405 382.25803Q282.13425 382.25803 281.39987 381.33615Q280.6655 380.41428 280.64987 378.69553L280.64987 377.1174Q280.64987 375.33615 281.38425 374.41428Q282.13425 373.47678 283.52487 373.47678Q284.9155 373.47678 285.64987 374.39865Q286.39987 375.32053 286.4155 377.03928L286.4155 378.60178ZM284.71237 376.88303Q284.71237 375.82053 284.4155 375.33615Q284.13425 374.85178 283.52487 374.85178Q282.93112 374.85178 282.63425 375.32053Q282.353 375.77365 282.33737 376.75803L282.33737 378.82053Q282.33737 379.8674 282.61862 380.38303Q282.89987 380.88303 283.5405 380.88303Q284.14987 380.88303 284.43112 380.39865Q284.71237 379.91428 284.71237 378.91428L284.71237 376.88303ZM293.4155 378.60178Q293.4155 380.3674 292.68112 381.32053Q291.94675 382.25803 290.5405 382.25803Q289.13425 382.25803 288.39987 381.33615Q287.6655 380.41428 287.64987 378.69553L287.64987 377.1174Q287.64987 375.33615 288.38425 374.41428Q289.13425 373.47678 290.52487 373.47678Q291.9155 373.47678 292.64987 374.39865Q293.39987 375.32053 293.4155 377.03928L293.4155 378.60178ZM291.71237 376.88303Q291.71237 375.82053 291.4155 375.33615Q291.13425 374.85178 290.52487 374.85178Q289.93112 374.85178 289.63425 375.32053Q289.353 375.77365 289.33737 376.75803L289.33737 378.82053Q289.33737 379.8674 289.61862 380.38303Q289.89987 380.88303 290.5405 380.88303Q291.14987 380.88303 291.43112 380.39865Q291.71237 379.91428 291.71237 378.91428L291.71237 376.88303ZM300.4155 378.60178Q300.4155 380.3674 299.68112 381.32053Q298.94675 382.25803 297.5405 382.25803Q296.13425 382.25803 295.39987 381.33615Q294.6655 380.41428 294.64987 378.69553L294.64987 377.1174Q294.64987 375.33615 295.38425 374.41428Q296.13425 373.47678 297.52487 373.47678Q298.9155 373.47678 299.64987 374.39865Q300.39987 375.32053 300.4155 377.03928L300.4155 378.60178ZM298.71237 376.88303Q298.71237 375.82053 298.4155 375.33615Q298.13425 374.85178 297.52487 374.85178Q296.93112 374.85178 296.63425 375.32053Q296.353 375.77365 296.33737 376.75803L296.33737 378.82053Q296.33737 379.8674 296.61862 380.38303Q296.89987 380.88303 297.5405 380.88303Q298.14987 380.88303 298.43112 380.39865Q298.71237 379.91428 298.71237 378.91428L298.71237 376.88303Z"
     fill-rule="nonzero"
     id="path97" />
  <path
     fill="#757575"
     d="M407.24014 382.13303L405.55264 382.13303L405.55264 375.60178L403.53702 376.22678L403.53702 374.85178L407.06827 373.58615L407.24014 373.58615L407.24014 382.13303ZM415.88077 378.60178Q415.88077 380.3674 415.1464 381.32053Q414.41202 382.25803 413.00577 382.25803Q411.59952 382.25803 410.86514 381.33615Q410.13077 380.41428 410.11514 378.69553L410.11514 377.1174Q410.11514 375.33615 410.84952 374.41428Q411.59952 373.47678 412.99014 373.47678Q414.38077 373.47678 415.11514 374.39865Q415.86514 375.32053 415.88077 377.03928L415.88077 378.60178ZM414.17764 376.88303Q414.17764 375.82053 413.88077 375.33615Q413.59952 374.85178 412.99014 374.85178Q412.3964 374.85178 412.09952 375.32053Q411.81827 375.77365 411.80264 376.75803L411.80264 378.82053Q411.80264 379.8674 412.0839 380.38303Q412.36514 380.88303 413.00577 380.88303Q413.61514 380.88303 413.8964 380.39865Q414.17764 379.91428 414.17764 378.91428L414.17764 376.88303ZM422.88077 378.60178Q422.88077 380.3674 422.1464 381.32053Q421.41202 382.25803 420.00577 382.25803Q418.59952 382.25803 417.86514 381.33615Q417.13077 380.41428 417.11514 378.69553L417.11514 377.1174Q417.11514 375.33615 417.84952 374.41428Q418.59952 373.47678 419.99014 373.47678Q421.38077 373.47678 422.11514 374.39865Q422.86514 375.32053 422.88077 377.03928L422.88077 378.60178ZM421.17764 376.88303Q421.17764 375.82053 420.88077 375.33615Q420.59952 374.85178 419.99014 374.85178Q419.3964 374.85178 419.09952 375.32053Q418.81827 375.77365 418.80264 376.75803L418.80264 378.82053Q418.80264 379.8674 419.0839 380.38303Q419.36514 380.88303 420.00577 380.88303Q420.61514 380.88303 420.8964 380.39865Q421.17764 379.91428 421.17764 378.91428L421.17764 376.88303ZM429.88077 378.60178Q429.88077 380.3674 429.1464 381.32053Q428.41202 382.25803 427.00577 382.25803Q425.59952 382.25803 424.86514 381.33615Q424.13077 380.41428 424.11514 378.69553L424.11514 377.1174Q424.11514 375.33615 424.84952 374.41428Q425.59952 373.47678 426.99014 373.47678Q428.38077 373.47678 429.11514 374.39865Q429.86514 375.32053 429.88077 377.03928L429.88077 378.60178ZM428.17764 376.88303Q428.17764 375.82053 427.88077 375.33615Q427.59952 374.85178 426.99014 374.85178Q426.3964 374.85178 426.09952 375.32053Q425.81827 375.77365 425.80264 376.75803L425.80264 378.82053Q425.80264 379.8674 426.0839 380.38303Q426.36514 380.88303 427.00577 380.88303Q427.61514 380.88303 427.8964 380.39865Q428.17764 379.91428 428.17764 378.91428L428.17764 376.88303ZM436.88077 378.60178Q436.88077 380.3674 436.1464 381.32053Q435.41202 382.25803 434.00577 382.25803Q432.59952 382.25803 431.86514 381.33615Q431.13077 380.41428 431.11514 378.69553L431.11514 377.1174Q431.11514 375.33615 431.84952 374.41428Q432.59952 373.47678 433.99014 373.47678Q435.38077 373.47678 436.11514 374.39865Q436.86514 375.32053 436.88077 377.03928L436.88077 378.60178ZM435.17764 376.88303Q435.17764 375.82053 434.88077 375.33615Q434.59952 374.85178 433.99014 374.85178Q433.3964 374.85178 433.09952 375.32053Q432.81827 375.77365 432.80264 376.75803L432.80264 378.82053Q432.80264 379.8674 433.0839 380.38303Q433.36514 380.88303 434.00577 380.88303Q434.61514 380.88303 434.8964 380.39865Q435.17764 379.91428 435.17764 378.91428L435.17764 376.88303ZM443.88077 378.60178Q443.88077 380.3674 443.1464 381.32053Q442.41202 382.25803 441.00577 382.25803Q439.59952 382.25803 438.86514 381.33615Q438.13077 380.41428 438.11514 378.69553L438.11514 377.1174Q438.11514 375.33615 438.84952 374.41428Q439.59952 373.47678 440.99014 373.47678Q442.38077 373.47678 443.11514 374.39865Q443.86514 375.32053 443.88077 377.03928L443.88077 378.60178ZM442.17764 376.88303Q442.17764 375.82053 441.88077 375.33615Q441.59952 374.85178 440.99014 374.85178Q440.3964 374.85178 440.09952 375.32053Q439.81827 375.77365 439.80264 376.75803L439.80264 378.82053Q439.80264 379.8674 440.0839 380.38303Q440.36514 380.88303 441.00577 380.88303Q441.61514 380.88303 441.8964 380.39865Q442.17764 379.91428 442.17764 378.91428L442.17764 376.88303Z"
     fill-rule="nonzero"
     id="path99" />
  <path
     fill="#757575"
     d="M536.7054 382.13303L535.0179 382.13303L535.0179 375.60178L533.00226 376.22678L533.00226 374.85178L536.5335 373.58615L536.7054 373.58615L536.7054 382.13303ZM545.346 378.60178Q545.346 380.3674 544.61163 381.32053Q543.87726 382.25803 542.471 382.25803Q541.06476 382.25803 540.3304 381.33615Q539.596 380.41428 539.5804 378.69553L539.5804 377.1174Q539.5804 375.33615 540.31476 374.41428Q541.06476 373.47678 542.4554 373.47678Q543.846 373.47678 544.5804 374.39865Q545.3304 375.32053 545.346 377.03928L545.346 378.60178ZM543.6429 376.88303Q543.6429 375.82053 543.346 375.33615Q543.06476 374.85178 542.4554 374.85178Q541.86163 374.85178 541.56476 375.32053Q541.2835 375.77365 541.2679 376.75803L541.2679 378.82053Q541.2679 379.8674 541.54913 380.38303Q541.8304 380.88303 542.471 380.88303Q543.0804 380.88303 543.36163 380.39865Q543.6429 379.91428 543.6429 378.91428L543.6429 376.88303ZM552.346 378.60178Q552.346 380.3674 551.61163 381.32053Q550.87726 382.25803 549.471 382.25803Q548.06476 382.25803 547.3304 381.33615Q546.596 380.41428 546.5804 378.69553L546.5804 377.1174Q546.5804 375.33615 547.31476 374.41428Q548.06476 373.47678 549.4554 373.47678Q550.846 373.47678 551.5804 374.39865Q552.3304 375.32053 552.346 377.03928L552.346 378.60178ZM550.6429 376.88303Q550.6429 375.82053 550.346 375.33615Q550.06476 374.85178 549.4554 374.85178Q548.86163 374.85178 548.56476 375.32053Q548.2835 375.77365 548.2679 376.75803L548.2679 378.82053Q548.2679 379.8674 548.54913 380.38303Q548.8304 380.88303 549.471 380.88303Q550.0804 380.88303 550.36163 380.39865Q550.6429 379.91428 550.6429 378.91428L550.6429 376.88303ZM559.346 378.60178Q559.346 380.3674 558.61163 381.32053Q557.87726 382.25803 556.471 382.25803Q555.06476 382.25803 554.3304 381.33615Q553.596 380.41428 553.5804 378.69553L553.5804 377.1174Q553.5804 375.33615 554.31476 374.41428Q555.06476 373.47678 556.4554 373.47678Q557.846 373.47678 558.5804 374.39865Q559.3304 375.32053 559.346 377.03928L559.346 378.60178ZM557.6429 376.88303Q557.6429 375.82053 557.346 375.33615Q557.06476 374.85178 556.4554 374.85178Q555.86163 374.85178 555.56476 375.32053Q555.2835 375.77365 555.2679 376.75803L555.2679 378.82053Q555.2679 379.8674 555.54913 380.38303Q555.8304 380.88303 556.471 380.88303Q557.0804 380.88303 557.36163 380.39865Q557.6429 379.91428 557.6429 378.91428L557.6429 376.88303ZM566.346 378.60178Q566.346 380.3674 565.61163 381.32053Q564.87726 382.25803 563.471 382.25803Q562.06476 382.25803 561.3304 381.33615Q560.596 380.41428 560.5804 378.69553L560.5804 377.1174Q560.5804 375.33615 561.31476 374.41428Q562.06476 373.47678 563.4554 373.47678Q564.846 373.47678 565.5804 374.39865Q566.3304 375.32053 566.346 377.03928L566.346 378.60178ZM564.6429 376.88303Q564.6429 375.82053 564.346 375.33615Q564.06476 374.85178 563.4554 374.85178Q562.86163 374.85178 562.56476 375.32053Q562.2835 375.77365 562.2679 376.75803L562.2679 378.82053Q562.2679 379.8674 562.54913 380.38303Q562.8304 380.88303 563.471 380.88303Q564.0804 380.88303 564.36163 380.39865Q564.6429 379.91428 564.6429 378.91428L564.6429 376.88303ZM573.346 378.60178Q573.346 380.3674 572.61163 381.32053Q571.87726 382.25803 570.471 382.25803Q569.06476 382.25803 568.3304 381.33615Q567.596 380.41428 567.5804 378.69553L567.5804 377.1174Q567.5804 375.33615 568.31476 374.41428Q569.06476 373.47678 570.4554 373.47678Q571.846 373.47678 572.5804 374.39865Q573.3304 375.32053 573.346 377.03928L573.346 378.60178ZM571.6429 376.88303Q571.6429 375.82053 571.346 375.33615Q571.06476 374.85178 570.4554 374.85178Q569.86163 374.85178 569.56476 375.32053Q569.2835 375.77365 569.2679 376.75803L569.2679 378.82053Q569.2679 379.8674 569.54913 380.38303Q569.8304 380.88303 570.471 380.88303Q571.0804 380.88303 571.36163 380.39865Q571.6429 379.91428 571.6429 378.91428L571.6429 376.88303ZM580.346 378.60178Q580.346 380.3674 579.61163 381.32053Q578.87726 382.25803 577.471 382.25803Q576.06476 382.25803 575.3304 381.33615Q574.596 380.41428 574.5804 378.69553L574.5804 377.1174Q574.5804 375.33615 575.31476 374.41428Q576.06476 373.47678 577.4554 373.47678Q578.846 373.47678 579.5804 374.39865Q580.3304 375.32053 580.346 377.03928L580.346 378.60178ZM578.6429 376.88303Q578.6429 375.82053 578.346 375.33615Q578.06476 374.85178 577.4554 374.85178Q576.86163 374.85178 576.56476 375.32053Q576.2835 375.77365 576.2679 376.75803L576.2679 378.82053Q576.2679 379.8674 576.54913 380.38303Q576.8304 380.88303 577.471 380.88303Q578.0804 380.88303 578.36163 380.39865Q578.6429 379.91428 578.6429 378.91428L578.6429 376.88303ZM587.346 378.60178Q587.346 380.3674 586.61163 381.32053Q585.87726 382.25803 584.471 382.25803Q583.06476 382.25803 582.3304 381.33615Q581.596 380.41428 581.5804 378.69553L581.5804 377.1174Q581.5804 375.33615 582.31476 374.41428Q583.06476 373.47678 584.4554 373.47678Q585.846 373.47678 586.5804 374.39865Q587.3304 375.32053 587.346 377.03928L587.346 378.60178ZM585.6429 376.88303Q585.6429 375.82053 585.346 375.33615Q585.06476 374.85178 584.4554 374.85178Q583.86163 374.85178 583.56476 375.32053Q583.2835 375.77365 583.2679 376.75803L583.2679 378.82053Q583.2679 379.8674 583.54913 380.38303Q583.8304 380.88303 584.471 380.88303Q585.0804 380.88303 585.36163 380.39865Q585.6429 379.91428 585.6429 378.91428L585.6429 376.88303Z"
     fill-rule="nonzero"
     id="path101" />
  <path
     d="m 309.64288,109.43881 6,6 -6,6 -6,-6 z"
     id="path103"
     inkscape:connector-curvature="0"
     style="fill:#4285f4;fill-rule:nonzero" />
  <path
     d="m 337.64288,109.43881 5.19615,9 h -10.3923 z"
     id="path105"
     inkscape:connector-curvature="0"
     style="fill:#db4437;fill-rule:nonzero" />
  <path
     d="m 361.40025,111.19616 h 8.48526 v 8.48528 h -8.48526 z"
     id="path107"
     inkscape:connector-curvature="0"
     style="fill:#f4b400;fill-rule:nonzero" />
  <path
     d="m 399.64288,115.43881 c 0,3.3137 -2.6863,6 -6,6 -3.31374,0 -6,-2.6863 -6,-6 0,-3.31371 2.68626,-6 6,-6 3.3137,0 6,2.68629 6,6 z"
     id="path109"
     inkscape:connector-curvature="0"
     style="fill:#0f9d58;fill-rule:nonzero" />
  <path
     d="m 302.06239,93.661586 q 0,1.04688 -0.35938,1.82813 -0.34375,0.78125 -1,1.1875 -0.64062,0.40625 -1.5,0.40625 -0.82812,0 -1.48438,-0.40625 -0.65624,-0.42188 -1.01562,-1.17188 -0.34375,-0.76562 -0.35938,-1.78125 v -0.51562 q 0,-1.01563 0.35938,-1.79688 0.35938,-0.79687 1,-1.20312 0.65625,-0.42188 1.5,-0.42188 0.84375,0 1.5,0.42188 0.65625,0.40625 1,1.1875 0.35938,0.78125 0.35938,1.8125 z m -0.9375,-0.45312 q 0,-1.26563 -0.51563,-1.9375 -0.5,-0.6875 -1.40625,-0.6875 -0.89062,0 -1.40625,0.6875 -0.5,0.67187 -0.51563,1.875 v 0.51562 q 0,1.23438 0.51563,1.9375 0.51563,0.6875 1.40625,0.6875 0.90625,0 1.40625,-0.65625 0.5,-0.65625 0.51563,-1.89062 z m 6.78124,1.20312 q 0,1.20313 -0.54687,1.9375 -0.54687,0.73438 -1.5,0.73438 -0.95313,0 -1.5,-0.60938 v 2.54688 h -0.90625 v -7.3125 h 0.82812 l 0.0313,0.57812 q 0.5625,-0.67187 1.54687,-0.67187 0.9375,0 1.48437,0.71875 0.5625,0.70312 0.5625,1.98437 z m -0.89062,-0.10937 q 0,-0.89063 -0.39062,-1.40625 -0.375,-0.51563 -1.04688,-0.51563 -0.8125,0 -1.21875,0.71875 v 2.53125 q 0.40625,0.71875 1.23437,0.71875 0.65626,0 1.03126,-0.51562 0.39062,-0.51563 0.39062,-1.53125 z m 4.625,2.78125 q -1.07812,0 -1.75,-0.70313 -0.67188,-0.70312 -0.67188,-1.89062 v -0.15625 q 0,-0.79688 0.29688,-1.40625 0.3125,-0.625 0.84375,-0.96875 0.54687,-0.34375 1.17187,-0.34375 1.03126,0 1.59376,0.67187 0.57812,0.67188 0.57812,1.9375 v 0.375 h -3.57812 q 0.0156,0.78125 0.45312,1.26563 0.4375,0.48437 1.10938,0.48437 0.48437,0 0.8125,-0.1875 0.32812,-0.20312 0.57812,-0.53125 l 0.5625,0.4375 q -0.67188,1.01563 -2,1.01563 z m -0.10938,-4.73438 q -0.54687,0 -0.92187,0.40625 -0.375,0.39063 -0.45313,1.10938 h 2.64063 v -0.0625 q -0.0312,-0.6875 -0.375,-1.0625 -0.32813,-0.39063 -0.89063,-0.39063 z m 3.76563,-0.64062 0.0312,0.65625 q 0.60938,-0.75 1.59375,-0.75 1.67187,0 1.6875,1.89062 v 3.48438 h -0.90625 v -3.5 q 0,-0.5625 -0.26562,-0.82813 -0.25,-0.28125 -0.79688,-0.28125 -0.4375,0 -0.78125,0.23438 -0.32813,0.23437 -0.5,0.60937 v 3.76563 h -0.90625 v -5.28125 z m 12.53125,3.03125 q -0.14062,1.125 -0.84375,1.73437 -0.70313,0.60938 -1.85937,0.60938 -1.26563,0 -2.03126,-0.89063 -0.75,-0.90625 -0.75,-2.42187 v -0.6875 q 0,-0.98438 0.35938,-1.73438 0.35938,-0.76562 1,-1.15625 0.65625,-0.40625 1.5,-0.40625 1.14062,0 1.8125,0.64063 0.6875,0.625 0.8125,1.73437 h -0.95312 q -0.125,-0.84375 -0.53126,-1.21875 -0.40624,-0.39062 -1.14062,-0.39062 -0.89062,0 -1.40625,0.67187 -0.5,0.65625 -0.5,1.89063 v 0.6875 q 0,1.15625 0.46875,1.84375 0.48438,0.67187 1.35938,0.67187 0.78124,0 1.1875,-0.34375 0.42187,-0.35937 0.5625,-1.23437 z m 1.375,-0.4375 q 0,-0.78125 0.3125,-1.39063 0.3125,-0.625 0.84375,-0.95312 0.54687,-0.34375 1.25,-0.34375 1.07813,0 1.73437,0.75 0.67188,0.73437 0.67188,1.98437 v 0.0625 q 0,0.76563 -0.29688,1.375 -0.29687,0.60938 -0.84374,0.95313 -0.54688,0.34375 -1.25,0.34375 -1.07813,0 -1.75,-0.73438 -0.67188,-0.75 -0.67188,-1.98437 z m 0.92188,0.10937 q 0,0.875 0.40624,1.40625 0.40626,0.53125 1.09376,0.53125 0.6875,0 1.07812,-0.53125 0.40625,-0.54687 0.40625,-1.51562 0,-0.875 -0.40625,-1.40625 -0.40625,-0.54688 -1.09375,-0.54688 -0.67187,0 -1.07813,0.53125 -0.40624,0.53125 -0.40624,1.53125 z m 6.17187,-2.70312 0.0312,0.65625 q 0.60938,-0.75 1.59375,-0.75 1.67187,0 1.6875,1.89062 v 3.48438 h -0.90625 v -3.5 q 0,-0.5625 -0.26562,-0.82813 -0.25,-0.28125 -0.79688,-0.28125 -0.4375,0 -0.78125,0.23438 -0.32813,0.23437 -0.5,0.60937 v 3.76563 h -0.90625 v -5.28125 z m 6,0 0.0312,0.65625 q 0.60938,-0.75 1.59375,-0.75 1.67187,0 1.6875,1.89062 v 3.48438 h -0.90625 v -3.5 q 0,-0.5625 -0.26562,-0.82813 -0.25,-0.28125 -0.79688,-0.28125 -0.4375,0 -0.78125,0.23438 -0.32813,0.23437 -0.5,0.60937 v 3.76563 h -0.90625 v -5.28125 z m 7.34375,5.375 q -1.07812,0 -1.75,-0.70313 -0.67188,-0.70312 -0.67188,-1.89062 v -0.15625 q 0,-0.79688 0.29688,-1.40625 0.3125,-0.625 0.84375,-0.96875 0.54687,-0.34375 1.17187,-0.34375 1.03126,0 1.59376,0.67187 0.57812,0.67188 0.57812,1.9375 v 0.375 h -3.57812 q 0.0156,0.78125 0.45312,1.26563 0.4375,0.48437 1.10938,0.48437 0.48437,0 0.8125,-0.1875 0.32812,-0.20312 0.57812,-0.53125 l 0.5625,0.4375 q -0.67188,1.01563 -2,1.01563 z m -0.10938,-4.73438 q -0.54687,0 -0.92187,0.40625 -0.375,0.39063 -0.45313,1.10938 h 2.64063 v -0.0625 q -0.0312,-0.6875 -0.375,-1.0625 -0.32813,-0.39063 -0.89063,-0.39063 z m 5.03126,4 q 0.48437,0 0.84374,-0.28125 0.375,-0.29687 0.40626,-0.75 h 0.85937 q -0.0312,0.45313 -0.32813,0.875 -0.28124,0.40625 -0.76562,0.65625 -0.46875,0.23438 -1.01562,0.23438 -1.07813,0 -1.71876,-0.71875 -0.625,-0.71875 -0.625,-1.96875 v -0.15625 q 0,-0.76563 0.28126,-1.35938 0.28124,-0.60937 0.8125,-0.9375 0.53124,-0.32812 1.25,-0.32812 0.89062,0 1.46874,0.53125 0.59376,0.53125 0.64063,1.375 h -0.85937 q -0.0313,-0.51563 -0.39063,-0.84375 -0.34375,-0.32813 -0.85937,-0.32813 -0.6875,0 -1.0625,0.5 -0.375,0.5 -0.375,1.4375 v 0.15625 q 0,0.92188 0.375,1.42188 0.375,0.48437 1.0625,0.48437 z m 4.10937,-5.92187 v 1.28125 h 0.98437 v 0.70312 h -0.98437 v 3.26563 q 0,0.32812 0.125,0.48437 0.14063,0.15625 0.45313,0.15625 0.15624,0 0.4375,-0.0625 v 0.73438 q -0.35938,0.0937 -0.6875,0.0937 -0.60938,0 -0.92188,-0.35938 -0.3125,-0.375 -0.3125,-1.04687 v -3.26563 h -0.95312 v -0.70312 h 0.95312 v -1.28125 z m 2.76563,6.5625 h -0.90626 v -5.28125 h 0.90626 z m -0.98438,-6.6875 q 0,-0.21875 0.125,-0.35938 0.14062,-0.15625 0.40625,-0.15625 0.26563,0 0.40625,0.15625 0.14062,0.14063 0.14062,0.35938 0,0.21875 -0.14062,0.375 -0.14062,0.14062 -0.40625,0.14062 -0.26563,0 -0.40625,-0.14062 -0.125,-0.15625 -0.125,-0.375 z m 1.75,4 q 0,-0.78125 0.3125,-1.39063 0.3125,-0.625 0.84375,-0.95312 0.54687,-0.34375 1.25,-0.34375 1.07813,0 1.73437,0.75 0.67188,0.73437 0.67188,1.98437 v 0.0625 q 0,0.76563 -0.29688,1.375 -0.29687,0.60938 -0.84374,0.95313 -0.54688,0.34375 -1.25,0.34375 -1.07813,0 -1.75,-0.73438 -0.67188,-0.75 -0.67188,-1.98437 z m 0.92188,0.10937 q 0,0.875 0.40624,1.40625 0.40626,0.53125 1.09376,0.53125 0.6875,0 1.07812,-0.53125 0.40625,-0.54687 0.40625,-1.51562 0,-0.875 -0.40625,-1.40625 -0.40625,-0.54688 -1.09375,-0.54688 -0.67187,0 -1.07813,0.53125 -0.40624,0.53125 -0.40624,1.53125 z m 6.17187,-2.70312 0.0312,0.65625 q 0.60938,-0.75 1.59375,-0.75 1.67187,0 1.6875,1.89062 v 3.48438 h -0.90625 v -3.5 q 0,-0.5625 -0.26562,-0.82813 -0.25,-0.28125 -0.79688,-0.28125 -0.4375,0 -0.78125,0.23438 -0.32813,0.23437 -0.5,0.60937 v 3.76563 h -0.90625 v -5.28125 z m 8.23437,3.875 q 0,-0.35938 -0.28124,-0.5625 -0.28126,-0.20313 -0.96876,-0.34375 -0.67187,-0.15625 -1.07812,-0.35938 -0.40625,-0.20312 -0.60938,-0.48437 -0.1875,-0.28125 -0.1875,-0.67188 0,-0.65625 0.54688,-1.09375 0.5625,-0.45312 1.40625,-0.45312 0.90625,0 1.45313,0.46875 0.5625,0.45312 0.5625,1.17187 h -0.90626 q 0,-0.375 -0.3125,-0.64062 -0.3125,-0.26563 -0.79687,-0.26563 -0.48437,0 -0.76563,0.21875 -0.28124,0.21875 -0.28124,0.5625 0,0.32813 0.25,0.5 0.26562,0.15625 0.9375,0.3125 0.6875,0.14063 1.10937,0.35938 0.42187,0.20312 0.60937,0.5 0.20313,0.29687 0.20313,0.71875 0,0.71875 -0.5625,1.14062 -0.5625,0.42188 -1.46875,0.42188 -0.625,0 -1.125,-0.21875 -0.48438,-0.23438 -0.76562,-0.625 -0.26563,-0.40625 -0.26563,-0.875 h 0.90625 q 0.0156,0.45312 0.35938,0.71875 0.34374,0.26562 0.89062,0.26562 0.51562,0 0.82812,-0.20312 0.3125,-0.21875 0.3125,-0.5625 z m 2.09376,2.01562 h -0.76563 l 2.96875,-7.71875 h 0.76566 z m 9.43754,-0.60937 h -0.95314 l -3.57812,-5.48438 v 5.48438 h -0.9375 v -7.10938 h 0.9375 l 3.59376,5.5 v -5.5 h 0.9375 z m 4.65624,-0.51563 q -0.53124,0.60938 -1.5625,0.60938 -0.84374,0 -1.28124,-0.48438 -0.4375,-0.5 -0.4375,-1.45312 v -3.4375 h 0.8906 v 3.40625 q 0,1.20312 0.9844,1.20312 1.03124,0 1.375,-0.76562 v -3.84375 h 0.90624 v 5.28125 h -0.85938 z m 3.57812,-4.76562 0.0312,0.57812 q 0.57814,-0.67187 1.5625,-0.67187 1.1094,0 1.51564,0.84375 0.25,-0.375 0.67186,-0.60938 0.4375,-0.23437 1,-0.23437 1.75,0 1.78126,1.82812 v 3.54688 h -0.90626 v -3.48438 q 0,-0.5625 -0.2656,-0.84375 -0.25,-0.28125 -0.8594,-0.28125 -0.5156,0 -0.84374,0.29688 -0.32812,0.29687 -0.39062,0.8125 v 3.5 h -0.90624 v -3.46875 q 0,-1.14063 -1.125,-1.14063 -0.89064,0 -1.21876,0.75 v 3.85938 h -0.90624 v -5.28125 z m 12.625,2.70312 q 0,1.20313 -0.5625,1.9375 -0.54686,0.73438 -1.48436,0.73438 -1,0 -1.5469,-0.70313 l -0.0469,0.60938 h -0.82814 v -7.5 h 0.90626 v 2.79687 q 0.54688,-0.67187 1.5,-0.67187 0.96874,0 1.51564,0.73437 0.54686,0.71875 0.54686,1.98438 z m -0.90626,-0.10937 q 0,-0.92188 -0.35936,-1.42188 -0.34374,-0.5 -1.01564,-0.5 -0.8906,0 -1.28124,0.82813 v 2.28125 q 0.40624,0.82812 1.28124,0.82812 0.65626,0 1.01564,-0.5 0.35936,-0.5 0.35936,-1.51562 z m 4.625,2.78125 q -1.0781,0 -1.75,-0.70313 -0.67186,-0.70312 -0.67186,-1.89062 v -0.15625 q 0,-0.79688 0.29686,-1.40625 0.3125,-0.625 0.84376,-0.96875 0.54688,-0.34375 1.17188,-0.34375 1.03126,0 1.59376,0.67187 0.5781,0.67188 0.5781,1.9375 v 0.375 h -3.5781 q 0.0156,0.78125 0.4531,1.26563 0.4375,0.48437 1.1094,0.48437 0.48436,0 0.8125,-0.1875 0.3281,-0.20312 0.5781,-0.53125 l 0.5625,0.4375 q -0.67186,1.01563 -2,1.01563 z m -0.10936,-4.73438 q -0.54688,0 -0.92188,0.40625 -0.375,0.39063 -0.45312,1.10938 h 2.64062 v -0.0625 q -0.0313,-0.6875 -0.375,-1.0625 -0.32812,-0.39063 -0.89062,-0.39063 z m 5.46876,0.17188 q -0.20314,-0.0312 -0.4375,-0.0312 -0.89064,0 -1.20314,0.75 v 3.75 h -0.90626 v -5.28125 h 0.875 l 0.0156,0.60937 q 0.4375,-0.70312 1.26562,-0.70312 0.25,0 0.39064,0.0625 z m 2.2031,1.78125 q 0,-0.78125 0.3125,-1.39063 0.3125,-0.625 0.84376,-0.95312 0.54688,-0.34375 1.25,-0.34375 1.07814,0 1.73438,0.75 0.67186,0.73437 0.67186,1.98437 v 0.0625 q 0,0.76563 -0.29686,1.375 -0.29688,0.60938 -0.84374,0.95313 -0.5469,0.34375 -1.25,0.34375 -1.07814,0 -1.75,-0.73438 -0.6719,-0.75 -0.6719,-1.98437 z m 0.9219,0.10937 q 0,0.875 0.40624,1.40625 0.40626,0.53125 1.09376,0.53125 0.6875,0 1.0781,-0.53125 0.40626,-0.54687 0.40626,-1.51562 0,-0.875 -0.40626,-1.40625 -0.40624,-0.54688 -1.09374,-0.54688 -0.67186,0 -1.07812,0.53125 -0.40624,0.53125 -0.40624,1.53125 z m 5.7656,2.57813 v -4.57813 h -0.8281 v -0.70312 h 0.8281 v -0.54688 q 0,-0.84375 0.45314,-1.3125 0.45312,-0.46875 1.28126,-0.46875 0.3125,0 0.625,0.0937 l -0.0469,0.73438 q -0.23436,-0.0469 -0.48436,-0.0469 -0.4375,0 -0.6875,0.26563 -0.23438,0.25 -0.23438,0.71875 v 0.5625 h 1.125 v 0.70312 h -1.125 v 4.57813 z m 9.6094,-6.34375 h -2.28126 v 6.34375 h -0.9375 v -6.34375 h -2.28124 v -0.76563 h 5.5 z m 1.85936,1.70312 q 0.59374,-0.73437 1.5625,-0.73437 1.67188,0 1.6875,1.89062 v 3.48438 h -0.90626 v -3.5 q 0,-0.5625 -0.2656,-0.82813 -0.25,-0.28125 -0.7969,-0.28125 -0.4375,0 -0.78124,0.23438 -0.32812,0.23437 -0.5,0.60937 v 3.76563 h -0.90626 v -7.5 h 0.90626 z m 7.64064,0.17188 q -0.20314,-0.0312 -0.4375,-0.0312 -0.89064,0 -1.20314,0.75 v 3.75 h -0.90626 v -5.28125 h 0.875 l 0.0156,0.60937 q 0.4375,-0.70312 1.26562,-0.70312 0.25,0 0.39064,0.0625 z m 2.6406,4.5625 q -1.0781,0 -1.75,-0.70313 -0.67186,-0.70312 -0.67186,-1.89062 v -0.15625 q 0,-0.79688 0.29686,-1.40625 0.3125,-0.625 0.84376,-0.96875 0.54688,-0.34375 1.17188,-0.34375 1.03126,0 1.59376,0.67187 0.5781,0.67188 0.5781,1.9375 v 0.375 h -3.5781 q 0.0156,0.78125 0.4531,1.26563 0.4375,0.48437 1.1094,0.48437 0.48436,0 0.8125,-0.1875 0.3281,-0.20312 0.5781,-0.53125 l 0.5625,0.4375 q -0.67186,1.01563 -2,1.01563 z m -0.10936,-4.73438 q -0.54688,0 -0.92188,0.40625 -0.375,0.39063 -0.45312,1.10938 h 2.64062 v -0.0625 q -0.0313,-0.6875 -0.375,-1.0625 -0.32812,-0.39063 -0.89062,-0.39063 z m 6.1875,4.64063 q -0.0781,-0.15625 -0.14064,-0.5625 -0.625,0.65625 -1.5,0.65625 -0.78124,0 -1.28124,-0.4375 -0.5,-0.4375 -0.5,-1.125 0,-0.82813 0.625,-1.28125 0.625,-0.45313 1.76564,-0.45313 h 0.875 v -0.42187 q 0,-0.46875 -0.28126,-0.75 -0.28124,-0.28125 -0.82814,-0.28125 -0.48436,0 -0.8125,0.25 -0.3281,0.23437 -0.3281,0.59375 h -0.90626 q 0,-0.40625 0.28126,-0.76563 0.28124,-0.375 0.75,-0.57812 0.48436,-0.21875 1.0625,-0.21875 0.92186,0 1.4375,0.45312 0.5156,0.45313 0.53124,1.25 v 2.4375 q 0,0.71875 0.1875,1.15625 v 0.0781 z m -1.5,-0.6875 q 0.42186,0 0.79686,-0.21875 0.39064,-0.21875 0.5469,-0.57813 v -1.07812 h -0.70314 q -1.65626,0 -1.65626,0.96875 0,0.42187 0.28126,0.67187 0.28124,0.23438 0.73438,0.23438 z m 3.01562,-2 q 0,-1.21875 0.5625,-1.95313 0.57814,-0.73437 1.51564,-0.73437 0.9375,0 1.46874,0.625 v -2.75 h 0.90626 v 7.5 h -0.82814 l -0.0469,-0.5625 q -0.5469,0.65625 -1.5,0.65625 -0.9219,0 -1.5,-0.75 -0.57814,-0.75 -0.57814,-1.96875 z m 0.90624,0.10937 q 0,0.89063 0.3594,1.40625 0.375,0.5 1.03124,0.5 0.85936,0 1.25,-0.76562 v -2.4375 q -0.40624,-0.73438 -1.23438,-0.73438 -0.67186,0 -1.04686,0.51563 -0.3594,0.5 -0.3594,1.51562 z m 8.39064,1.17188 q 0,-0.35938 -0.28124,-0.5625 -0.28126,-0.20313 -0.96876,-0.34375 -0.67188,-0.15625 -1.07814,-0.35938 -0.40624,-0.20312 -0.60936,-0.48437 -0.1875,-0.28125 -0.1875,-0.67188 0,-0.65625 0.54686,-1.09375 0.5625,-0.45312 1.40626,-0.45312 0.90624,0 1.45314,0.46875 0.5625,0.45312 0.5625,1.17187 h -0.90626 q 0,-0.375 -0.3125,-0.64062 -0.3125,-0.26563 -0.79688,-0.26563 -0.48436,0 -0.76562,0.21875 -0.28124,0.21875 -0.28124,0.5625 0,0.32813 0.25,0.5 0.2656,0.15625 0.9375,0.3125 0.6875,0.14063 1.10936,0.35938 0.42188,0.20312 0.60938,0.5 0.20312,0.29687 0.20312,0.71875 0,0.71875 -0.5625,1.14062 -0.5625,0.42188 -1.46876,0.42188 -0.625,0 -1.125,-0.21875 -0.48436,-0.23438 -0.7656,-0.625 -0.26564,-0.40625 -0.26564,-0.875 h 0.90624 q 0.0156,0.45312 0.3594,0.71875 0.34374,0.26562 0.8906,0.26562 0.51564,0 0.82814,-0.20312 0.3125,-0.21875 0.3125,-0.5625 z m 1.9375,0.9375 q 0,-0.23438 0.14062,-0.39063 0.14064,-0.15625 0.40624,-0.15625 0.28126,0 0.4219,0.15625 0.15624,0.15625 0.15624,0.39063 0,0.21875 -0.15624,0.375 -0.14064,0.14062 -0.4219,0.14062 -0.2656,0 -0.40624,-0.14062 -0.14062,-0.15625 -0.14062,-0.375 z m 0,-4 q 0,-0.23438 0.14062,-0.39063 0.14064,-0.15625 0.40624,-0.15625 0.28126,0 0.4219,0.15625 0.15624,0.15625 0.15624,0.39063 0,0.21875 -0.15624,0.375 -0.14064,0.14062 -0.4219,0.14062 -0.2656,0 -0.40624,-0.14062 -0.14062,-0.15625 -0.14062,-0.375 z"
     id="path111"
     inkscape:connector-curvature="0"
     style="fill:#757575;fill-rule:nonzero" />
  <path
     d="m 298.85926,106.13035 h -0.90625 v -6.01563 l -1.82813,0.65625 v -0.812504 l 2.59376,-0.96875 h 0.14062 z m 3.29688,0.60937 h -0.76563 l 2.96875,-7.718754 h 0.76562 z m 6.70312,-0.60937 h -0.90625 v -6.01563 l -1.82813,0.65625 v -0.812504 l 2.59376,-0.96875 h 0.14062 z m 14,0 h -0.90625 v -6.01563 l -1.82813,0.65625 v -0.812504 l 2.59376,-0.96875 h 0.14062 z m 7.48438,-3.03125 q 0,1.57812 -0.54688,2.35937 -0.53125,0.76563 -1.6875,0.76563 -1.14062,0 -1.6875,-0.75 -0.54688,-0.75 -0.5625,-2.25 v -1.20313 q 0,-1.57812 0.53125,-2.328124 0.54687,-0.76563 1.70313,-0.76563 1.15624,0 1.6875,0.73438 0.54687,0.734374 0.5625,2.265624 z m -0.90626,-1.23438 q 0,-1.15625 -0.32812,-1.67187 -0.3125,-0.531254 -1.01562,-0.531254 -0.6875,0 -1.01563,0.531254 -0.3125,0.51562 -0.3125,1.59375 v 1.45312 q 0,1.15625 0.32813,1.70313 0.34374,0.54687 1.01562,0.54687 0.67188,0 0.98438,-0.51562 0.32812,-0.51563 0.34374,-1.625 z m 2.71876,4.875 h -0.76563 l 2.96875,-7.718754 h 0.76562 z m 6.70312,-0.60937 h -0.90625 v -6.01563 l -1.82813,0.65625 v -0.812504 l 2.59376,-0.96875 h 0.14062 z m 15.6875,0 h -4.65625 v -0.65625 l 2.45313,-2.73438 q 0.54687,-0.60937 0.75,-1 0.21874,-0.39062 0.21874,-0.8125 0,-0.54687 -0.34374,-0.90625 -0.32813,-0.359374 -0.89063,-0.359374 -0.67187,0 -1.04687,0.390624 -0.375,0.375 -0.375,1.0625 h -0.90626 q 0,-0.98437 0.625,-1.578124 0.64063,-0.60938 1.70313,-0.60938 0.98437,0 1.5625,0.51563 0.57813,0.51562 0.57813,1.390624 0,1.04688 -1.34376,2.5 l -1.89062,2.0625 h 3.5625 z m 5.15625,-2.39063 h 0.98437 v 0.73438 h -0.98437 v 1.65625 h -0.90625 v -1.65625 h -3.23438 v -0.53125 l 3.17188,-4.921884 h 0.96875 z m -3.125,0 h 2.21875 v -3.48437 l -0.10938,0.20312 z m 9.76563,-0.64062 q 0,1.57812 -0.54688,2.35937 -0.53125,0.76563 -1.6875,0.76563 -1.14062,0 -1.6875,-0.75 -0.54688,-0.75 -0.5625,-2.25 v -1.20313 q 0,-1.57812 0.53125,-2.328124 0.54687,-0.76563 1.70313,-0.76563 1.15624,0 1.6875,0.73438 0.54687,0.734374 0.5625,2.265624 z m -0.90626,-1.23438 q 0,-1.15625 -0.32812,-1.67187 -0.3125,-0.531254 -1.01562,-0.531254 -0.6875,0 -1.01563,0.531254 -0.3125,0.51562 -0.3125,1.59375 v 1.45312 q 0,1.15625 0.32813,1.70313 0.34374,0.54687 1.01562,0.54687 0.67188,0 0.98438,-0.51562 0.32812,-0.51563 0.34374,-1.625 z m 2.71876,4.875 h -0.76563 l 2.96875,-7.718754 h 0.76562 z m 6.70312,-0.60937 h -0.90625 v -6.01563 l -1.82813,0.65625 v -0.812504 l 2.59376,-0.96875 h 0.14062 z m 13.68752,0 h -4.65624 v -0.65625 l 2.45314,-2.73438 q 0.54686,-0.60937 0.75,-1 0.21874,-0.39062 0.21874,-0.8125 0,-0.54687 -0.34374,-0.90625 -0.32814,-0.359374 -0.89064,-0.359374 -0.67186,0 -1.04686,0.390624 -0.375,0.375 -0.375,1.0625 h -0.90626 q 0,-0.98437 0.625,-1.578124 0.64062,-0.60938 1.70312,-0.60938 0.98438,0 1.5625,0.51563 0.57814,0.51562 0.57814,1.390624 0,1.04688 -1.34376,2.5 l -1.89064,2.0625 h 3.5625 z m 5.15626,-2.39063 h 0.98438 v 0.73438 h -0.98438 v 1.65625 h -0.90626 v -1.65625 h -3.23436 v -0.53125 l 3.17186,-4.921884 h 0.96876 z m -3.125,0 h 2.21874 v -3.48437 l -0.10936,0.20312 z m 9.76564,-0.64062 q 0,1.57812 -0.5469,2.35937 -0.53124,0.76563 -1.6875,0.76563 -1.1406,0 -1.6875,-0.75 -0.54686,-0.75 -0.5625,-2.25 v -1.20313 q 0,-1.57812 0.53126,-2.328124 0.54688,-0.76563 1.70314,-0.76563 1.15624,0 1.6875,0.73438 0.54686,0.734374 0.5625,2.265624 z m -0.90626,-1.23438 q 0,-1.15625 -0.32814,-1.67187 -0.3125,-0.531254 -1.0156,-0.531254 -0.6875,0 -1.01564,0.531254 -0.3125,0.51562 -0.3125,1.59375 v 1.45312 q 0,1.15625 0.32814,1.70313 0.34374,0.54687 1.0156,0.54687 0.6719,0 0.9844,-0.51562 0.3281,-0.51563 0.34374,-1.625 z m 2.71876,4.875 h -0.76564 l 2.96874,-7.718754 h 0.76564 z m 8.3906,-0.60937 h -4.65624 v -0.65625 l 2.45314,-2.73438 q 0.54686,-0.60937 0.75,-1 0.21874,-0.39062 0.21874,-0.8125 0,-0.54687 -0.34374,-0.90625 -0.32814,-0.359374 -0.89064,-0.359374 -0.67186,0 -1.04686,0.390624 -0.375,0.375 -0.375,1.0625 h -0.90626 q 0,-0.98437 0.625,-1.578124 0.64062,-0.60938 1.70312,-0.60938 0.98438,0 1.5625,0.51563 0.57814,0.51562 0.57814,1.390624 0,1.04688 -1.34376,2.5 l -1.89064,2.0625 h 3.5625 z m 5.15626,-2.39063 h 0.98438 v 0.73438 h -0.98438 v 1.65625 h -0.90626 v -1.65625 h -3.23436 v -0.53125 l 3.17186,-4.921884 h 0.96876 z m -3.125,0 h 2.21874 v -3.48437 l -0.10936,0.20312 z"
     id="path113"
     inkscape:connector-curvature="0"
     style="fill:#757575;fill-rule:nonzero" />
  <text
     xml:space="preserve"
     style="color:#000000;font-style:normal;font-variant:normal;font-weight:bold;font-stretch:normal;font-size:9.33333302px;line-height:125%;font-family:Arimo;-inkscape-font-specification:'Arimo Bold';text-indent:0;text-align:start;text-decoration:none;text-decoration-line:none;text-decoration-style:solid;text-decoration-color:#000000;letter-spacing:0px;word-spacing:0px;text-transform:none;writing-mode:lr-tb;direction:ltr;baseline-shift:baseline;text-anchor:start;white-space:normal;clip-rule:nonzero;display:inline;overflow:visible;visibility:visible;opacity:1;isolation:auto;mix-blend-mode:normal;color-interpolation:sRGB;color-interpolation-filters:linearRGB;solid-color:#000000;solid-opacity:1;fill:#000000;fill-opacity:1;fill-rule:nonzero;stroke:none;stroke-width:1px;stroke-linecap:butt;stroke-linejoin:miter;stroke-miterlimit:4;stroke-dasharray:none;stroke-dashoffset:0;stroke-opacity:1;color-rendering:auto;image-rendering:auto;shape-rendering:auto;text-rendering:auto;enable-background:accumulate"
     x="53.560345"
     y="219.7991"
     id="text930"><tspan
       sodipodi:role="line"
       id="tspan928"
       x="53.560345"
       y="219.7991"
       style="font-style:normal;font-variant:normal;font-weight:normal;font-stretch:normal;font-family:Arimo;-inkscape-font-specification:Arimo">10k</tspan></text>
  <text
     id="text934"
     y="152.52209"
     x="47.560345"
     style="color:#000000;font-style:normal;font-variant:normal;font-weight:bold;font-stretch:normal;font-size:9.33333302px;line-height:125%;font-family:Arimo;-inkscape-font-specification:'Arimo Bold';text-indent:0;text-align:start;text-decoration:none;text-decoration-line:none;text-decoration-style:solid;text-decoration-color:#000000;letter-spacing:0px;word-spacing:0px;text-transform:none;writing-mode:lr-tb;direction:ltr;baseline-shift:baseline;text-anchor:start;white-space:normal;clip-rule:nonzero;display:inline;overflow:visible;visibility:visible;opacity:1;isolation:auto;mix-blend-mode:normal;color-interpolation:sRGB;color-interpolation-filters:linearRGB;solid-color:#000000;solid-opacity:1;fill:#000000;fill-opacity:1;fill-rule:nonzero;stroke:none;stroke-width:1px;stroke-linecap:butt;stroke-linejoin:miter;stroke-miterlimit:4;stroke-dasharray:none;stroke-dashoffset:0;stroke-opacity:1;color-rendering:auto;image-rendering:auto;shape-rendering:auto;text-rendering:auto;enable-background:accumulate"
     xml:space="preserve"><tspan
       style="font-style:normal;font-variant:normal;font-weight:normal;font-stretch:normal;font-family:Arimo;-inkscape-font-specification:Arimo"
       y="152.52209"
       x="47.560345"
       id="tspan932"
       sodipodi:role="line">100k</tspan></text>
  <text
     xml:space="preserve"
     style="color:#000000;font-style:normal;font-variant:normal;font-weight:bold;font-stretch:normal;font-size:9.33333302px;line-height:125%;font-family:Arimo;-inkscape-font-specification:'Arimo Bold';text-indent:0;text-align:start;text-decoration:none;text-decoration-line:none;text-decoration-style:solid;text-decoration-color:#000000;letter-spacing:0px;word-spacing:0px;text-transform:none;writing-mode:lr-tb;direction:ltr;baseline-shift:baseline;text-anchor:start;white-space:normal;clip-rule:nonzero;display:inline;overflow:visible;visibility:visible;opacity:1;isolation:auto;mix-blend-mode:normal;color-interpolation:sRGB;color-interpolation-filters:linearRGB;solid-color:#000000;solid-opacity:1;fill:#000000;fill-opacity:1;fill-rule:nonzero;stroke:none;stroke-width:1px;stroke-linecap:butt;stroke-linejoin:miter;stroke-miterlimit:4;stroke-dasharray:none;stroke-dashoffset:0;stroke-opacity:1;color-rendering:auto;image-rendering:auto;shape-rendering:auto;text-rendering:auto;enable-background:accumulate"
     x="51.560345"
     y="82.632378"
     id="text938"><tspan
       sodipodi:role="line"
       id="tspan936"
       x="51.560345"
       y="82.632378"
       style="font-style:normal;font-variant:normal;font-weight:normal;font-stretch:normal;font-family:Arimo;-inkscape-font-specification:Arimo">1M</tspan></text>
  <text
     id="text944"
     y="289.07877"
     x="57.560345"
     style="color:#000000;font-style:normal;font-variant:normal;font-weight:bold;font-stretch:normal;font-size:9.33333302px;line-height:125%;font-family:Arimo;-inkscape-font-specification:'Arimo Bold';text-indent:0;text-align:start;text-decoration:none;text-decoration-line:none;text-decoration-style:solid;text-decoration-color:#000000;letter-spacing:0px;word-spacing:0px;text-transform:none;writing-mode:lr-tb;direction:ltr;baseline-shift:baseline;text-anchor:start;white-space:normal;clip-rule:nonzero;display:inline;overflow:visible;visibility:visible;opacity:1;isolation:auto;mix-blend-mode:normal;color-interpolation:sRGB;color-interpolation-filters:linearRGB;solid-color:#000000;solid-opacity:1;fill:#000000;fill-opacity:1;fill-rule:nonzero;stroke:none;stroke-width:1px;stroke-linecap:butt;stroke-linejoin:miter;stroke-miterlimit:4;stroke-dasharray:none;stroke-dashoffset:0;stroke-opacity:1;color-rendering:auto;image-rendering:auto;shape-rendering:auto;text-rendering:auto;enable-background:accumulate"
     xml:space="preserve"><tspan
       style="font-style:normal;font-variant:normal;font-weight:normal;font-stretch:normal;font-family:Arimo;-inkscape-font-specification:Arimo"
       y="289.07877"
       x="57.560345"
       id="tspan942"
       sodipodi:role="line">1k</tspan></text>
  <text
     xml:space="preserve"
     style="color:#000000;font-style:normal;font-variant:normal;font-weight:bold;font-stretch:normal;font-size:9.33333302px;line-height:125%;font-family:Arimo;-inkscape-font-specification:'Arimo Bold';text-indent:0;text-align:start;text-decoration:none;text-decoration-line:none;text-decoration-style:solid;text-decoration-color:#000000;letter-spacing:0px;word-spacing:0px;text-transform:none;writing-mode:lr-tb;direction:ltr;baseline-shift:baseline;text-anchor:start;white-space:normal;clip-rule:nonzero;display:inline;overflow:visible;visibility:visible;opacity:1;isolation:auto;mix-blend-mode:normal;color-interpolation:sRGB;color-interpolation-filters:linearRGB;solid-color:#000000;solid-opacity:1;fill:#000000;fill-opacity:1;fill-rule:nonzero;stroke:none;stroke-width:1px;stroke-linecap:butt;stroke-linejoin:miter;stroke-miterlimit:4;stroke-dasharray:none;stroke-dashoffset:0;stroke-opacity:1;color-rendering:auto;image-rendering:auto;shape-rendering:auto;text-rendering:auto;enable-background:accumulate"
     x="51.560345"
     y="356.0264"
     id="text948"><tspan
       sodipodi:role="line"
       id="tspan946"
       x="51.560345"
       y="356.0264"
       style="font-style:normal;font-variant:normal;font-weight:normal;font-stretch:normal;font-family:Arimo;-inkscape-font-specification:Arimo">100</tspan></text>
</svg>
