<?xml version="1.0" encoding="UTF-8" standalone="no"?>
<svg
   xmlns:dc="http://purl.org/dc/elements/1.1/"
   xmlns:cc="http://creativecommons.org/ns#"
   xmlns:rdf="http://www.w3.org/1999/02/22-rdf-syntax-ns#"
   xmlns:svg="http://www.w3.org/2000/svg"
   xmlns="http://www.w3.org/2000/svg"
   xmlns:sodipodi="http://sodipodi.sourceforge.net/DTD/sodipodi-0.dtd"
   xmlns:inkscape="http://www.inkscape.org/namespaces/inkscape"
   inkscape:export-ydpi="96"
   inkscape:export-xdpi="96"
   inkscape:export-filename="C:\FG\REPOS\cloud-storage\RestOverheadPaper\images\throughput-to-size.png"
   inkscape:version="1.0 (4035a4fb49, 2020-05-01)"
   sodipodi:docname="throughput-to-size.svg"
   id="svg413"
   height="434"
   width="748"
   stroke-miterlimit="10"
   stroke-linecap="square"
   stroke="none"
   fill="none"
   viewBox="0.0 0.0 748.0 434.0"
   version="1.1">
  <metadata
     id="metadata419">
    <rdf:RDF>
      <cc:Work
         rdf:about="">
        <dc:format>image/svg+xml</dc:format>
        <dc:type
           rdf:resource="http://purl.org/dc/dcmitype/StillImage" />
        <dc:title></dc:title>
      </cc:Work>
    </rdf:RDF>
  </metadata>
  <defs
     id="defs417" />
  <sodipodi:namedview
     inkscape:current-layer="svg413"
     inkscape:window-maximized="1"
     inkscape:window-y="-11"
     inkscape:window-x="-11"
     inkscape:cy="217"
     inkscape:cx="133.23014"
     inkscape:zoom="1.4142136"
     showgrid="false"
     id="namedview415"
     inkscape:window-height="986"
     inkscape:window-width="1920"
     inkscape:pageshadow="2"
     inkscape:pageopacity="0"
     guidetolerance="10"
     gridtolerance="10"
     objecttolerance="10"
     borderopacity="1"
     bordercolor="#666666"
     pagecolor="#ffffff" />
  <path
     id="path288"
     fill-rule="nonzero"
     d="M0 0L748.0 0L748.0 434.0L0 434.0L0 0Z"
     fill="#ffffff" />
  <path
     id="path290"
     fill-rule="nonzero"
     d="M135.5 60.5L135.5 362.5"
     stroke-linecap="butt"
     stroke-width="1.0"
     stroke="#cccccc" />
  <path
     id="path292"
     fill-rule="nonzero"
     d="M301.5 60.5L301.5 362.5"
     stroke-linecap="butt"
     stroke-width="1.0"
     stroke="#cccccc" />
  <path
     id="path294"
     fill-rule="nonzero"
     d="M466.5 60.5L466.5 362.5"
     stroke-linecap="butt"
     stroke-width="1.0"
     stroke="#cccccc" />
  <path
     id="path296"
     fill-rule="nonzero"
     d="M632.5 60.5L632.5 362.5"
     stroke-linecap="butt"
     stroke-width="1.0"
     stroke="#cccccc" />
  <path
     id="path298"
     fill-rule="nonzero"
     d="M45.5 326.5L721.5 326.5"
     stroke-linecap="butt"
     stroke-width="1.0"
     stroke="#cccccc" />
  <path
     id="path300"
     fill-rule="nonzero"
     d="M45.5 273.5L721.5 273.5"
     stroke-linecap="butt"
     stroke-width="1.0"
     stroke="#cccccc" />
  <path
     id="path302"
     fill-rule="nonzero"
     d="M45.5 220.5L721.5 220.5"
     stroke-linecap="butt"
     stroke-width="1.0"
     stroke="#cccccc" />
  <path
     id="path304"
     fill-rule="nonzero"
     d="M45.5 166.5L721.5 166.5"
     stroke-linecap="butt"
     stroke-width="1.0"
     stroke="#cccccc" />
  <path
     id="path306"
     fill-rule="nonzero"
     d="M45.5 113.5L721.5 113.5"
     stroke-linecap="butt"
     stroke-width="1.0"
     stroke="#cccccc" />
  <path
     id="path308"
     fill-rule="nonzero"
     d="M45.5 60.5L721.5 60.5"
     stroke-linecap="butt"
     stroke-width="1.0"
     stroke="#cccccc" />
  <path
     id="path310"
     fill-rule="nonzero"
     d="M45.5 342.5L721.5 342.5"
     stroke-linecap="butt"
     stroke-width="1.0"
     stroke="#e6e6e6" />
  <path
     id="path312"
     fill-rule="nonzero"
     d="M45.5 289.5L721.5 289.5"
     stroke-linecap="butt"
     stroke-width="1.0"
     stroke="#e6e6e6" />
  <path
     id="path314"
     fill-rule="nonzero"
     d="M45.5 236.5L721.5 236.5"
     stroke-linecap="butt"
     stroke-width="1.0"
     stroke="#e6e6e6" />
  <path
     id="path316"
     fill-rule="nonzero"
     d="M45.5 182.5L721.5 182.5"
     stroke-linecap="butt"
     stroke-width="1.0"
     stroke="#e6e6e6" />
  <path
     id="path318"
     fill-rule="nonzero"
     d="M45.5 129.5L721.5 129.5"
     stroke-linecap="butt"
     stroke-width="1.0"
     stroke="#e6e6e6" />
  <path
     id="path320"
     fill-rule="nonzero"
     d="M45.5 76.5L721.5 76.5"
     stroke-linecap="butt"
     stroke-width="1.0"
     stroke="#e6e6e6" />
  <clipPath
     id="id_0">
    <path
       id="path322"
       clip-rule="nonzero"
       d="M45.83907 60.5L721.94464 60.5L721.94464 362.46268L45.83907 362.46268L45.83907 60.5Z" />
  </clipPath>
  <path
     id="path325"
     fill-rule="nonzero"
     d="M52.697063 362.46268C52.697063 362.46268 190.6949 273.09207 218.29446 255.70433C245.89403 238.31659 273.4936 219.6411 301.09317 204.75708C328.69272 189.87308 439.091 136.40616 466.69058 128.04343C494.29013 119.68069 521.8897 118.6984 549.48926 116.22387C577.08887 113.749344 715.0867 110.16863 715.0867 110.16863"
     clip-path="url(#id_0)"
     stroke-linecap="butt"
     stroke-width="2.0"
     stroke="#4285f4" />
  <path
     id="path327"
     fill-rule="nonzero"
     d="M52.697063 242.7467C52.697063 242.7467 190.6949 204.99081 218.29446 187.51222C245.89403 170.03365 273.4936 123.15375 301.09317 110.25797C328.69272 97.362206 439.091 110.01203 466.69058 110.017204C494.29013 110.02238 549.48926 110.16863 549.48926 110.16863"
     clip-path="url(#id_0)"
     stroke-linecap="butt"
     stroke-width="2.0"
     stroke="#db4437" />
  <path
     id="path329"
     fill-rule="nonzero"
     d="M52.697063 217.98964C52.697063 217.98964 190.6949 173.27621 218.29446 160.33008C245.89403 147.38396 273.4936 119.64192 301.09317 111.48309C328.69272 103.32427 466.69058 111.27117 466.69058 111.27117"
     clip-path="url(#id_0)"
     stroke-linecap="butt"
     stroke-width="2.0"
     stroke="#f4b400" />
  <path
     id="path331"
     fill-rule="nonzero"
     d="M52.697063 208.65501C52.697063 208.65501 190.6949 167.76924 218.29446 155.96295C245.89403 144.15665 273.4936 118.90433 301.09317 111.471214C328.69272 104.0381 466.69058 111.257324 466.69058 111.257324"
     clip-path="url(#id_0)"
     stroke-linecap="butt"
     stroke-width="2.0"
     stroke="#0f9d58" />
  <path
     id="path333"
     fill-rule="nonzero"
     d="M52.697063 357.96268L57.197063 362.46268L52.697063 366.96268L48.197063 362.46268Z"
     clip-path="url(#id_0)"
     fill="#4285f4" />
  <path
     id="path335"
     fill-rule="nonzero"
     d="M218.29446 251.20433L222.79446 255.70433L218.29446 260.2043L213.79446 255.70433Z"
     clip-path="url(#id_0)"
     fill="#4285f4" />
  <path
     id="path337"
     fill-rule="nonzero"
     d="M301.09317 200.25708L305.59317 204.75708L301.09317 209.25708L296.59317 204.75708Z"
     clip-path="url(#id_0)"
     fill="#4285f4" />
  <path
     id="path339"
     fill-rule="nonzero"
     d="M466.69058 123.54342L471.19058 128.04343L466.69058 132.54343L462.19058 128.04343Z"
     clip-path="url(#id_0)"
     fill="#4285f4" />
  <path
     id="path341"
     fill-rule="nonzero"
     d="M549.48926 111.72387L553.98926 116.22387L549.48926 120.72387L544.98926 116.22387Z"
     clip-path="url(#id_0)"
     fill="#4285f4" />
  <path
     id="path343"
     fill-rule="nonzero"
     d="M715.0867 105.66863L719.5867 110.16863L715.0867 114.66863L710.5867 110.16863Z"
     clip-path="url(#id_0)"
     fill="#4285f4" />
  <path
     id="path345"
     fill-rule="nonzero"
     d="M52.697063 238.2467L56.594177 244.9967L48.79995 244.9967Z"
     clip-path="url(#id_0)"
     fill="#db4437" />
  <path
     id="path347"
     fill-rule="nonzero"
     d="M218.29446 183.01222L222.19157 189.76222L214.39735 189.76222Z"
     clip-path="url(#id_0)"
     fill="#db4437" />
  <path
     id="path349"
     fill-rule="nonzero"
     d="M301.09317 105.75797L304.9903 112.50797L297.19604 112.50797Z"
     clip-path="url(#id_0)"
     fill="#db4437" />
  <path
     id="path351"
     fill-rule="nonzero"
     d="M466.69058 105.517204L470.58768 112.267204L462.79346 112.267204Z"
     clip-path="url(#id_0)"
     fill="#db4437" />
  <path
     id="path353"
     fill-rule="nonzero"
     d="M549.48926 105.66863L553.3864 112.41863L545.59216 112.41863Z"
     clip-path="url(#id_0)"
     fill="#db4437" />
  <path
     id="path355"
     fill-rule="nonzero"
     d="M49.515083 214.80766L55.879044 214.80766L55.879044 221.17163L49.515083 221.17163Z"
     clip-path="url(#id_0)"
     fill="#f4b400" />
  <path
     id="path357"
     fill-rule="nonzero"
     d="M215.11249 157.1481L221.47644 157.1481L221.47644 163.51207L215.11249 163.51207Z"
     clip-path="url(#id_0)"
     fill="#f4b400" />
  <path
     id="path359"
     fill-rule="nonzero"
     d="M297.9112 108.30112L304.27515 108.30112L304.27515 114.66508L297.9112 114.66508Z"
     clip-path="url(#id_0)"
     fill="#f4b400" />
  <path
     id="path361"
     fill-rule="nonzero"
     d="M463.50858 108.089195L469.87256 108.089195L469.87256 114.453156L463.50858 114.453156Z"
     clip-path="url(#id_0)"
     fill="#f4b400" />
  <path
     id="path363"
     fill-rule="nonzero"
     d="M57.197063 208.65501C57.197063 211.1403 55.182343 213.15501 52.697063 213.15501C50.21178 213.15501 48.197063 211.1403 48.197063 208.65501C48.197063 206.16974 50.21178 204.15501 52.697063 204.15501C55.182343 204.15501 57.197063 206.16974 57.197063 208.65501Z"
     clip-path="url(#id_0)"
     fill="#0f9d58" />
  <path
     id="path365"
     fill-rule="nonzero"
     d="M222.79446 155.96295C222.79446 158.44823 220.77974 160.46295 218.29446 160.46295C215.80919 160.46295 213.79446 158.44823 213.79446 155.96295C213.79446 153.47766 215.80919 151.46295 218.29446 151.46295C220.77974 151.46295 222.79446 153.47766 222.79446 155.96295Z"
     clip-path="url(#id_0)"
     fill="#0f9d58" />
  <path
     id="path367"
     fill-rule="nonzero"
     d="M305.59317 111.471214C305.59317 113.9565 303.57846 115.971214 301.09317 115.971214C298.60788 115.971214 296.59317 113.9565 296.59317 111.471214C296.59317 108.98593 298.60788 106.971214 301.09317 106.971214C303.57846 106.971214 305.59317 108.98593 305.59317 111.471214Z"
     clip-path="url(#id_0)"
     fill="#0f9d58" />
  <path
     id="path369"
     fill-rule="nonzero"
     d="M471.19058 111.257324C471.19058 113.7426 469.17584 115.757324 466.69058 115.757324C464.2053 115.757324 462.19058 113.7426 462.19058 111.257324C462.19058 108.77204 464.2053 106.757324 466.69058 106.757324C469.17584 106.757324 471.19058 108.77204 471.19058 111.257324Z"
     clip-path="url(#id_0)"
     fill="#0f9d58" />
  <path
     id="path371"
     fill-rule="nonzero"
     d="M358.39188 378.85867L358.39188 381.60867L358.17313 381.60867Q358.07938 380.8118 357.79813 380.34305Q357.5325 379.8743 357.01688 379.60867Q356.51688 379.32742 355.98563 379.32742Q355.37625 379.32742 354.97 379.70242Q354.57938 380.0618 354.57938 380.54617Q354.57938 380.90555 354.82938 381.20242Q355.18875 381.63992 356.54813 382.3743Q357.67313 382.96805 358.07938 383.29617Q358.48563 383.60867 358.70438 384.04617Q358.92313 384.48367 358.92313 384.95242Q358.92313 385.85867 358.22 386.51492Q357.51688 387.17117 356.42313 387.17117Q356.07938 387.17117 355.76688 387.10867Q355.595 387.07742 355.01688 386.90555Q354.43875 386.71805 354.29813 386.71805Q354.14188 386.71805 354.04813 386.8118Q353.97 386.88992 353.93875 387.17117L353.72 387.17117L353.72 384.4368L353.93875 384.4368Q354.095 385.29617 354.345 385.71805Q354.61063 386.13992 355.12625 386.42117Q355.6575 386.70242 356.29813 386.70242Q357.0325 386.70242 357.45438 386.32742Q357.87625 385.9368 357.87625 385.40555Q357.87625 385.10867 357.72 384.8118Q357.56375 384.51492 357.22 384.26492Q356.98563 384.07742 355.97 383.51492Q354.95438 382.9368 354.51688 382.60867Q354.095 382.26492 353.86063 381.85867Q353.64188 381.4368 353.64188 380.95242Q353.64188 380.09305 354.29813 379.48367Q354.95438 378.85867 355.97 378.85867Q356.595 378.85867 357.31375 379.17117Q357.64188 379.3118 357.76688 379.3118Q357.92313 379.3118 358.01688 379.21805Q358.12625 379.1243 358.17313 378.85867L358.39188 378.85867ZM361.62625 378.65555Q361.87625 378.65555 362.04813 378.82742Q362.22 378.9993 362.22 379.2493Q362.22 379.48367 362.04813 379.67117Q361.87625 379.84305 361.62625 379.84305Q361.39188 379.84305 361.20438 379.67117Q361.0325 379.48367 361.0325 379.2493Q361.0325 378.9993 361.20438 378.82742Q361.37625 378.65555 361.62625 378.65555ZM362.12625 381.45242L362.12625 385.76492Q362.12625 386.28055 362.18875 386.45242Q362.26688 386.60867 362.4075 386.6868Q362.54813 386.76492 362.93875 386.76492L362.93875 386.98367L360.32938 386.98367L360.32938 386.76492Q360.72 386.76492 360.845 386.70242Q360.98563 386.6243 361.06375 386.45242Q361.14188 386.26492 361.14188 385.76492L361.14188 383.70242Q361.14188 382.82742 361.095 382.57742Q361.04813 382.38992 360.95438 382.3118Q360.87625 382.23367 360.72 382.23367Q360.56375 382.23367 360.32938 382.32742L360.25125 382.10867L361.86063 381.45242L362.12625 381.45242ZM367.93875 385.34305L367.86063 386.98367L363.12625 386.98367L363.12625 386.76492L366.68875 382.03055L364.93875 382.03055Q364.37625 382.03055 364.18875 382.10867Q364.01688 382.17117 363.9075 382.3743Q363.75125 382.67117 363.72 383.10867L363.48563 383.10867L363.5325 381.60867L368.0325 381.60867L368.0325 381.82742L364.42313 386.59305L366.39188 386.59305Q367.00125 386.59305 367.22 386.4993Q367.43875 386.38992 367.57938 386.1243Q367.67313 385.9368 367.73563 385.34305L367.93875 385.34305ZM369.17313 383.63992Q369.1575 384.82742 369.75125 385.51492Q370.32938 386.1868 371.12625 386.1868Q371.6575 386.1868 372.04813 385.90555Q372.43875 385.60867 372.70438 384.90555L372.87625 385.03055Q372.75125 385.82742 372.1575 386.4993Q371.57938 387.15555 370.68875 387.15555Q369.72 387.15555 369.0325 386.40555Q368.345 385.63992 368.345 384.3743Q368.345 382.9993 369.04813 382.23367Q369.75125 381.45242 370.81375 381.45242Q371.72 381.45242 372.29813 382.04617Q372.87625 382.63992 372.87625 383.63992L369.17313 383.63992ZM369.17313 383.29617L371.6575 383.29617Q371.62625 382.78055 371.5325 382.57742Q371.39188 382.2493 371.095 382.0618Q370.79813 381.8743 370.48563 381.8743Q370.00125 381.8743 369.61063 382.2493Q369.23563 382.6243 369.17313 383.29617ZM377.62625 378.65555Q377.87625 378.65555 378.04813 378.82742Q378.22 378.9993 378.22 379.2493Q378.22 379.48367 378.04813 379.67117Q377.87625 379.84305 377.62625 379.84305Q377.39188 379.84305 377.20438 379.67117Q377.0325 379.48367 377.0325 379.2493Q377.0325 378.9993 377.20438 378.82742Q377.37625 378.65555 377.62625 378.65555ZM378.12625 381.45242L378.12625 385.76492Q378.12625 386.28055 378.18875 386.45242Q378.26688 386.60867 378.4075 386.6868Q378.54813 386.76492 378.93875 386.76492L378.93875 386.98367L376.32938 386.98367L376.32938 386.76492Q376.72 386.76492 376.845 386.70242Q376.98563 386.6243 377.06375 386.45242Q377.14188 386.26492 377.14188 385.76492L377.14188 383.70242Q377.14188 382.82742 377.095 382.57742Q377.04813 382.38992 376.95438 382.3118Q376.87625 382.23367 376.72 382.23367Q376.56375 382.23367 376.32938 382.32742L376.25125 382.10867L377.86063 381.45242L378.12625 381.45242ZM380.82938 382.59305Q381.7825 381.45242 382.62625 381.45242Q383.06375 381.45242 383.37625 381.67117Q383.70438 381.88992 383.89188 382.40555Q384.01688 382.7493 384.01688 383.48367L384.01688 385.76492Q384.01688 386.28055 384.095 386.46805Q384.17313 386.60867 384.31375 386.6868Q384.45438 386.76492 384.845 386.76492L384.845 386.98367L382.18875 386.98367L382.18875 386.76492L382.29813 386.76492Q382.67313 386.76492 382.81375 386.65555Q382.97 386.54617 383.0325 386.32742Q383.04813 386.23367 383.04813 385.76492L383.04813 383.57742Q383.04813 382.84305 382.86063 382.51492Q382.67313 382.17117 382.22 382.17117Q381.51688 382.17117 380.82938 382.9368L380.82938 385.76492Q380.82938 386.3118 380.89188 386.4368Q380.98563 386.60867 381.12625 386.6868Q381.26688 386.76492 381.70438 386.76492L381.70438 386.98367L379.04813 386.98367L379.04813 386.76492L379.17313 386.76492Q379.57938 386.76492 379.72 386.5618Q379.86063 386.35867 379.86063 385.76492L379.86063 383.78055Q379.86063 382.8118 379.81375 382.60867Q379.7825 382.38992 379.68875 382.3118Q379.595 382.23367 379.43875 382.23367Q379.2825 382.23367 379.04813 382.32742L378.97 382.10867L380.57938 381.45242L380.82938 381.45242L380.82938 382.59305ZM393.43875 382.92117Q394.26688 383.10867 394.67313 383.48367Q395.23563 384.03055 395.23563 384.8118Q395.23563 385.40555 394.86063 385.95242Q394.48563 386.48367 393.82938 386.73367Q393.18875 386.98367 391.845 386.98367L388.095 386.98367L388.095 386.76492L388.39188 386.76492Q388.89188 386.76492 389.11063 386.45242Q389.23563 386.2493 389.23563 385.57742L389.23563 380.4368Q389.23563 379.70242 389.06375 379.51492Q388.845 379.2493 388.39188 379.2493L388.095 379.2493L388.095 379.03055L391.5325 379.03055Q392.48563 379.03055 393.06375 379.17117Q393.93875 379.38992 394.4075 379.9368Q394.87625 380.46805 394.87625 381.15555Q394.87625 381.7493 394.50125 382.23367Q394.14188 382.70242 393.43875 382.92117ZM390.36063 382.60867Q390.57938 382.65555 390.86063 382.67117Q391.14188 382.6868 391.47 382.6868Q392.32938 382.6868 392.75125 382.51492Q393.18875 382.32742 393.4075 381.95242Q393.64188 381.5618 393.64188 381.10867Q393.64188 380.42117 393.07938 379.9368Q392.51688 379.4368 391.42313 379.4368Q390.82938 379.4368 390.36063 379.5618L390.36063 382.60867ZM390.36063 386.40555Q391.04813 386.5618 391.70438 386.5618Q392.76688 386.5618 393.31375 386.09305Q393.87625 385.60867 393.87625 384.90555Q393.87625 384.45242 393.62625 384.03055Q393.37625 383.59305 392.79813 383.34305Q392.23563 383.09305 391.4075 383.09305Q391.0325 383.09305 390.76688 383.10867Q390.51688 383.1243 390.36063 383.15555L390.36063 386.40555ZM395.97 381.60867L398.47 381.60867L398.47 381.82742L398.345 381.82742Q398.07938 381.82742 397.93875 381.95242Q397.81375 382.0618 397.81375 382.23367Q397.81375 382.45242 398.00125 382.85867L399.31375 385.57742L400.51688 382.60867Q400.61063 382.35867 400.61063 382.1243Q400.61063 382.03055 400.57938 381.96805Q400.5325 381.90555 400.42313 381.8743Q400.32938 381.82742 400.07938 381.82742L400.07938 381.60867L401.82938 381.60867L401.82938 381.82742Q401.61063 381.85867 401.48563 381.9368Q401.37625 381.9993 401.23563 382.1868Q401.17313 382.26492 401.0325 382.63992L398.845 387.9993Q398.5325 388.78055 398.01688 389.17117Q397.50125 389.57742 397.0325 389.57742Q396.68875 389.57742 396.45438 389.3743Q396.23563 389.17117 396.23563 388.92117Q396.23563 388.67117 396.39188 388.51492Q396.56375 388.3743 396.845 388.3743Q397.0325 388.3743 397.37625 388.4993Q397.61063 388.59305 397.6575 388.59305Q397.845 388.59305 398.04813 388.40555Q398.25125 388.23367 398.47 387.70242L398.845 386.76492L396.92313 382.71805Q396.82938 382.54617 396.64188 382.26492Q396.48563 382.0618 396.39188 381.9993Q396.26688 381.90555 395.97 381.82742L395.97 381.60867ZM403.82938 379.85867L403.82938 381.60867L405.07938 381.60867L405.07938 382.03055L403.82938 382.03055L403.82938 385.4993Q403.82938 386.03055 403.97 386.21805Q404.12625 386.38992 404.36063 386.38992Q404.54813 386.38992 404.73563 386.28055Q404.92313 386.15555 405.01688 385.92117L405.25125 385.92117Q405.0325 386.48367 404.6575 386.78055Q404.2825 387.07742 403.89188 387.07742Q403.62625 387.07742 403.36063 386.92117Q403.11063 386.76492 402.98563 386.4993Q402.86063 386.21805 402.86063 385.63992L402.86063 382.03055L402.01688 382.03055L402.01688 381.82742Q402.32938 381.70242 402.6575 381.40555Q403.00125 381.09305 403.26688 380.67117Q403.4075 380.4368 403.64188 379.85867L403.82938 379.85867ZM406.17313 383.63992Q406.1575 384.82742 406.75125 385.51492Q407.32938 386.1868 408.12625 386.1868Q408.6575 386.1868 409.04813 385.90555Q409.43875 385.60867 409.70438 384.90555L409.87625 385.03055Q409.75125 385.82742 409.1575 386.4993Q408.57938 387.15555 407.68875 387.15555Q406.72 387.15555 406.0325 386.40555Q405.345 385.63992 405.345 384.3743Q405.345 382.9993 406.04813 382.23367Q406.75125 381.45242 407.81375 381.45242Q408.72 381.45242 409.29813 382.04617Q409.87625 382.63992 409.87625 383.63992L406.17313 383.63992ZM406.17313 383.29617L408.6575 383.29617Q408.62625 382.78055 408.5325 382.57742Q408.39188 382.2493 408.095 382.0618Q407.79813 381.8743 407.48563 381.8743Q407.00125 381.8743 406.61063 382.2493Q406.23563 382.6243 406.17313 383.29617ZM413.73563 381.45242L413.73563 383.28055L413.54813 383.28055Q413.31375 382.42117 412.97 382.10867Q412.62625 381.79617 412.07938 381.79617Q411.67313 381.79617 411.42313 382.01492Q411.17313 382.23367 411.17313 382.4993Q411.17313 382.82742 411.36063 383.0618Q411.5325 383.29617 412.095 383.57742L412.95438 383.98367Q414.14188 384.5618 414.14188 385.51492Q414.14188 386.2493 413.57938 386.70242Q413.0325 387.15555 412.345 387.15555Q411.86063 387.15555 411.22 386.96805Q411.0325 386.90555 410.9075 386.90555Q410.76688 386.90555 410.68875 387.0618L410.50125 387.0618L410.50125 385.15555L410.68875 385.15555Q410.86063 385.96805 411.31375 386.38992Q411.7825 386.79617 412.36063 386.79617Q412.76688 386.79617 413.01688 386.5618Q413.26688 386.32742 413.26688 385.9993Q413.26688 385.59305 412.98563 385.3118Q412.70438 385.03055 411.845 384.60867Q411.00125 384.1868 410.73563 383.85867Q410.48563 383.51492 410.48563 383.01492Q410.48563 382.34305 410.93875 381.90555Q411.39188 381.45242 412.11063 381.45242Q412.42313 381.45242 412.87625 381.59305Q413.17313 381.6868 413.26688 381.6868Q413.36063 381.6868 413.4075 381.63992Q413.47 381.59305 413.54813 381.45242L413.73563 381.45242Z"
     fill="#424242" />
  <path
     id="path373"
     fill-rule="nonzero"
     d="M10.369713 267.89407L12.244713 267.80032L12.244713 268.01907Q11.744713 268.08157 11.541588 268.19095Q11.197838 268.37845 11.041588 268.69095Q10.869713 268.98782 10.869713 269.4722L10.869713 270.5972L16.947838 270.5972Q17.682213 270.5972 17.854088 270.44095Q18.104088 270.20657 18.104088 269.75345L18.104088 269.4722L18.322838 269.4722L18.322838 272.8472L18.104088 272.8472L18.104088 272.56595Q18.104088 272.06595 17.807213 271.8472Q17.619713 271.7222 16.947838 271.7222L10.869713 271.7222L10.869713 272.67532Q10.869713 273.23782 10.963463 273.4722Q11.072838 273.76907 11.385338 273.98782Q11.697838 274.20657 12.244713 274.23782L12.244713 274.4722L10.369713 274.37845L10.369713 267.89407ZM9.994713 265.87845L13.916588 265.87845Q13.197838 265.2222 12.994713 264.8472Q12.791588 264.4722 12.791588 264.08157Q12.791588 263.62845 13.057213 263.30032Q13.307213 262.9722 13.838463 262.81595Q14.213463 262.70657 15.213463 262.70657L17.104088 262.70657Q17.619713 262.70657 17.807213 262.62845Q17.947838 262.56595 18.025963 262.42532Q18.104088 262.2847 18.104088 261.9097L18.322838 261.9097L18.322838 264.55032L18.104088 264.55032L18.104088 264.42532Q18.104088 264.05032 17.994713 263.9097Q17.885338 263.75345 17.666588 263.69095Q17.572838 263.67532 17.104088 263.67532L15.213463 263.67532Q14.338463 263.67532 14.057213 263.76907Q13.775963 263.86282 13.650963 264.06595Q13.510338 264.25345 13.510338 264.5347Q13.510338 264.83157 13.666588 265.14407Q13.807213 265.44095 14.275963 265.87845L17.104088 265.87845Q17.666588 265.87845 17.807213 265.81595Q17.932213 265.75345 18.025963 265.5972Q18.104088 265.42532 18.104088 265.01907L18.322838 265.01907L18.322838 267.67532L18.104088 267.67532Q18.104088 267.31595 17.994713 267.11282Q17.947838 266.98782 17.791588 266.92532Q17.619713 266.8472 17.104088 266.8472L12.244713 266.8472Q11.338463 266.8472 11.135338 266.89407Q10.916588 266.94095 10.838463 267.0347Q10.760338 267.12845 10.760338 267.26907Q10.760338 267.39407 10.854088 267.67532L10.650963 267.75345L9.994713 266.14407L9.994713 265.87845ZM12.791588 259.87845L14.010338 259.87845Q12.791588 259.20657 12.791588 258.50345Q12.791588 258.17532 12.994713 257.9722Q13.182213 257.75345 13.447838 257.75345Q13.682213 257.75345 13.838463 257.9097Q13.994713 258.06595 13.994713 258.26907Q13.994713 258.4722 13.791588 258.73782Q13.588463 258.98782 13.588463 259.11282Q13.588463 259.2222 13.697838 259.3472Q13.947838 259.5972 14.494713 259.87845L17.072838 259.87845Q17.510338 259.87845 17.744713 259.76907Q17.900963 259.69095 18.010338 259.50345Q18.104088 259.31595 18.104088 258.94095L18.322838 258.94095L18.322838 261.69095L18.104088 261.69095Q18.104088 261.2847 17.979088 261.08157Q17.885338 260.94095 17.682213 260.87845Q17.588463 260.8472 17.119713 260.8472L15.041588 260.8472Q14.104088 260.8472 13.932213 260.89407Q13.744713 260.92532 13.666588 261.0347Q13.572838 261.12845 13.572838 261.2847Q13.572838 261.4722 13.666588 261.69095L13.447838 261.75345L12.791588 260.12845L12.791588 259.87845ZM12.791588 254.83157Q12.791588 253.61282 13.729088 252.87845Q14.510338 252.25345 15.541588 252.25345Q16.260338 252.25345 16.994713 252.5972Q17.729088 252.94095 18.119713 253.55032Q18.494713 254.14407 18.494713 254.89407Q18.494713 256.11282 17.525963 256.81595Q16.697838 257.42532 15.697838 257.42532Q14.947838 257.42532 14.229088 257.06595Q13.494713 256.69095 13.150963 256.0972Q12.791588 255.50345 12.791588 254.83157ZM13.182213 255.01907Q13.182213 255.31595 13.369713 255.64407Q13.541588 255.95657 14.010338 256.14407Q14.479088 256.33157 15.197838 256.33157Q16.369713 256.33157 17.229088 255.87845Q18.072838 255.4097 18.072838 254.64407Q18.072838 254.08157 17.604088 253.70657Q17.135338 253.33157 15.994713 253.33157Q14.557213 253.33157 13.744713 253.95657Q13.182213 254.36282 13.182213 255.01907ZM12.947838 246.75345L16.213463 246.75345Q17.135338 246.75345 17.354088 246.70657Q17.557213 246.6597 17.635338 246.56595Q17.713463 246.4722 17.713463 246.3472Q17.713463 246.1597 17.619713 245.92532L17.822838 245.8472L18.494713 247.45657L18.494713 247.7222L17.354088 247.7222Q18.104088 248.4097 18.307213 248.76907Q18.494713 249.12845 18.494713 249.5347Q18.494713 249.98782 18.229088 250.33157Q17.963463 250.6597 17.557213 250.7847Q17.150963 250.9097 16.400963 250.9097L13.994713 250.9097Q13.619713 250.9097 13.479088 251.00345Q13.322838 251.08157 13.244713 251.23782Q13.166588 251.39407 13.166588 251.81595L12.947838 251.81595L12.947838 249.94095L16.541588 249.94095Q17.291588 249.94095 17.525963 249.67532Q17.760338 249.4097 17.760338 249.05032Q17.760338 248.80032 17.604088 248.48782Q17.447838 248.1597 17.010338 247.7222L13.963463 247.7222Q13.510338 247.7222 13.354088 247.89407Q13.182213 248.05032 13.166588 248.58157L12.947838 248.58157L12.947838 246.75345ZM16.369713 244.01907Q16.119713 244.51907 15.697838 244.7847Q15.260338 245.0347 14.744713 245.0347Q13.947838 245.0347 13.369713 244.44095Q12.791588 243.83157 12.791588 242.89407Q12.791588 242.12845 13.166588 241.56595L13.166588 240.44095Q13.166588 240.17532 13.182213 240.14407Q13.197838 240.0972 13.229088 240.08157Q13.291588 240.05032 13.416588 240.05032Q13.572838 240.05032 13.635338 240.08157Q13.666588 240.0972 13.682213 240.14407Q13.697838 240.17532 13.697838 240.44095L13.697838 241.12845Q14.119713 240.80032 14.775963 240.80032Q15.525963 240.80032 16.057213 241.37845Q16.588463 241.95657 16.588463 242.92532Q16.588463 243.31595 16.479088 243.73782Q16.697838 243.98782 16.869713 244.08157Q17.025963 244.17532 17.150963 244.17532Q17.244713 244.17532 17.338463 244.08157Q17.432213 243.9722 17.479088 243.69095Q17.494713 243.5347 17.525963 242.87845Q17.541588 241.67532 17.604088 241.31595Q17.682213 240.76907 18.010338 240.44095Q18.338463 240.11282 18.822838 240.11282Q19.479088 240.11282 20.057213 240.73782Q20.916588 241.6597 20.916588 243.12845Q20.916588 244.25345 20.400963 245.0347Q20.104088 245.4722 19.791588 245.4722Q19.650963 245.4722 19.510338 245.4097Q19.291588 245.31595 18.916588 245.00345Q18.854088 244.95657 18.275963 244.39407Q18.088463 244.70657 17.947838 244.83157Q17.807213 244.95657 17.619713 244.95657Q17.416588 244.95657 17.150963 244.80032Q16.869713 244.62845 16.369713 244.01907ZM13.072838 243.00345Q13.072838 243.44095 13.432213 243.73782Q13.775963 244.01907 14.479088 244.01907Q15.416588 244.01907 15.916588 243.62845Q16.307213 243.31595 16.307213 242.8472Q16.307213 242.4097 15.979088 242.12845Q15.635338 241.83157 14.916588 241.83157Q13.994713 241.83157 13.463463 242.23782Q13.072838 242.5347 13.072838 243.00345ZM18.322838 244.08157Q18.619713 244.3472 18.869713 244.48782Q19.135338 244.62845 19.354088 244.62845Q19.635338 244.62845 19.854088 244.30032Q20.213463 243.70657 20.213463 242.5972Q20.213463 241.55032 19.838463 241.05032Q19.463463 240.55032 19.041588 240.55032Q18.744713 240.55032 18.604088 240.8472Q18.479088 241.14407 18.463463 242.05032Q18.416588 243.36282 18.322838 244.08157ZM9.994713 237.87845L13.916588 237.87845Q13.197838 237.2222 12.994713 236.8472Q12.791588 236.4722 12.791588 236.08157Q12.791588 235.62845 13.057213 235.30032Q13.307213 234.9722 13.838463 234.81595Q14.213463 234.70657 15.213463 234.70657L17.104088 234.70657Q17.619713 234.70657 17.807213 234.62845Q17.947838 234.56595 18.025963 234.42532Q18.104088 234.2847 18.104088 233.9097L18.322838 233.9097L18.322838 236.55032L18.104088 236.55032L18.104088 236.42532Q18.104088 236.05032 17.994713 235.9097Q17.885338 235.75345 17.666588 235.69095Q17.572838 235.67532 17.104088 235.67532L15.213463 235.67532Q14.338463 235.67532 14.057213 235.76907Q13.775963 235.86282 13.650963 236.06595Q13.510338 236.25345 13.510338 236.5347Q13.510338 236.83157 13.666588 237.14407Q13.807213 237.44095 14.275963 237.87845L17.104088 237.87845Q17.666588 237.87845 17.807213 237.81595Q17.932213 237.75345 18.025963 237.5972Q18.104088 237.42532 18.104088 237.01907L18.322838 237.01907L18.322838 239.67532L18.104088 239.67532Q18.104088 239.31595 17.994713 239.11282Q17.947838 238.98782 17.791588 238.92532Q17.619713 238.8472 17.104088 238.8472L12.244713 238.8472Q11.338463 238.8472 11.135338 238.89407Q10.916588 238.94095 10.838463 239.0347Q10.760338 239.12845 10.760338 239.26907Q10.760338 239.39407 10.854088 239.67532L10.650963 239.75345L9.994713 238.14407L9.994713 237.87845ZM13.494713 233.8472L12.822838 232.19095L12.822838 231.9722L14.072838 231.9722Q13.369713 231.55032 13.088463 231.12845Q12.791588 230.70657 12.791588 230.25345Q12.791588 229.44095 13.432213 228.9097Q14.197838 228.23782 15.447838 228.23782Q16.838463 228.23782 17.744713 229.0347Q18.494713 229.69095 18.494713 230.69095Q18.494713 231.12845 18.369713 231.44095Q18.275963 231.67532 18.010338 231.9722L19.650963 231.9722Q20.197838 231.9722 20.338463 231.9097Q20.494713 231.83157 20.572838 231.67532Q20.666588 231.50345 20.666588 231.06595L20.885338 231.06595L20.885338 233.87845L20.666588 233.87845L20.666588 233.7222Q20.682213 233.4097 20.557213 233.17532Q20.479088 233.06595 20.338463 233.00345Q20.197838 232.94095 19.619713 232.94095L14.541588 232.94095Q14.010338 232.94095 13.869713 232.98782Q13.729088 233.0347 13.666588 233.14407Q13.588463 233.23782 13.588463 233.4097Q13.588463 233.55032 13.682213 233.76907L13.494713 233.8472ZM14.416588 231.9722L16.416588 231.9722Q17.072838 231.9722 17.275963 231.9097Q17.619713 231.83157 17.885338 231.51907Q18.135338 231.19095 18.135338 230.70657Q18.135338 230.12845 17.682213 229.75345Q17.072838 229.2847 15.994713 229.2847Q14.760338 229.2847 14.104088 229.81595Q13.650963 230.19095 13.650963 230.70657Q13.650963 230.98782 13.791588 231.26907Q13.885338 231.48782 14.416588 231.9722ZM12.947838 222.75345L16.213463 222.75345Q17.135338 222.75345 17.354088 222.70657Q17.557213 222.6597 17.635338 222.56595Q17.713463 222.4722 17.713463 222.3472Q17.713463 222.1597 17.619713 221.92532L17.822838 221.8472L18.494713 223.45657L18.494713 223.7222L17.354088 223.7222Q18.104088 224.4097 18.307213 224.76907Q18.494713 225.12845 18.494713 225.5347Q18.494713 225.98782 18.229088 226.33157Q17.963463 226.6597 17.557213 226.7847Q17.150963 226.9097 16.400963 226.9097L13.994713 226.9097Q13.619713 226.9097 13.479088 227.00345Q13.322838 227.08157 13.244713 227.23782Q13.166588 227.39407 13.166588 227.81595L12.947838 227.81595L12.947838 225.94095L16.541588 225.94095Q17.291588 225.94095 17.525963 225.67532Q17.760338 225.4097 17.760338 225.05032Q17.760338 224.80032 17.604088 224.48782Q17.447838 224.1597 17.010338 223.7222L13.963463 223.7222Q13.510338 223.7222 13.354088 223.89407Q13.182213 224.05032 13.166588 224.58157L12.947838 224.58157L12.947838 222.75345ZM11.197838 219.89407L12.947838 219.89407L12.947838 218.64407L13.369713 218.64407L13.369713 219.89407L16.838463 219.89407Q17.369713 219.89407 17.557213 219.75345Q17.729088 219.5972 17.729088 219.36282Q17.729088 219.17532 17.619713 218.98782Q17.494713 218.80032 17.260338 218.70657L17.260338 218.4722Q17.822838 218.69095 18.119713 219.06595Q18.416588 219.44095 18.416588 219.83157Q18.416588 220.0972 18.260338 220.36282Q18.104088 220.61282 17.838463 220.73782Q17.557213 220.86282 16.979088 220.86282L13.369713 220.86282L13.369713 221.70657L13.166588 221.70657Q13.041588 221.39407 12.744713 221.06595Q12.432213 220.7222 12.010338 220.45657Q11.775963 220.31595 11.197838 220.08157L11.197838 219.89407ZM13.916588 212.23782L16.822838 209.31595Q17.541588 208.5972 17.807213 208.0972Q18.072838 207.58157 18.104088 207.06595L18.322838 207.06595L18.322838 210.8472L18.104088 210.8472Q18.104088 210.50345 17.994713 210.36282Q17.869713 210.20657 17.729088 210.20657Q17.588463 210.20657 17.479088 210.26907Q17.369713 210.31595 17.072838 210.62845L14.354088 213.36282L16.916588 213.36282Q17.525963 213.36282 17.713463 213.30032Q17.854088 213.23782 17.963463 213.05032Q18.104088 212.80032 18.104088 212.51907L18.104088 212.23782L18.322838 212.23782L18.322838 215.62845L18.104088 215.62845L18.104088 215.3472Q18.104088 214.86282 17.822838 214.62845Q17.635338 214.48782 16.916588 214.48782L11.775963 214.48782Q11.182213 214.48782 10.979088 214.56595Q10.838463 214.62845 10.729088 214.81595Q10.588463 215.06595 10.588463 215.3472L10.588463 215.62845L10.369713 215.62845L10.369713 212.23782L10.588463 212.23782L10.588463 212.51907Q10.588463 212.7847 10.729088 213.05032Q10.822838 213.2222 11.010338 213.30032Q11.197838 213.36282 11.775963 213.36282L14.213463 213.36282Q14.104088 213.25345 13.463463 212.56595Q11.869713 210.83157 11.338463 210.45657Q11.104088 210.30032 10.932213 210.30032Q10.791588 210.30032 10.697838 210.42532Q10.588463 210.55032 10.588463 210.8472L10.588463 211.01907L10.369713 211.01907L10.369713 208.11282L10.588463 208.11282Q10.604088 208.36282 10.666588 208.58157Q10.729088 208.7847 10.916588 209.0972Q11.104088 209.39407 11.510338 209.8472Q11.619713 209.9722 12.713463 211.0347L13.916588 212.23782ZM14.260338 201.2847Q14.447838 200.45657 14.822838 200.05032Q15.369713 199.48782 16.150963 199.48782Q16.744713 199.48782 17.291588 199.86282Q17.822838 200.23782 18.072838 200.89407Q18.322838 201.5347 18.322838 202.87845L18.322838 206.62845L18.104088 206.62845L18.104088 206.33157Q18.104088 205.83157 17.791588 205.61282Q17.588463 205.48782 16.916588 205.48782L11.775963 205.48782Q11.041588 205.48782 10.854088 205.6597Q10.588463 205.87845 10.588463 206.33157L10.588463 206.62845L10.369713 206.62845L10.369713 203.19095Q10.369713 202.23782 10.510338 201.6597Q10.729088 200.7847 11.275963 200.31595Q11.807213 199.8472 12.494713 199.8472Q13.088463 199.8472 13.572838 200.2222Q14.041588 200.58157 14.260338 201.2847ZM13.947838 204.36282Q13.994713 204.14407 14.010338 203.86282Q14.025963 203.58157 14.025963 203.25345Q14.025963 202.39407 13.854088 201.9722Q13.666588 201.5347 13.291588 201.31595Q12.900963 201.08157 12.447838 201.08157Q11.760338 201.08157 11.275963 201.64407Q10.775963 202.20657 10.775963 203.30032Q10.775963 203.89407 10.900963 204.36282L13.947838 204.36282ZM17.744713 204.36282Q17.900963 203.67532 17.900963 203.01907Q17.900963 201.95657 17.432213 201.4097Q16.947838 200.8472 16.244713 200.8472Q15.791588 200.8472 15.369713 201.0972Q14.932213 201.3472 14.682213 201.92532Q14.432213 202.48782 14.432213 203.31595Q14.432213 203.69095 14.447838 203.95657Q14.463463 204.20657 14.494713 204.36282L17.744713 204.36282ZM9.994713 195.4722L18.494713 198.3472L18.494713 198.81595L9.994713 195.94095L9.994713 195.4722ZM12.791588 191.98782L14.619713 191.98782L14.619713 192.17532Q13.760338 192.4097 13.447838 192.75345Q13.135338 193.0972 13.135338 193.64407Q13.135338 194.05032 13.354088 194.30032Q13.572838 194.55032 13.838463 194.55032Q14.166588 194.55032 14.400963 194.36282Q14.635338 194.19095 14.916588 193.62845L15.322838 192.76907Q15.900963 191.58157 16.854088 191.58157Q17.588463 191.58157 18.041588 192.14407Q18.494713 192.69095 18.494713 193.37845Q18.494713 193.86282 18.307213 194.50345Q18.244713 194.69095 18.244713 194.81595Q18.244713 194.95657 18.400963 195.0347L18.400963 195.2222L16.494713 195.2222L16.494713 195.0347Q17.307213 194.86282 17.729088 194.4097Q18.135338 193.94095 18.135338 193.36282Q18.135338 192.95657 17.900963 192.70657Q17.666588 192.45657 17.338463 192.45657Q16.932213 192.45657 16.650963 192.73782Q16.369713 193.01907 15.947838 193.87845Q15.525963 194.7222 15.197838 194.98782Q14.854088 195.23782 14.354088 195.23782Q13.682213 195.23782 13.244713 194.7847Q12.791588 194.33157 12.791588 193.61282Q12.791588 193.30032 12.932213 192.8472Q13.025963 192.55032 13.025963 192.45657Q13.025963 192.36282 12.979088 192.31595Q12.932213 192.25345 12.791588 192.17532L12.791588 191.98782ZM14.979088 189.55032Q16.166588 189.56595 16.854088 188.9722Q17.525963 188.39407 17.525963 187.5972Q17.525963 187.06595 17.244713 186.67532Q16.947838 186.2847 16.244713 186.01907L16.369713 185.8472Q17.166588 185.9722 17.838463 186.56595Q18.494713 187.14407 18.494713 188.0347Q18.494713 189.00345 17.744713 189.69095Q16.979088 190.37845 15.713463 190.37845Q14.338463 190.37845 13.572838 189.67532Q12.791588 188.9722 12.791588 187.9097Q12.791588 187.00345 13.385338 186.42532Q13.979088 185.8472 14.979088 185.8472L14.979088 189.55032ZM14.635338 189.55032L14.635338 187.06595Q14.119713 187.0972 13.916588 187.19095Q13.588463 187.33157 13.400963 187.62845Q13.213463 187.92532 13.213463 188.23782Q13.213463 188.7222 13.588463 189.11282Q13.963463 189.48782 14.635338 189.55032ZM16.275963 180.89407Q17.338463 181.11282 17.916588 181.75345Q18.494713 182.37845 18.494713 183.14407Q18.494713 184.06595 17.729088 184.75345Q16.947838 185.42532 15.650963 185.42532Q14.385338 185.42532 13.588463 184.67532Q12.791588 183.9097 12.791588 182.86282Q12.791588 182.06595 13.213463 181.56595Q13.635338 181.05032 14.088463 181.05032Q14.307213 181.05032 14.447838 181.19095Q14.588463 181.33157 14.588463 181.5972Q14.588463 181.94095 14.354088 182.11282Q14.244713 182.2222 13.900963 182.25345Q13.541588 182.2847 13.369713 182.48782Q13.182213 182.69095 13.182213 183.05032Q13.182213 183.64407 13.619713 184.00345Q14.197838 184.4722 15.135338 184.4722Q16.104088 184.4722 16.838463 184.00345Q17.572838 183.5347 17.572838 182.7222Q17.572838 182.14407 17.182213 181.69095Q16.916588 181.37845 16.197838 181.06595L16.275963 180.89407Z"
     fill="#000000" />
  <path
     id="path375"
     fill-rule="nonzero"
     d="M33.49532 331.16183L32.62032 331.16183L32.62032 324.44308Q32.323444 324.78683 31.823444 325.16183Q31.323444 325.5212 30.90157 325.7087L30.90157 324.69308Q31.604694 324.28683 32.15157 323.69308Q32.698444 323.09933 32.93282 322.53683L33.49532 322.53683L33.49532 331.16183ZM35.229694 326.92746Q35.229694 324.75558 35.80782 323.6462Q36.40157 322.53683 37.542194 322.53683Q38.542194 322.53683 39.12032 323.44308Q39.823444 324.5212 39.823444 326.92746Q39.823444 329.06808 39.24532 330.19308Q38.667194 331.30246 37.52657 331.30246Q36.510944 331.30246 35.87032 330.31808Q35.229694 329.3337 35.229694 326.92746ZM36.12032 326.92746Q36.12032 329.0212 36.510944 329.73996Q36.917194 330.44308 37.542194 330.44308Q38.135944 330.44308 38.52657 329.72433Q38.93282 329.00558 38.93282 326.92746Q38.93282 324.8337 38.52657 324.13058Q38.135944 323.41183 37.49532 323.41183Q36.90157 323.41183 36.510944 324.13058Q36.12032 324.84933 36.12032 326.92746Z"
     fill="#757575" />
  <path
     id="path377"
     fill-rule="nonzero"
     d="M28.49532 277.92947L27.62032 277.92947L27.62032 271.21072Q27.323444 271.55447 26.823444 271.92947Q26.323444 272.28885 25.90157 272.47635L25.90157 271.46072Q26.604694 271.05447 27.15157 270.46072Q27.698444 269.86697 27.93282 269.30447L28.49532 269.30447L28.49532 277.92947ZM30.229694 273.6951Q30.229694 271.52322 30.80782 270.41385Q31.40157 269.30447 32.542194 269.30447Q33.542194 269.30447 34.12032 270.21072Q34.823444 271.28885 34.823444 273.6951Q34.823444 275.83572 34.24532 276.96072Q33.667194 278.0701 32.52657 278.0701Q31.510944 278.0701 30.87032 277.08572Q30.229694 276.10135 30.229694 273.6951ZM31.12032 273.6951Q31.12032 275.78885 31.510944 276.5076Q31.917194 277.21072 32.542194 277.21072Q33.135944 277.21072 33.52657 276.49197Q33.93282 275.77322 33.93282 273.6951Q33.93282 271.60135 33.52657 270.89822Q33.135944 270.17947 32.49532 270.17947Q31.90157 270.17947 31.510944 270.89822Q31.12032 271.61697 31.12032 273.6951ZM35.229694 273.6951Q35.229694 271.52322 35.80782 270.41385Q36.40157 269.30447 37.542194 269.30447Q38.542194 269.30447 39.12032 270.21072Q39.823444 271.28885 39.823444 273.6951Q39.823444 275.83572 39.24532 276.96072Q38.667194 278.0701 37.52657 278.0701Q36.510944 278.0701 35.87032 277.08572Q35.229694 276.10135 35.229694 273.6951ZM36.12032 273.6951Q36.12032 275.78885 36.510944 276.5076Q36.917194 277.21072 37.542194 277.21072Q38.135944 277.21072 38.52657 276.49197Q38.93282 275.77322 38.93282 273.6951Q38.93282 271.60135 38.52657 270.89822Q38.135944 270.17947 37.49532 270.17947Q36.90157 270.17947 36.510944 270.89822Q36.12032 271.61697 36.12032 273.6951Z"
     fill="#757575" />
  <path
     id="path379"
     fill-rule="nonzero"
     d="M23.49532 224.6971L22.62032 224.6971L22.62032 217.97835Q22.323444 218.3221 21.823444 218.6971Q21.323444 219.05647 20.90157 219.24397L20.90157 218.22835Q21.604694 217.8221 22.15157 217.22835Q22.698444 216.6346 22.93282 216.0721L23.49532 216.0721L23.49532 224.6971ZM25.229694 220.46272Q25.229694 218.29085 25.80782 217.18147Q26.40157 216.0721 27.542194 216.0721Q28.542194 216.0721 29.12032 216.97835Q29.823444 218.05647 29.823444 220.46272Q29.823444 222.60335 29.24532 223.72835Q28.667194 224.83772 27.52657 224.83772Q26.510944 224.83772 25.87032 223.85335Q25.229694 222.86897 25.229694 220.46272ZM26.12032 220.46272Q26.12032 222.55647 26.510944 223.27522Q26.917194 223.97835 27.542194 223.97835Q28.135944 223.97835 28.52657 223.2596Q28.93282 222.54085 28.93282 220.46272Q28.93282 218.36897 28.52657 217.66585Q28.135944 216.9471 27.49532 216.9471Q26.90157 216.9471 26.510944 217.66585Q26.12032 218.3846 26.12032 220.46272ZM30.229694 220.46272Q30.229694 218.29085 30.80782 217.18147Q31.40157 216.0721 32.542194 216.0721Q33.542194 216.0721 34.12032 216.97835Q34.823444 218.05647 34.823444 220.46272Q34.823444 222.60335 34.24532 223.72835Q33.667194 224.83772 32.52657 224.83772Q31.510944 224.83772 30.87032 223.85335Q30.229694 222.86897 30.229694 220.46272ZM31.12032 220.46272Q31.12032 222.55647 31.510944 223.27522Q31.917194 223.97835 32.542194 223.97835Q33.135944 223.97835 33.52657 223.2596Q33.93282 222.54085 33.93282 220.46272Q33.93282 218.36897 33.52657 217.66585Q33.135944 216.9471 32.49532 216.9471Q31.90157 216.9471 31.510944 217.66585Q31.12032 218.3846 31.12032 220.46272ZM35.229694 220.46272Q35.229694 218.29085 35.80782 217.18147Q36.40157 216.0721 37.542194 216.0721Q38.542194 216.0721 39.12032 216.97835Q39.823444 218.05647 39.823444 220.46272Q39.823444 222.60335 39.24532 223.72835Q38.667194 224.83772 37.52657 224.83772Q36.510944 224.83772 35.87032 223.85335Q35.229694 222.86897 35.229694 220.46272ZM36.12032 220.46272Q36.12032 222.55647 36.510944 223.27522Q36.917194 223.97835 37.542194 223.97835Q38.135944 223.97835 38.52657 223.2596Q38.93282 222.54085 38.93282 220.46272Q38.93282 218.36897 38.52657 217.66585Q38.135944 216.9471 37.49532 216.9471Q36.90157 216.9471 36.510944 217.66585Q36.12032 218.3846 36.12032 220.46272Z"
     fill="#757575" />
  <path
     id="path393"
     fill-rule="nonzero"
     d="M130.90201 373.2908L132.83951 372.3533L133.02701 372.3533L133.02701 379.05643Q133.02701 379.7283 133.07388 379.90018Q133.13638 380.05643 133.30826 380.15018Q133.49576 380.2283 134.02701 380.24393L134.02701 380.46268L131.04263 380.46268L131.04263 380.24393Q131.60513 380.2283 131.76138 380.15018Q131.93326 380.05643 131.99576 379.9158Q132.05826 379.77518 132.05826 379.05643L132.05826 374.77518Q132.05826 373.90018 132.01138 373.6658Q131.96451 373.4783 131.85513 373.38455Q131.74576 373.2908 131.58951 373.2908Q131.37076 373.2908 130.99576 373.4783L130.90201 373.2908ZM135.93326 376.5408Q135.93326 375.18143 136.33951 374.19705Q136.74576 373.21268 137.43326 372.7283Q137.96451 372.3533 138.52701 372.3533Q139.43326 372.3533 140.16763 373.2908Q141.07388 374.43143 141.07388 376.4158Q141.07388 377.7908 140.66763 378.75955Q140.27701 379.7283 139.65201 380.1658Q139.04263 380.6033 138.46451 380.6033Q137.32388 380.6033 136.57388 379.25955Q135.93326 378.13455 135.93326 376.5408ZM137.07388 376.68143Q137.07388 378.32205 137.48013 379.3533Q137.82388 380.2283 138.48013 380.2283Q138.79263 380.2283 139.13638 379.94705Q139.48013 379.6658 139.65201 378.99393Q139.91763 377.99393 139.91763 376.15018Q139.91763 374.7908 139.63638 373.88455Q139.43326 373.21268 139.08951 372.93143Q138.85513 372.74393 138.51138 372.74393Q138.12076 372.74393 137.80826 373.1033Q137.38638 373.58768 137.23013 374.63455Q137.07388 375.6658 137.07388 376.68143Z"
     fill="#757575" />
  <path
     id="path395"
     fill-rule="nonzero"
     d="M290.49942 373.2908L292.43692 372.3533L292.62442 372.3533L292.62442 379.05643Q292.62442 379.7283 292.6713 379.90018Q292.7338 380.05643 292.90567 380.15018Q293.09317 380.2283 293.62442 380.24393L293.62442 380.46268L290.64005 380.46268L290.64005 380.24393Q291.20255 380.2283 291.3588 380.15018Q291.53067 380.05643 291.59317 379.9158Q291.65567 379.77518 291.65567 379.05643L291.65567 374.77518Q291.65567 373.90018 291.6088 373.6658Q291.56192 373.4783 291.45255 373.38455Q291.34317 373.2908 291.18692 373.2908Q290.96817 373.2908 290.59317 373.4783L290.49942 373.2908ZM295.53067 376.5408Q295.53067 375.18143 295.93692 374.19705Q296.34317 373.21268 297.03067 372.7283Q297.56192 372.3533 298.12442 372.3533Q299.03067 372.3533 299.76505 373.2908Q300.6713 374.43143 300.6713 376.4158Q300.6713 377.7908 300.26505 378.75955Q299.87442 379.7283 299.24942 380.1658Q298.64005 380.6033 298.06192 380.6033Q296.9213 380.6033 296.1713 379.25955Q295.53067 378.13455 295.53067 376.5408ZM296.6713 376.68143Q296.6713 378.32205 297.07755 379.3533Q297.4213 380.2283 298.07755 380.2283Q298.39005 380.2283 298.7338 379.94705Q299.07755 379.6658 299.24942 378.99393Q299.51505 377.99393 299.51505 376.15018Q299.51505 374.7908 299.2338 373.88455Q299.03067 373.21268 298.68692 372.93143Q298.45255 372.74393 298.1088 372.74393Q297.71817 372.74393 297.40567 373.1033Q296.9838 373.58768 296.82755 374.63455Q296.6713 375.6658 296.6713 376.68143ZM301.53067 376.5408Q301.53067 375.18143 301.93692 374.19705Q302.34317 373.21268 303.03067 372.7283Q303.56192 372.3533 304.12442 372.3533Q305.03067 372.3533 305.76505 373.2908Q306.6713 374.43143 306.6713 376.4158Q306.6713 377.7908 306.26505 378.75955Q305.87442 379.7283 305.24942 380.1658Q304.64005 380.6033 304.06192 380.6033Q302.9213 380.6033 302.1713 379.25955Q301.53067 378.13455 301.53067 376.5408ZM302.6713 376.68143Q302.6713 378.32205 303.07755 379.3533Q303.4213 380.2283 304.07755 380.2283Q304.39005 380.2283 304.7338 379.94705Q305.07755 379.6658 305.24942 378.99393Q305.51505 377.99393 305.51505 376.15018Q305.51505 374.7908 305.2338 373.88455Q305.03067 373.21268 304.68692 372.93143Q304.45255 372.74393 304.1088 372.74393Q303.71817 372.74393 303.40567 373.1033Q302.9838 373.58768 302.82755 374.63455Q302.6713 375.6658 302.6713 376.68143ZM307.53067 376.5408Q307.53067 375.18143 307.93692 374.19705Q308.34317 373.21268 309.03067 372.7283Q309.56192 372.3533 310.12442 372.3533Q311.03067 372.3533 311.76505 373.2908Q312.6713 374.43143 312.6713 376.4158Q312.6713 377.7908 312.26505 378.75955Q311.87442 379.7283 311.24942 380.1658Q310.64005 380.6033 310.06192 380.6033Q308.9213 380.6033 308.1713 379.25955Q307.53067 378.13455 307.53067 376.5408ZM308.6713 376.68143Q308.6713 378.32205 309.07755 379.3533Q309.4213 380.2283 310.07755 380.2283Q310.39005 380.2283 310.7338 379.94705Q311.07755 379.6658 311.24942 378.99393Q311.51505 377.99393 311.51505 376.15018Q311.51505 374.7908 311.2338 373.88455Q311.03067 373.21268 310.68692 372.93143Q310.45255 372.74393 310.1088 372.74393Q309.71817 372.74393 309.40567 373.1033Q308.9838 373.58768 308.82755 374.63455Q308.6713 375.6658 308.6713 376.68143Z"
     fill="#757575" />
  <path
     id="path397"
     fill-rule="nonzero"
     d="M450.09683 373.2908L452.03433 372.3533L452.22183 372.3533L452.22183 379.05643Q452.22183 379.7283 452.2687 379.90018Q452.3312 380.05643 452.50308 380.15018Q452.69058 380.2283 453.22183 380.24393L453.22183 380.46268L450.23746 380.46268L450.23746 380.24393Q450.79996 380.2283 450.9562 380.15018Q451.12808 380.05643 451.19058 379.9158Q451.25308 379.77518 451.25308 379.05643L451.25308 374.77518Q451.25308 373.90018 451.2062 373.6658Q451.15933 373.4783 451.04996 373.38455Q450.94058 373.2908 450.78433 373.2908Q450.56558 373.2908 450.19058 373.4783L450.09683 373.2908ZM455.12808 376.5408Q455.12808 375.18143 455.53433 374.19705Q455.94058 373.21268 456.62808 372.7283Q457.15933 372.3533 457.72183 372.3533Q458.62808 372.3533 459.36246 373.2908Q460.2687 374.43143 460.2687 376.4158Q460.2687 377.7908 459.86246 378.75955Q459.47183 379.7283 458.84683 380.1658Q458.23746 380.6033 457.65933 380.6033Q456.5187 380.6033 455.7687 379.25955Q455.12808 378.13455 455.12808 376.5408ZM456.2687 376.68143Q456.2687 378.32205 456.67496 379.3533Q457.0187 380.2283 457.67496 380.2283Q457.98746 380.2283 458.3312 379.94705Q458.67496 379.6658 458.84683 378.99393Q459.11246 377.99393 459.11246 376.15018Q459.11246 374.7908 458.8312 373.88455Q458.62808 373.21268 458.28433 372.93143Q458.04996 372.74393 457.7062 372.74393Q457.31558 372.74393 457.00308 373.1033Q456.5812 373.58768 456.42496 374.63455Q456.2687 375.6658 456.2687 376.68143ZM461.12808 376.5408Q461.12808 375.18143 461.53433 374.19705Q461.94058 373.21268 462.62808 372.7283Q463.15933 372.3533 463.72183 372.3533Q464.62808 372.3533 465.36246 373.2908Q466.2687 374.43143 466.2687 376.4158Q466.2687 377.7908 465.86246 378.75955Q465.47183 379.7283 464.84683 380.1658Q464.23746 380.6033 463.65933 380.6033Q462.5187 380.6033 461.7687 379.25955Q461.12808 378.13455 461.12808 376.5408ZM462.2687 376.68143Q462.2687 378.32205 462.67496 379.3533Q463.0187 380.2283 463.67496 380.2283Q463.98746 380.2283 464.3312 379.94705Q464.67496 379.6658 464.84683 378.99393Q465.11246 377.99393 465.11246 376.15018Q465.11246 374.7908 464.8312 373.88455Q464.62808 373.21268 464.28433 372.93143Q464.04996 372.74393 463.7062 372.74393Q463.31558 372.74393 463.00308 373.1033Q462.5812 373.58768 462.42496 374.63455Q462.2687 375.6658 462.2687 376.68143ZM467.12808 376.5408Q467.12808 375.18143 467.53433 374.19705Q467.94058 373.21268 468.62808 372.7283Q469.15933 372.3533 469.72183 372.3533Q470.62808 372.3533 471.36246 373.2908Q472.2687 374.43143 472.2687 376.4158Q472.2687 377.7908 471.86246 378.75955Q471.47183 379.7283 470.84683 380.1658Q470.23746 380.6033 469.65933 380.6033Q468.5187 380.6033 467.7687 379.25955Q467.12808 378.13455 467.12808 376.5408ZM468.2687 376.68143Q468.2687 378.32205 468.67496 379.3533Q469.0187 380.2283 469.67496 380.2283Q469.98746 380.2283 470.3312 379.94705Q470.67496 379.6658 470.84683 378.99393Q471.11246 377.99393 471.11246 376.15018Q471.11246 374.7908 470.8312 373.88455Q470.62808 373.21268 470.28433 372.93143Q470.04996 372.74393 469.7062 372.74393Q469.31558 372.74393 469.00308 373.1033Q468.5812 373.58768 468.42496 374.63455Q468.2687 375.6658 468.2687 376.68143ZM473.12808 376.5408Q473.12808 375.18143 473.53433 374.19705Q473.94058 373.21268 474.62808 372.7283Q475.15933 372.3533 475.72183 372.3533Q476.62808 372.3533 477.36246 373.2908Q478.2687 374.43143 478.2687 376.4158Q478.2687 377.7908 477.86246 378.75955Q477.47183 379.7283 476.84683 380.1658Q476.23746 380.6033 475.65933 380.6033Q474.5187 380.6033 473.7687 379.25955Q473.12808 378.13455 473.12808 376.5408ZM474.2687 376.68143Q474.2687 378.32205 474.67496 379.3533Q475.0187 380.2283 475.67496 380.2283Q475.98746 380.2283 476.3312 379.94705Q476.67496 379.6658 476.84683 378.99393Q477.11246 377.99393 477.11246 376.15018Q477.11246 374.7908 476.8312 373.88455Q476.62808 373.21268 476.28433 372.93143Q476.04996 372.74393 475.7062 372.74393Q475.31558 372.74393 475.00308 373.1033Q474.5812 373.58768 474.42496 374.63455Q474.2687 375.6658 474.2687 376.68143ZM479.12808 376.5408Q479.12808 375.18143 479.53433 374.19705Q479.94058 373.21268 480.62808 372.7283Q481.15933 372.3533 481.72183 372.3533Q482.62808 372.3533 483.36246 373.2908Q484.2687 374.43143 484.2687 376.4158Q484.2687 377.7908 483.86246 378.75955Q483.47183 379.7283 482.84683 380.1658Q482.23746 380.6033 481.65933 380.6033Q480.5187 380.6033 479.7687 379.25955Q479.12808 378.13455 479.12808 376.5408ZM480.2687 376.68143Q480.2687 378.32205 480.67496 379.3533Q481.0187 380.2283 481.67496 380.2283Q481.98746 380.2283 482.3312 379.94705Q482.67496 379.6658 482.84683 378.99393Q483.11246 377.99393 483.11246 376.15018Q483.11246 374.7908 482.8312 373.88455Q482.62808 373.21268 482.28433 372.93143Q482.04996 372.74393 481.7062 372.74393Q481.31558 372.74393 481.00308 373.1033Q480.5812 373.58768 480.42496 374.63455Q480.2687 375.6658 480.2687 376.68143Z"
     fill="#757575" />
  <path
     id="path399"
     fill-rule="nonzero"
     d="M609.6942 373.2908L611.6317 372.3533L611.8192 372.3533L611.8192 379.05643Q611.8192 379.7283 611.8661 379.90018Q611.9286 380.05643 612.10046 380.15018Q612.28796 380.2283 612.8192 380.24393L612.8192 380.46268L609.83484 380.46268L609.83484 380.24393Q610.39734 380.2283 610.5536 380.15018Q610.72546 380.05643 610.78796 379.9158Q610.85046 379.77518 610.85046 379.05643L610.85046 374.77518Q610.85046 373.90018 610.8036 373.6658Q610.7567 373.4783 610.64734 373.38455Q610.53796 373.2908 610.3817 373.2908Q610.16296 373.2908 609.78796 373.4783L609.6942 373.2908ZM614.72546 376.5408Q614.72546 375.18143 615.1317 374.19705Q615.53796 373.21268 616.22546 372.7283Q616.7567 372.3533 617.3192 372.3533Q618.22546 372.3533 618.95984 373.2908Q619.8661 374.43143 619.8661 376.4158Q619.8661 377.7908 619.45984 378.75955Q619.0692 379.7283 618.4442 380.1658Q617.83484 380.6033 617.2567 380.6033Q616.1161 380.6033 615.3661 379.25955Q614.72546 378.13455 614.72546 376.5408ZM615.8661 376.68143Q615.8661 378.32205 616.27234 379.3533Q616.6161 380.2283 617.27234 380.2283Q617.58484 380.2283 617.9286 379.94705Q618.27234 379.6658 618.4442 378.99393Q618.70984 377.99393 618.70984 376.15018Q618.70984 374.7908 618.4286 373.88455Q618.22546 373.21268 617.8817 372.93143Q617.64734 372.74393 617.3036 372.74393Q616.91296 372.74393 616.60046 373.1033Q616.1786 373.58768 616.02234 374.63455Q615.8661 375.6658 615.8661 376.68143ZM620.72546 376.5408Q620.72546 375.18143 621.1317 374.19705Q621.53796 373.21268 622.22546 372.7283Q622.7567 372.3533 623.3192 372.3533Q624.22546 372.3533 624.95984 373.2908Q625.8661 374.43143 625.8661 376.4158Q625.8661 377.7908 625.45984 378.75955Q625.0692 379.7283 624.4442 380.1658Q623.83484 380.6033 623.2567 380.6033Q622.1161 380.6033 621.3661 379.25955Q620.72546 378.13455 620.72546 376.5408ZM621.8661 376.68143Q621.8661 378.32205 622.27234 379.3533Q622.6161 380.2283 623.27234 380.2283Q623.58484 380.2283 623.9286 379.94705Q624.27234 379.6658 624.4442 378.99393Q624.70984 377.99393 624.70984 376.15018Q624.70984 374.7908 624.4286 373.88455Q624.22546 373.21268 623.8817 372.93143Q623.64734 372.74393 623.3036 372.74393Q622.91296 372.74393 622.60046 373.1033Q622.1786 373.58768 622.02234 374.63455Q621.8661 375.6658 621.8661 376.68143ZM626.72546 376.5408Q626.72546 375.18143 627.1317 374.19705Q627.53796 373.21268 628.22546 372.7283Q628.7567 372.3533 629.3192 372.3533Q630.22546 372.3533 630.95984 373.2908Q631.8661 374.43143 631.8661 376.4158Q631.8661 377.7908 631.45984 378.75955Q631.0692 379.7283 630.4442 380.1658Q629.83484 380.6033 629.2567 380.6033Q628.1161 380.6033 627.3661 379.25955Q626.72546 378.13455 626.72546 376.5408ZM627.8661 376.68143Q627.8661 378.32205 628.27234 379.3533Q628.6161 380.2283 629.27234 380.2283Q629.58484 380.2283 629.9286 379.94705Q630.27234 379.6658 630.4442 378.99393Q630.70984 377.99393 630.70984 376.15018Q630.70984 374.7908 630.4286 373.88455Q630.22546 373.21268 629.8817 372.93143Q629.64734 372.74393 629.3036 372.74393Q628.91296 372.74393 628.60046 373.1033Q628.1786 373.58768 628.02234 374.63455Q627.8661 375.6658 627.8661 376.68143ZM632.72546 376.5408Q632.72546 375.18143 633.1317 374.19705Q633.53796 373.21268 634.22546 372.7283Q634.7567 372.3533 635.3192 372.3533Q636.22546 372.3533 636.95984 373.2908Q637.8661 374.43143 637.8661 376.4158Q637.8661 377.7908 637.45984 378.75955Q637.0692 379.7283 636.4442 380.1658Q635.83484 380.6033 635.2567 380.6033Q634.1161 380.6033 633.3661 379.25955Q632.72546 378.13455 632.72546 376.5408ZM633.8661 376.68143Q633.8661 378.32205 634.27234 379.3533Q634.6161 380.2283 635.27234 380.2283Q635.58484 380.2283 635.9286 379.94705Q636.27234 379.6658 636.4442 378.99393Q636.70984 377.99393 636.70984 376.15018Q636.70984 374.7908 636.4286 373.88455Q636.22546 373.21268 635.8817 372.93143Q635.64734 372.74393 635.3036 372.74393Q634.91296 372.74393 634.60046 373.1033Q634.1786 373.58768 634.02234 374.63455Q633.8661 375.6658 633.8661 376.68143ZM638.72546 376.5408Q638.72546 375.18143 639.1317 374.19705Q639.53796 373.21268 640.22546 372.7283Q640.7567 372.3533 641.3192 372.3533Q642.22546 372.3533 642.95984 373.2908Q643.8661 374.43143 643.8661 376.4158Q643.8661 377.7908 643.45984 378.75955Q643.0692 379.7283 642.4442 380.1658Q641.83484 380.6033 641.2567 380.6033Q640.1161 380.6033 639.3661 379.25955Q638.72546 378.13455 638.72546 376.5408ZM639.8661 376.68143Q639.8661 378.32205 640.27234 379.3533Q640.6161 380.2283 641.27234 380.2283Q641.58484 380.2283 641.9286 379.94705Q642.27234 379.6658 642.4442 378.99393Q642.70984 377.99393 642.70984 376.15018Q642.70984 374.7908 642.4286 373.88455Q642.22546 373.21268 641.8817 372.93143Q641.64734 372.74393 641.3036 372.74393Q640.91296 372.74393 640.60046 373.1033Q640.1786 373.58768 640.02234 374.63455Q639.8661 375.6658 639.8661 376.68143ZM644.72546 376.5408Q644.72546 375.18143 645.1317 374.19705Q645.53796 373.21268 646.22546 372.7283Q646.7567 372.3533 647.3192 372.3533Q648.22546 372.3533 648.95984 373.2908Q649.8661 374.43143 649.8661 376.4158Q649.8661 377.7908 649.45984 378.75955Q649.0692 379.7283 648.4442 380.1658Q647.83484 380.6033 647.2567 380.6033Q646.1161 380.6033 645.3661 379.25955Q644.72546 378.13455 644.72546 376.5408ZM645.8661 376.68143Q645.8661 378.32205 646.27234 379.3533Q646.6161 380.2283 647.27234 380.2283Q647.58484 380.2283 647.9286 379.94705Q648.27234 379.6658 648.4442 378.99393Q648.70984 377.99393 648.70984 376.15018Q648.70984 374.7908 648.4286 373.88455Q648.22546 373.21268 647.8817 372.93143Q647.64734 372.74393 647.3036 372.74393Q646.91296 372.74393 646.60046 373.1033Q646.1786 373.58768 646.02234 374.63455Q645.8661 375.6658 645.8661 376.68143ZM650.72546 376.5408Q650.72546 375.18143 651.1317 374.19705Q651.53796 373.21268 652.22546 372.7283Q652.7567 372.3533 653.3192 372.3533Q654.22546 372.3533 654.95984 373.2908Q655.8661 374.43143 655.8661 376.4158Q655.8661 377.7908 655.45984 378.75955Q655.0692 379.7283 654.4442 380.1658Q653.83484 380.6033 653.2567 380.6033Q652.1161 380.6033 651.3661 379.25955Q650.72546 378.13455 650.72546 376.5408ZM651.8661 376.68143Q651.8661 378.32205 652.27234 379.3533Q652.6161 380.2283 653.27234 380.2283Q653.58484 380.2283 653.9286 379.94705Q654.27234 379.6658 654.4442 378.99393Q654.70984 377.99393 654.70984 376.15018Q654.70984 374.7908 654.4286 373.88455Q654.22546 373.21268 653.8817 372.93143Q653.64734 372.74393 653.3036 372.74393Q652.91296 372.74393 652.60046 373.1033Q652.1786 373.58768 652.02234 374.63455Q651.8661 375.6658 651.8661 376.68143Z"
     fill="#757575" />
  <path
     id="path401"
     fill-rule="nonzero"
     d="M493.84604 151.69699L499.84604 157.69699L493.84604 163.69699L487.84604 157.69699Z"
     fill="#4285f4" />
  <path
     id="path403"
     fill-rule="nonzero"
     d="M521.846 151.69699L527.0422 160.69699L516.6499 160.69699Z"
     fill="#db4437" />
  <path
     id="path405"
     fill-rule="nonzero"
     d="M545.6034 153.45435L554.0887 153.45435L554.0887 161.93964L545.6034 161.93964Z"
     fill="#f4b400" />
  <path
     id="path407"
     fill-rule="nonzero"
     d="M583.846 157.69699C583.846 161.0107 581.1597 163.69699 577.846 163.69699C574.53235 163.69699 571.846 161.0107 571.846 157.69699C571.846 154.38329 574.53235 151.69699 577.846 151.69699C581.1597 151.69699 583.846 154.38329 583.846 157.69699Z"
     fill="#0f9d58" />
  <path
     id="path409"
     fill-rule="nonzero"
     d="M489.87088 133.03775Q489.87088 134.08463 489.5115 134.86588Q489.16776 135.64713 488.5115 136.05338Q487.87088 136.45963 487.0115 136.45963Q486.18338 136.45963 485.52713 136.05338Q484.87088 135.6315 484.5115 134.8815Q484.16776 134.11588 484.15213 133.10025L484.15213 132.58463Q484.15213 131.569 484.5115 130.78775Q484.87088 129.99088 485.5115 129.58463Q486.16776 129.16275 487.0115 129.16275Q487.85526 129.16275 488.5115 129.58463Q489.16776 129.99088 489.5115 130.77213Q489.87088 131.55338 489.87088 132.58463L489.87088 133.03775ZM488.93338 132.58463Q488.93338 131.319 488.41776 130.64713Q487.91776 129.95963 487.0115 129.95963Q486.12088 129.95963 485.60526 130.64713Q485.10526 131.319 485.08963 132.52213L485.08963 133.03775Q485.08963 134.27213 485.60526 134.97525Q486.12088 135.66275 487.0115 135.66275Q487.91776 135.66275 488.41776 135.0065Q488.91776 134.35025 488.93338 133.11588L488.93338 132.58463ZM495.71463 133.78775Q495.71463 134.99088 495.16776 135.72525Q494.62088 136.45963 493.66776 136.45963Q492.71463 136.45963 492.16776 135.85025L492.16776 138.39713L491.2615 138.39713L491.2615 131.08463L492.08963 131.08463L492.12088 131.66275Q492.68338 130.99088 493.66776 130.99088Q494.60526 130.99088 495.15213 131.70963Q495.71463 132.41275 495.71463 133.694L495.71463 133.78775ZM494.824 133.67838Q494.824 132.78775 494.43338 132.27213Q494.05838 131.7565 493.3865 131.7565Q492.574 131.7565 492.16776 132.47525L492.16776 135.0065Q492.574 135.72525 493.40213 135.72525Q494.05838 135.72525 494.43338 135.20963Q494.824 134.694 494.824 133.67838ZM499.449 136.45963Q498.37088 136.45963 497.699 135.7565Q497.02713 135.05338 497.02713 133.86588L497.02713 133.70963Q497.02713 132.91275 497.324 132.30338Q497.6365 131.67838 498.16776 131.33463Q498.71463 130.99088 499.33963 130.99088Q500.37088 130.99088 500.93338 131.66275Q501.5115 132.33463 501.5115 133.60025L501.5115 133.97525L497.93338 133.97525Q497.949 134.7565 498.3865 135.24088Q498.824 135.72525 499.49588 135.72525Q499.98026 135.72525 500.30838 135.53775Q500.6365 135.33463 500.8865 135.0065L501.449 135.444Q500.77713 136.45963 499.449 136.45963ZM499.33963 131.72525Q498.79276 131.72525 498.41776 132.1315Q498.04276 132.52213 497.96463 133.24088L500.60526 133.24088L500.60526 133.17838Q500.574 132.49088 500.23026 132.11588Q499.90213 131.72525 499.33963 131.72525ZM503.10526 131.08463L503.1365 131.74088Q503.74588 130.99088 504.73026 130.99088Q506.40213 130.99088 506.41776 132.8815L506.41776 136.36588L505.5115 136.36588L505.5115 132.86588Q505.5115 132.30338 505.24588 132.03775Q504.99588 131.7565 504.449 131.7565Q504.0115 131.7565 503.66776 131.99088Q503.33963 132.22525 503.16776 132.60025L503.16776 136.36588L502.2615 136.36588L502.2615 131.08463L503.10526 131.08463ZM515.6365 134.11588Q515.49585 135.24088 514.7927 135.85025Q514.0896 136.45963 512.93335 136.45963Q511.66776 136.45963 510.90213 135.569Q510.15213 134.66275 510.15213 133.14713L510.15213 132.45963Q510.15213 131.47525 510.5115 130.72525Q510.87088 129.95963 511.5115 129.569Q512.1677 129.16275 513.0115 129.16275Q514.1521 129.16275 514.824 129.80338Q515.5115 130.42838 515.6365 131.53775L514.68335 131.53775Q514.55835 130.694 514.1521 130.319Q513.74585 129.92838 513.0115 129.92838Q512.12085 129.92838 511.60526 130.60025Q511.10526 131.2565 511.10526 132.49088L511.10526 133.17838Q511.10526 134.33463 511.574 135.02213Q512.05835 135.694 512.93335 135.694Q513.7146 135.694 514.12085 135.35025Q514.5427 134.99088 514.68335 134.11588L515.6365 134.11588ZM517.0115 133.67838Q517.0115 132.89713 517.324 132.28775Q517.6365 131.66275 518.1677 131.33463Q518.7146 130.99088 519.4177 130.99088Q520.49585 130.99088 521.1521 131.74088Q521.824 132.47525 521.824 133.72525L521.824 133.78775Q521.824 134.55338 521.5271 135.16275Q521.2302 135.77213 520.68335 136.11588Q520.1365 136.45963 519.43335 136.45963Q518.3552 136.45963 517.68335 135.72525Q517.0115 134.97525 517.0115 133.74088L517.0115 133.67838ZM517.93335 133.78775Q517.93335 134.66275 518.3396 135.194Q518.74585 135.72525 519.43335 135.72525Q520.12085 135.72525 520.5115 135.194Q520.9177 134.64713 520.9177 133.67838Q520.9177 132.80338 520.5115 132.27213Q520.1052 131.72525 519.4177 131.72525Q518.74585 131.72525 518.3396 132.2565Q517.93335 132.78775 517.93335 133.78775ZM524.1052 131.08463L524.1365 131.74088Q524.74585 130.99088 525.7302 130.99088Q527.4021 130.99088 527.4177 132.8815L527.4177 136.36588L526.5115 136.36588L526.5115 132.86588Q526.5115 132.30338 526.24585 132.03775Q525.99585 131.7565 525.449 131.7565Q525.0115 131.7565 524.6677 131.99088Q524.3396 132.22525 524.1677 132.60025L524.1677 136.36588L523.2615 136.36588L523.2615 131.08463L524.1052 131.08463ZM530.1052 131.08463L530.1365 131.74088Q530.74585 130.99088 531.7302 130.99088Q533.4021 130.99088 533.4177 132.8815L533.4177 136.36588L532.5115 136.36588L532.5115 132.86588Q532.5115 132.30338 532.24585 132.03775Q531.99585 131.7565 531.449 131.7565Q531.0115 131.7565 530.6677 131.99088Q530.3396 132.22525 530.1677 132.60025L530.1677 136.36588L529.2615 136.36588L529.2615 131.08463L530.1052 131.08463ZM537.449 136.45963Q536.37085 136.45963 535.699 135.7565Q535.0271 135.05338 535.0271 133.86588L535.0271 133.70963Q535.0271 132.91275 535.324 132.30338Q535.6365 131.67838 536.1677 131.33463Q536.7146 130.99088 537.3396 130.99088Q538.37085 130.99088 538.93335 131.66275Q539.5115 132.33463 539.5115 133.60025L539.5115 133.97525L535.93335 133.97525Q535.949 134.7565 536.3865 135.24088Q536.824 135.72525 537.49585 135.72525Q537.9802 135.72525 538.30835 135.53775Q538.6365 135.33463 538.8865 135.0065L539.449 135.444Q538.7771 136.45963 537.449 136.45963ZM537.3396 131.72525Q536.7927 131.72525 536.4177 132.1315Q536.0427 132.52213 535.9646 133.24088L538.6052 133.24088L538.6052 133.17838Q538.574 132.49088 538.2302 132.11588Q537.9021 131.72525 537.3396 131.72525ZM542.37085 135.72525Q542.8552 135.72525 543.2146 135.444Q543.5896 135.14713 543.62085 134.694L544.4802 134.694Q544.449 135.14713 544.1521 135.569Q543.87085 135.97525 543.3865 136.22525Q542.9177 136.45963 542.37085 136.45963Q541.2927 136.45963 540.6521 135.74088Q540.0271 135.02213 540.0271 133.77213L540.0271 133.61588Q540.0271 132.85025 540.30835 132.2565Q540.5896 131.64713 541.12085 131.319Q541.6521 130.99088 542.37085 130.99088Q543.2615 130.99088 543.8396 131.52213Q544.43335 132.05338 544.4802 132.89713L543.62085 132.89713Q543.5896 132.3815 543.2302 132.05338Q542.8865 131.72525 542.37085 131.72525Q541.68335 131.72525 541.30835 132.22525Q540.93335 132.72525 540.93335 133.66275L540.93335 133.819Q540.93335 134.74088 541.30835 135.24088Q541.68335 135.72525 542.37085 135.72525ZM546.4802 129.80338L546.4802 131.08463L547.4646 131.08463L547.4646 131.78775L546.4802 131.78775L546.4802 135.05338Q546.4802 135.3815 546.6052 135.53775Q546.74585 135.694 547.05835 135.694Q547.2146 135.694 547.49585 135.6315L547.49585 136.36588Q547.1365 136.45963 546.80835 136.45963Q546.199 136.45963 545.8865 136.10025Q545.574 135.72525 545.574 135.05338L545.574 131.78775L544.62085 131.78775L544.62085 131.08463L545.574 131.08463L545.574 129.80338L546.4802 129.80338ZM549.24585 136.36588L548.3396 136.36588L548.3396 131.08463L549.24585 131.08463L549.24585 136.36588ZM548.2615 129.67838Q548.2615 129.45963 548.3865 129.319Q548.5271 129.16275 548.7927 129.16275Q549.05835 129.16275 549.199 129.319Q549.3396 129.45963 549.3396 129.67838Q549.3396 129.89713 549.199 130.05338Q549.05835 130.194 548.7927 130.194Q548.5271 130.194 548.3865 130.05338Q548.2615 129.89713 548.2615 129.67838ZM550.0115 133.67838Q550.0115 132.89713 550.324 132.28775Q550.6365 131.66275 551.1677 131.33463Q551.7146 130.99088 552.4177 130.99088Q553.49585 130.99088 554.1521 131.74088Q554.824 132.47525 554.824 133.72525L554.824 133.78775Q554.824 134.55338 554.5271 135.16275Q554.2302 135.77213 553.68335 136.11588Q553.1365 136.45963 552.43335 136.45963Q551.3552 136.45963 550.68335 135.72525Q550.0115 134.97525 550.0115 133.74088L550.0115 133.67838ZM550.93335 133.78775Q550.93335 134.66275 551.3396 135.194Q551.74585 135.72525 552.43335 135.72525Q553.12085 135.72525 553.5115 135.194Q553.9177 134.64713 553.9177 133.67838Q553.9177 132.80338 553.5115 132.27213Q553.1052 131.72525 552.4177 131.72525Q551.74585 131.72525 551.3396 132.2565Q550.93335 132.78775 550.93335 133.78775ZM557.1052 131.08463L557.1365 131.74088Q557.74585 130.99088 558.7302 130.99088Q560.4021 130.99088 560.4177 132.8815L560.4177 136.36588L559.5115 136.36588L559.5115 132.86588Q559.5115 132.30338 559.24585 132.03775Q558.99585 131.7565 558.449 131.7565Q558.0115 131.7565 557.6677 131.99088Q557.3396 132.22525 557.1677 132.60025L557.1677 136.36588L556.2615 136.36588L556.2615 131.08463L557.1052 131.08463ZM565.3396 134.95963Q565.3396 134.60025 565.05835 134.39713Q564.7771 134.194 564.0896 134.05338Q563.4177 133.89713 563.0115 133.694Q562.6052 133.49088 562.4021 133.20963Q562.2146 132.92838 562.2146 132.53775Q562.2146 131.8815 562.7615 131.444Q563.324 130.99088 564.1677 130.99088Q565.074 130.99088 565.62085 131.45963Q566.18335 131.91275 566.18335 132.6315L565.2771 132.6315Q565.2771 132.2565 564.9646 131.99088Q564.6521 131.72525 564.1677 131.72525Q563.68335 131.72525 563.4021 131.944Q563.12085 132.16275 563.12085 132.5065Q563.12085 132.83463 563.37085 133.0065Q563.6365 133.16275 564.30835 133.319Q564.99585 133.45963 565.4177 133.67838Q565.8396 133.8815 566.0271 134.17838Q566.2302 134.47525 566.2302 134.89713Q566.2302 135.61588 565.6677 136.03775Q565.1052 136.45963 564.199 136.45963Q563.574 136.45963 563.074 136.24088Q562.5896 136.0065 562.30835 135.61588Q562.0427 135.20963 562.0427 134.74088L562.949 134.74088Q562.9646 135.194 563.30835 135.45963Q563.6521 135.72525 564.199 135.72525Q564.7146 135.72525 565.0271 135.52213Q565.3396 135.30338 565.3396 134.95963ZM567.43335 136.97525L566.6677 136.97525L569.6365 129.2565L570.4021 129.2565L567.43335 136.97525ZM576.87085 136.36588L575.9177 136.36588L572.3396 130.8815L572.3396 136.36588L571.4021 136.36588L571.4021 129.2565L572.3396 129.2565L575.93335 134.7565L575.93335 129.2565L576.87085 129.2565L576.87085 136.36588ZM581.5271 135.85025Q580.99585 136.45963 579.9646 136.45963Q579.12085 136.45963 578.68335 135.97525Q578.24585 135.47525 578.24585 134.52213L578.24585 131.08463L579.1365 131.08463L579.1365 134.49088Q579.1365 135.694 580.12085 135.694Q581.1521 135.694 581.49585 134.92838L581.49585 131.08463L582.4021 131.08463L582.4021 136.36588L581.5427 136.36588L581.5271 135.85025ZM585.1052 131.08463L585.1365 131.66275Q585.7146 130.99088 586.699 130.99088Q587.80835 130.99088 588.2146 131.83463Q588.4646 131.45963 588.8865 131.22525Q589.324 130.99088 589.8865 130.99088Q591.6365 130.99088 591.6677 132.819L591.6677 136.36588L590.7615 136.36588L590.7615 132.8815Q590.7615 132.319 590.49585 132.03775Q590.24585 131.7565 589.6365 131.7565Q589.12085 131.7565 588.7927 132.05338Q588.4646 132.35025 588.4021 132.86588L588.4021 136.36588L587.49585 136.36588L587.49585 132.89713Q587.49585 131.7565 586.37085 131.7565Q585.4802 131.7565 585.1521 132.5065L585.1521 136.36588L584.24585 136.36588L584.24585 131.08463L585.1052 131.08463ZM597.7302 133.78775Q597.7302 134.99088 597.1677 135.72525Q596.62085 136.45963 595.68335 136.45963Q594.68335 136.45963 594.1365 135.7565L594.0896 136.36588L593.2615 136.36588L593.2615 128.86588L594.1677 128.86588L594.1677 131.66275Q594.7146 130.99088 595.6677 130.99088Q596.6365 130.99088 597.18335 131.72525Q597.7302 132.444 597.7302 133.70963L597.7302 133.78775ZM596.824 133.67838Q596.824 132.7565 596.4646 132.2565Q596.12085 131.7565 595.449 131.7565Q594.55835 131.7565 594.1677 132.58463L594.1677 134.86588Q594.574 135.694 595.449 135.694Q596.1052 135.694 596.4646 135.194Q596.824 134.694 596.824 133.67838ZM601.449 136.45963Q600.37085 136.45963 599.699 135.7565Q599.0271 135.05338 599.0271 133.86588L599.0271 133.70963Q599.0271 132.91275 599.324 132.30338Q599.6365 131.67838 600.1677 131.33463Q600.7146 130.99088 601.3396 130.99088Q602.37085 130.99088 602.93335 131.66275Q603.5115 132.33463 603.5115 133.60025L603.5115 133.97525L599.93335 133.97525Q599.949 134.7565 600.3865 135.24088Q600.824 135.72525 601.49585 135.72525Q601.9802 135.72525 602.30835 135.53775Q602.6365 135.33463 602.8865 135.0065L603.449 135.444Q602.7771 136.45963 601.449 136.45963ZM601.3396 131.72525Q600.7927 131.72525 600.4177 132.1315Q600.0427 132.52213 599.9646 133.24088L602.6052 133.24088L602.6052 133.17838Q602.574 132.49088 602.2302 132.11588Q601.9021 131.72525 601.3396 131.72525ZM606.80835 131.89713Q606.6052 131.86588 606.37085 131.86588Q605.4802 131.86588 605.1677 132.61588L605.1677 136.36588L604.2615 136.36588L604.2615 131.08463L605.1365 131.08463L605.1521 131.694Q605.5896 130.99088 606.4177 130.99088Q606.6677 130.99088 606.80835 131.05338L606.80835 131.89713ZM609.0115 133.67838Q609.0115 132.89713 609.324 132.28775Q609.6365 131.66275 610.1677 131.33463Q610.7146 130.99088 611.4177 130.99088Q612.49585 130.99088 613.1521 131.74088Q613.824 132.47525 613.824 133.72525L613.824 133.78775Q613.824 134.55338 613.5271 135.16275Q613.2302 135.77213 612.68335 136.11588Q612.1365 136.45963 611.43335 136.45963Q610.3552 136.45963 609.68335 135.72525Q609.0115 134.97525 609.0115 133.74088L609.0115 133.67838ZM609.93335 133.78775Q609.93335 134.66275 610.3396 135.194Q610.74585 135.72525 611.43335 135.72525Q612.12085 135.72525 612.5115 135.194Q612.9177 134.64713 612.9177 133.67838Q612.9177 132.80338 612.5115 132.27213Q612.1052 131.72525 611.4177 131.72525Q610.74585 131.72525 610.3396 132.2565Q609.93335 132.78775 609.93335 133.78775ZM615.699 136.36588L615.699 131.78775L614.87085 131.78775L614.87085 131.08463L615.699 131.08463L615.699 130.53775Q615.699 129.694 616.1521 129.22525Q616.6052 128.7565 617.43335 128.7565Q617.74585 128.7565 618.05835 128.85025L618.0115 129.58463Q617.7771 129.53775 617.5271 129.53775Q617.0896 129.53775 616.8396 129.80338Q616.6052 130.05338 616.6052 130.52213L616.6052 131.08463L617.7302 131.08463L617.7302 131.78775L616.6052 131.78775L616.6052 136.36588L615.699 136.36588ZM625.30835 130.02213L623.0271 130.02213L623.0271 136.36588L622.0896 136.36588L622.0896 130.02213L619.80835 130.02213L619.80835 129.2565L625.30835 129.2565L625.30835 130.02213ZM627.1677 131.72525Q627.7615 130.99088 628.7302 130.99088Q630.4021 130.99088 630.4177 132.8815L630.4177 136.36588L629.5115 136.36588L629.5115 132.86588Q629.5115 132.30338 629.24585 132.03775Q628.99585 131.7565 628.449 131.7565Q628.0115 131.7565 627.6677 131.99088Q627.3396 132.22525 627.1677 132.60025L627.1677 136.36588L626.2615 136.36588L626.2615 128.86588L627.1677 128.86588L627.1677 131.72525ZM634.80835 131.89713Q634.6052 131.86588 634.37085 131.86588Q633.4802 131.86588 633.1677 132.61588L633.1677 136.36588L632.2615 136.36588L632.2615 131.08463L633.1365 131.08463L633.1521 131.694Q633.5896 130.99088 634.4177 130.99088Q634.6677 130.99088 634.80835 131.05338L634.80835 131.89713ZM637.449 136.45963Q636.37085 136.45963 635.699 135.7565Q635.0271 135.05338 635.0271 133.86588L635.0271 133.70963Q635.0271 132.91275 635.324 132.30338Q635.6365 131.67838 636.1677 131.33463Q636.7146 130.99088 637.3396 130.99088Q638.37085 130.99088 638.93335 131.66275Q639.5115 132.33463 639.5115 133.60025L639.5115 133.97525L635.93335 133.97525Q635.949 134.7565 636.3865 135.24088Q636.824 135.72525 637.49585 135.72525Q637.9802 135.72525 638.30835 135.53775Q638.6365 135.33463 638.8865 135.0065L639.449 135.444Q638.7771 136.45963 637.449 136.45963ZM637.3396 131.72525Q636.7927 131.72525 636.4177 132.1315Q636.0427 132.52213 635.9646 133.24088L638.6052 133.24088L638.6052 133.17838Q638.574 132.49088 638.2302 132.11588Q637.9021 131.72525 637.3396 131.72525ZM643.5271 136.36588Q643.449 136.20963 643.3865 135.80338Q642.7615 136.45963 641.8865 136.45963Q641.1052 136.45963 640.6052 136.02213Q640.1052 135.58463 640.1052 134.89713Q640.1052 134.069 640.7302 133.61588Q641.3552 133.16275 642.49585 133.16275L643.37085 133.16275L643.37085 132.74088Q643.37085 132.27213 643.0896 131.99088Q642.80835 131.70963 642.2615 131.70963Q641.7771 131.70963 641.449 131.95963Q641.12085 132.194 641.12085 132.55338L640.2146 132.55338Q640.2146 132.14713 640.49585 131.78775Q640.7771 131.41275 641.24585 131.20963Q641.7302 130.99088 642.30835 130.99088Q643.2302 130.99088 643.74585 131.444Q644.2615 131.89713 644.2771 132.694L644.2771 135.1315Q644.2771 135.85025 644.4646 136.28775L644.4646 136.36588L643.5271 136.36588ZM642.0271 135.67838Q642.449 135.67838 642.824 135.45963Q643.2146 135.24088 643.37085 134.8815L643.37085 133.80338L642.6677 133.80338Q641.0115 133.80338 641.0115 134.77213Q641.0115 135.194 641.2927 135.444Q641.574 135.67838 642.0271 135.67838ZM645.0427 133.67838Q645.0427 132.45963 645.6052 131.72525Q646.18335 130.99088 647.12085 130.99088Q648.05835 130.99088 648.5896 131.61588L648.5896 128.86588L649.49585 128.86588L649.49585 136.36588L648.6677 136.36588L648.62085 135.80338Q648.074 136.45963 647.12085 136.45963Q646.199 136.45963 645.62085 135.70963Q645.0427 134.95963 645.0427 133.74088L645.0427 133.67838ZM645.949 133.78775Q645.949 134.67838 646.30835 135.194Q646.68335 135.694 647.3396 135.694Q648.199 135.694 648.5896 134.92838L648.5896 132.49088Q648.18335 131.7565 647.3552 131.7565Q646.68335 131.7565 646.30835 132.27213Q645.949 132.77213 645.949 133.78775ZM654.3396 134.95963Q654.3396 134.60025 654.05835 134.39713Q653.7771 134.194 653.0896 134.05338Q652.4177 133.89713 652.0115 133.694Q651.6052 133.49088 651.4021 133.20963Q651.2146 132.92838 651.2146 132.53775Q651.2146 131.8815 651.7615 131.444Q652.324 130.99088 653.1677 130.99088Q654.074 130.99088 654.62085 131.45963Q655.18335 131.91275 655.18335 132.6315L654.2771 132.6315Q654.2771 132.2565 653.9646 131.99088Q653.6521 131.72525 653.1677 131.72525Q652.68335 131.72525 652.4021 131.944Q652.12085 132.16275 652.12085 132.5065Q652.12085 132.83463 652.37085 133.0065Q652.6365 133.16275 653.30835 133.319Q653.99585 133.45963 654.4177 133.67838Q654.8396 133.8815 655.0271 134.17838Q655.2302 134.47525 655.2302 134.89713Q655.2302 135.61588 654.6677 136.03775Q654.1052 136.45963 653.199 136.45963Q652.574 136.45963 652.074 136.24088Q651.5896 136.0065 651.30835 135.61588Q651.0427 135.20963 651.0427 134.74088L651.949 134.74088Q651.9646 135.194 652.30835 135.45963Q652.6521 135.72525 653.199 135.72525Q653.7146 135.72525 654.0271 135.52213Q654.3396 135.30338 654.3396 134.95963ZM656.2771 135.89713Q656.2771 135.66275 656.4177 135.5065Q656.55835 135.35025 656.824 135.35025Q657.1052 135.35025 657.24585 135.5065Q657.4021 135.66275 657.4021 135.89713Q657.4021 136.11588 657.24585 136.27213Q657.1052 136.41275 656.824 136.41275Q656.55835 136.41275 656.4177 136.27213Q656.2771 136.11588 656.2771 135.89713ZM656.2771 131.89713Q656.2771 131.66275 656.4177 131.5065Q656.55835 131.35025 656.824 131.35025Q657.1052 131.35025 657.24585 131.5065Q657.4021 131.66275 657.4021 131.89713Q657.4021 132.11588 657.24585 132.27213Q657.1052 132.41275 656.824 132.41275Q656.55835 132.41275 656.4177 132.27213Q656.2771 132.11588 656.2771 131.89713Z"
     fill="#757575" />
  <path
     id="path411"
     fill-rule="nonzero"
     d="M489.1365 149.36588L488.23026 149.36588L488.23026 143.35025L486.40213 144.0065L486.40213 143.194L488.99588 142.22525L489.1365 142.22525L489.1365 149.36588ZM492.43338 149.97525L491.66776 149.97525L494.6365 142.2565L495.40213 142.2565L492.43338 149.97525ZM499.1365 149.36588L498.23026 149.36588L498.23026 143.35025L496.40213 144.0065L496.40213 143.194L498.99588 142.22525L499.1365 142.22525L499.1365 149.36588ZM513.1365 149.36588L512.2302 149.36588L512.2302 143.35025L510.40213 144.0065L510.40213 143.194L512.99585 142.22525L513.1365 142.22525L513.1365 149.36588ZM520.62085 146.33463Q520.62085 147.91275 520.074 148.694Q519.5427 149.45963 518.3865 149.45963Q517.24585 149.45963 516.699 148.70963Q516.1521 147.95963 516.1365 146.45963L516.1365 145.2565Q516.1365 143.67838 516.6677 142.92838Q517.2146 142.16275 518.37085 142.16275Q519.5271 142.16275 520.05835 142.89713Q520.6052 143.6315 520.62085 145.16275L520.62085 146.33463ZM519.7146 145.10025Q519.7146 143.944 519.3865 143.42838Q519.074 142.89713 518.37085 142.89713Q517.68335 142.89713 517.3552 143.42838Q517.0427 143.944 517.0427 145.02213L517.0427 146.47525Q517.0427 147.6315 517.37085 148.17838Q517.7146 148.72525 518.3865 148.72525Q519.05835 148.72525 519.37085 148.20963Q519.699 147.694 519.7146 146.58463L519.7146 145.10025ZM522.43335 149.97525L521.6677 149.97525L524.6365 142.2565L525.4021 142.2565L522.43335 149.97525ZM529.1365 149.36588L528.2302 149.36588L528.2302 143.35025L526.4021 144.0065L526.4021 143.194L528.99585 142.22525L529.1365 142.22525L529.1365 149.36588ZM544.824 149.36588L540.1677 149.36588L540.1677 148.70963L542.62085 145.97525Q543.1677 145.36588 543.37085 144.97525Q543.5896 144.58463 543.5896 144.16275Q543.5896 143.61588 543.24585 143.2565Q542.9177 142.89713 542.3552 142.89713Q541.68335 142.89713 541.30835 143.28775Q540.93335 143.66275 540.93335 144.35025L540.0271 144.35025Q540.0271 143.36588 540.6521 142.77213Q541.2927 142.16275 542.3552 142.16275Q543.3396 142.16275 543.9177 142.67838Q544.49585 143.194 544.49585 144.069Q544.49585 145.11588 543.1521 146.569L541.2615 148.6315L544.824 148.6315L544.824 149.36588ZM549.9802 146.97525L550.9646 146.97525L550.9646 147.70963L549.9802 147.70963L549.9802 149.36588L549.074 149.36588L549.074 147.70963L545.8396 147.70963L545.8396 147.17838L549.0115 142.2565L549.9802 142.2565L549.9802 146.97525ZM546.8552 146.97525L549.074 146.97525L549.074 143.49088L548.9646 143.694L546.8552 146.97525ZM556.62085 146.33463Q556.62085 147.91275 556.074 148.694Q555.5427 149.45963 554.3865 149.45963Q553.24585 149.45963 552.699 148.70963Q552.1521 147.95963 552.1365 146.45963L552.1365 145.2565Q552.1365 143.67838 552.6677 142.92838Q553.2146 142.16275 554.37085 142.16275Q555.5271 142.16275 556.05835 142.89713Q556.6052 143.6315 556.62085 145.16275L556.62085 146.33463ZM555.7146 145.10025Q555.7146 143.944 555.3865 143.42838Q555.074 142.89713 554.37085 142.89713Q553.68335 142.89713 553.3552 143.42838Q553.0427 143.944 553.0427 145.02213L553.0427 146.47525Q553.0427 147.6315 553.37085 148.17838Q553.7146 148.72525 554.3865 148.72525Q555.05835 148.72525 555.37085 148.20963Q555.699 147.694 555.7146 146.58463L555.7146 145.10025ZM558.43335 149.97525L557.6677 149.97525L560.6365 142.2565L561.4021 142.2565L558.43335 149.97525ZM565.1365 149.36588L564.2302 149.36588L564.2302 143.35025L562.4021 144.0065L562.4021 143.194L564.99585 142.22525L565.1365 142.22525L565.1365 149.36588ZM578.824 149.36588L574.1677 149.36588L574.1677 148.70963L576.62085 145.97525Q577.1677 145.36588 577.37085 144.97525Q577.5896 144.58463 577.5896 144.16275Q577.5896 143.61588 577.24585 143.2565Q576.9177 142.89713 576.3552 142.89713Q575.68335 142.89713 575.30835 143.28775Q574.93335 143.66275 574.93335 144.35025L574.0271 144.35025Q574.0271 143.36588 574.6521 142.77213Q575.2927 142.16275 576.3552 142.16275Q577.3396 142.16275 577.9177 142.67838Q578.49585 143.194 578.49585 144.069Q578.49585 145.11588 577.1521 146.569L575.2615 148.6315L578.824 148.6315L578.824 149.36588ZM583.9802 146.97525L584.9646 146.97525L584.9646 147.70963L583.9802 147.70963L583.9802 149.36588L583.074 149.36588L583.074 147.70963L579.8396 147.70963L579.8396 147.17838L583.0115 142.2565L583.9802 142.2565L583.9802 146.97525ZM580.8552 146.97525L583.074 146.97525L583.074 143.49088L582.9646 143.694L580.8552 146.97525ZM590.62085 146.33463Q590.62085 147.91275 590.074 148.694Q589.5427 149.45963 588.3865 149.45963Q587.24585 149.45963 586.699 148.70963Q586.1521 147.95963 586.1365 146.45963L586.1365 145.2565Q586.1365 143.67838 586.6677 142.92838Q587.2146 142.16275 588.37085 142.16275Q589.5271 142.16275 590.05835 142.89713Q590.6052 143.6315 590.62085 145.16275L590.62085 146.33463ZM589.7146 145.10025Q589.7146 143.944 589.3865 143.42838Q589.074 142.89713 588.37085 142.89713Q587.68335 142.89713 587.3552 143.42838Q587.0427 143.944 587.0427 145.02213L587.0427 146.47525Q587.0427 147.6315 587.37085 148.17838Q587.7146 148.72525 588.3865 148.72525Q589.05835 148.72525 589.37085 148.20963Q589.699 147.694 589.7146 146.58463L589.7146 145.10025ZM592.43335 149.97525L591.6677 149.97525L594.6365 142.2565L595.4021 142.2565L592.43335 149.97525ZM600.824 149.36588L596.1677 149.36588L596.1677 148.70963L598.62085 145.97525Q599.1677 145.36588 599.37085 144.97525Q599.5896 144.58463 599.5896 144.16275Q599.5896 143.61588 599.24585 143.2565Q598.9177 142.89713 598.3552 142.89713Q597.68335 142.89713 597.30835 143.28775Q596.93335 143.66275 596.93335 144.35025L596.0271 144.35025Q596.0271 143.36588 596.6521 142.77213Q597.2927 142.16275 598.3552 142.16275Q599.3396 142.16275 599.9177 142.67838Q600.49585 143.194 600.49585 144.069Q600.49585 145.11588 599.1521 146.569L597.2615 148.6315L600.824 148.6315L600.824 149.36588ZM605.9802 146.97525L606.9646 146.97525L606.9646 147.70963L605.9802 147.70963L605.9802 149.36588L605.074 149.36588L605.074 147.70963L601.8396 147.70963L601.8396 147.17838L605.0115 142.2565L605.9802 142.2565L605.9802 146.97525ZM602.8552 146.97525L605.074 146.97525L605.074 143.49088L604.9646 143.694L602.8552 146.97525Z"
     fill="#757575" />
  <text
     id="text490"
     y="62.568542"
     x="8.1629515"
     style="font-style:normal;font-weight:normal;font-size:12px;line-height:1.25;font-family:Arial;fill:#000000;fill-opacity:1;stroke:none;-inkscape-font-specification:Arial;font-stretch:normal;font-variant:normal;"
     xml:space="preserve"><tspan
       style="-inkscape-font-specification:Arial;font-family:Arial;font-weight:normal;font-style:normal;font-stretch:normal;font-variant:normal;font-size:12px;"
       y="62.568542"
       x="8.1629515"
       id="tspan488"
       sodipodi:role="line">1000k</tspan></text>
  <text
     id="text494"
     y="111.72287"
     x="16.970564"
     style="font-style:normal;font-weight:normal;font-size:12px;line-height:1.25;font-family:Arial;fill:#000000;fill-opacity:1;stroke:none;-inkscape-font-specification:Arial;font-stretch:normal;font-variant:normal;"
     xml:space="preserve"><tspan
       y="111.72287"
       x="16.970564"
       id="tspan492"
       sodipodi:role="line">100k</tspan></text>
  <text
     xml:space="preserve"
     style="font-style:normal;font-variant:normal;font-weight:normal;font-stretch:normal;font-size:12px;line-height:1.25;font-family:Arial;-inkscape-font-specification:Arial;fill:#000000;fill-opacity:1;stroke:none"
     x="24.534351"
     y="168.28802"
     id="text494-3"><tspan
       sodipodi:role="line"
       id="tspan492-1"
       x="24.534351"
       y="168.28802">10k</tspan></text>
</svg>
